<svg xmlns="http://www.w3.org/2000/svg" xmlns:xlink="http://www.w3.org/1999/xlink" width="268.065" height="605.704" viewBox="0 0 268.065 605.704">
  <defs>
    <clipPath id="clip-path">
      <rect id="長方形_19" data-name="長方形 19" width="268.065" height="178.642" fill="none"/>
    </clipPath>
    <clipPath id="clip-path-2">
      <rect id="長方形_31" data-name="長方形 31" width="18.289" height="401" fill="none"/>
    </clipPath>
    <clipPath id="clip-path-3">
      <rect id="長方形_32" data-name="長方形 32" width="28.281" height="400.904" fill="none"/>
    </clipPath>
  </defs>
  <g id="グループ_93" data-name="グループ 93" transform="translate(-142.968 -133.5)">
    <g id="グループ_17" data-name="グループ 17" transform="translate(142.968 560.562)">
      <g id="グループ_16" data-name="グループ 16" transform="translate(0 0)" clip-path="url(#clip-path)">
        <path id="パス_101" data-name="パス 101" d="M218.266,118.147a1.372,1.372,0,0,1-.256-.024A1.392,1.392,0,0,1,216.9,116.5a65.261,65.261,0,0,0,1.092-11.889c0-43.231-42.843-78.4-95.507-78.4s-95.509,35.17-95.509,78.4A65.258,65.258,0,0,0,28.063,116.5a1.393,1.393,0,0,1-2.74.51,68.222,68.222,0,0,1-1.139-12.4c0-44.766,44.1-81.186,98.3-81.186s98.294,36.42,98.294,81.186a68.22,68.22,0,0,1-1.139,12.4,1.394,1.394,0,0,1-1.368,1.138" transform="translate(11.552 11.189)"/>
        <path id="パス_102" data-name="パス 102" d="M201.158,112.41a57.8,57.8,0,0,0,.969-10.553c0-38.294-37.7-69.336-84.2-69.336s-84.2,31.043-84.2,69.336a57.8,57.8,0,0,0,.971,10.553" transform="translate(16.107 15.534)" fill="#fcd25b"/>
        <path id="パス_103" data-name="パス 103" d="M201.609,114.252a1.372,1.372,0,0,1-.256-.024,1.392,1.392,0,0,1-1.116-1.624,56.618,56.618,0,0,0,.947-10.3c0-37.465-37.148-67.945-82.81-67.945s-82.81,30.48-82.81,67.945a56.534,56.534,0,0,0,.946,10.3,1.393,1.393,0,0,1-2.74.51,59.355,59.355,0,0,1-.993-10.808c0-39,38.4-70.73,85.6-70.73s85.6,31.73,85.6,70.73a59.452,59.452,0,0,1-.993,10.808,1.394,1.394,0,0,1-1.368,1.138" transform="translate(15.657 15.083)"/>
        <path id="パス_104" data-name="パス 104" d="M98.3,35.94a6.261,6.261,0,0,0-6.261-6.261H64.394a6.242,6.242,0,0,0-5.277,9.606H56.739a6.918,6.918,0,0,0,0,13.837H87.293a6.892,6.892,0,0,0,5.558-11A6.239,6.239,0,0,0,98.3,35.94" transform="translate(23.798 14.177)" fill="#ffaeab"/>
        <path id="パス_105" data-name="パス 105" d="M87.744,54.966H57.19a8.311,8.311,0,1,1,0-16.622h.259a7.576,7.576,0,0,1-.259-1.953,7.661,7.661,0,0,1,7.654-7.653H92.491a7.636,7.636,0,0,1,2.905,14.7,8.136,8.136,0,0,1,.659,3.212,8.321,8.321,0,0,1-8.312,8.312M57.19,41.129a5.526,5.526,0,0,0,0,11.051H87.744a5.533,5.533,0,0,0,5.526-5.526A5.467,5.467,0,0,0,92.181,43.4l-1.4-1.9,2.341-.306a4.853,4.853,0,0,0-.629-9.667H64.844a4.849,4.849,0,0,0-4.1,7.468L62.1,41.129Z" transform="translate(23.347 13.727)"/>
        <path id="パス_106" data-name="パス 106" d="M140.8,39.285h-2.378a6.241,6.241,0,0,0-5.275-9.6H105.5a6.245,6.245,0,0,0-.811,12.439,6.891,6.891,0,0,0,5.557,11H140.8a6.918,6.918,0,0,0,0-13.837" transform="translate(47.405 14.177)" fill="#5cffff"/>
        <path id="パス_107" data-name="パス 107" d="M141.255,54.966H110.7a8.322,8.322,0,0,1-8.312-8.312,8.13,8.13,0,0,1,.659-3.212,7.636,7.636,0,0,1,2.907-14.7H133.6a7.661,7.661,0,0,1,7.653,7.653A7.512,7.512,0,0,1,141,38.343h.26a8.311,8.311,0,1,1,0,16.622m-35.3-23.443a4.852,4.852,0,0,0-.631,9.665l2.341.307-1.4,1.9a5.475,5.475,0,0,0-1.088,3.258,5.531,5.531,0,0,0,5.525,5.525h30.554a5.525,5.525,0,0,0,0-11.05h-4.915l1.361-2.14a4.849,4.849,0,0,0-4.1-7.467Z" transform="translate(46.955 13.727)"/>
        <path id="パス_108" data-name="パス 108" d="M91.39,63.527c0,.387-.006.758-.031,1.139s.337.81.285,1.188-.049.791-.127,1.164-.294.736-.4,1.1-.479.658-.607,1.018-.371.666-.525,1.018-.231.729-.406,1.068-.194.77-.395,1.1-.711.442-.932.755-.074.9-.316,1.2-.8.318-1.062.6-.263.817-.544,1.08-.8.247-1.1.489-.315.857-.628,1.079-.637.463-.965.663-.9-.024-1.24.154-.551.619-.9.773-.789.093-1.151.222-.627.579-1,.684-.8,0-1.178.077-.726.369-1.108.421-.814-.426-1.2-.4-.749.525-1.136.525-.752-.544-1.133-.57-.758,0-1.136-.047-.794.109-1.167.033-.819.066-1.187-.037-.587-.7-.947-.827-.764-.129-1.116-.281-.8-.112-1.139-.288-.578-.547-.9-.746-.788-.207-1.1-.429-.439-.695-.737-.937-.482-.6-.762-.857-.693-.378-.955-.659-.563-.525-.807-.823-.22-.783-.442-1.1-.7-.443-.906-.771-.352-.683-.528-1.024-.395-.663-.548-1.017-.006-.813-.136-1.176-.371-.671-.474-1.043-.257-.72-.335-1.1.115-.783.062-1.164-.307-.726-.332-1.111-.161-.758-.161-1.145.334-.752.361-1.132-.015-.76.037-1.138-.112-.794-.035-1.167.068-.782.171-1.15.115-.783.244-1.144.344-.706.5-1.057.35-.7.526-1.037.378-.678.578-1.006.563-.551.785-.864.173-.844.415-1.141.882-.254,1.145-.533.346-.733.625-.994.771-.275,1.068-.517.452-.658.767-.879.494-.659.822-.859.634-.477.975-.655.8-.136,1.154-.29.674-.409,1.036-.539.823.046,1.194-.059.721-.263,1.1-.341.737-.239,1.12-.291.767-.075,1.154-.1.768.021,1.156.021.751.328,1.132.355.774-.137,1.153-.086.832-.263,1.207-.185.782.132,1.15.235.715.347,1.076.476.659.445,1.011.6.68.358,1.021.533.789.174,1.117.374.395.794.708,1.015.694.332.992.575.737.324,1.018.585.591.507.853.788.284.771.526,1.068.557.532.779.847.307.7.508,1.034.839.411,1.017.754.3.728.454,1.082.027.822.155,1.185.325.7.429,1.073.071.771.149,1.15-.035.771.016,1.154.315.728.341,1.114-.146.764-.146,1.151" transform="translate(27.625 22.271)" fill="#fff"/>
        <path id="パス_109" data-name="パス 109" d="M28.059,94.338h2.268v11.891a6.1,6.1,0,1,0,12.2,0V94.338h2.268v11.953a8.367,8.367,0,0,1-16.735-.062Z" transform="translate(13.403 45.062)"/>
        <path id="パス_110" data-name="パス 110" d="M71.077,113.325H68.808v-8.183a6.1,6.1,0,1,0-12.2,0v8.183H54.342V105.08a8.367,8.367,0,0,1,16.735.062Z" transform="translate(25.957 46.211)"/>
        <rect id="長方形_18" data-name="長方形 18" width="2.268" height="16.429" transform="translate(119.138 143.107)"/>
        <path id="パス_111" data-name="パス 111" d="M111.526,106.224h2.3a8.411,8.411,0,0,1-10.917,6.865,8.216,8.216,0,0,1-5.393-5.4,8.4,8.4,0,1,1,16.31-3.736h-2.3a6.129,6.129,0,1,0,0,2.268" transform="translate(46.392 46.202)"/>
        <path id="パス_112" data-name="パス 112" d="M131.752,96.7v2.268a6.143,6.143,0,0,0-6.1,6.129v8.247h-2.267V105.1a8.4,8.4,0,0,1,8.367-8.4" transform="translate(58.937 46.191)"/>
        <path id="パス_113" data-name="パス 113" d="M160.771,113.334H158.5V110.85a8.389,8.389,0,1,1,2.268-5.761Zm-2.268-8.245a6.115,6.115,0,1,0-6.1,6.129,6.1,6.1,0,0,0,6.1-6.129" transform="translate(68.787 46.202)"/>
        <path id="パス_114" data-name="パス 114" d="M73.241,121.168a.6.6,0,0,1-.167.42.617.617,0,0,1-.431.2c-.353.019-.817.032-1.393.049s-1.215.028-1.915.041-1.419.024-2.151.035-1.441.013-2.117.013q-.641,0-1.206-.009c-.375,0-.717-.01-1.023-.018a.652.652,0,0,1-.44-.2.619.619,0,0,1-.173-.446.6.6,0,0,1,.2-.46.68.68,0,0,1,.465-.18c.251.009.544.015.878.015h1.073q.946,0,2.02-.009c.715-.006,1.416-.01,2.1-.022a.123.123,0,0,0,.126-.111c.037-.332.077-.7.118-1.086s.078-.767.111-1.133.049-.672.049-.915a1.288,1.288,0,0,0-.1-.576c-.071-.134-.239-.2-.508-.2h-.1a.687.687,0,0,0-.126.015c-.186.018-.48.037-.884.062s-.854.041-1.345.055-.962.021-1.408.021h-.381c-.126,0-.245,0-.356-.013a.591.591,0,0,1-.431-.2.609.609,0,0,1-.168-.43.623.623,0,0,1,.21-.476.655.655,0,0,1,.488-.18c.14.009.285.013.439.013h.467q.612,0,1.253-.021t1.17-.055c.353-.025.627-.041.822-.049a1.252,1.252,0,0,0,.146-.009c.052,0,.095-.006.133-.006a1.729,1.729,0,0,1,1.949,1.965q0,.388-.062,1.2c-.043.538-.1,1.194-.188,1.964v.027c0,.077.041.112.124.112l1.157-.027c.352-.009.65-.019.891-.028a.642.642,0,0,1,.683.653" transform="translate(29.722 55.077)"/>
        <path id="パス_115" data-name="パス 115" d="M79.631,122.516a.581.581,0,0,1-.39-.217.679.679,0,0,1-.154-.439.569.569,0,0,1,.223-.46.665.665,0,0,1,.5-.152c.306.035.674.062,1.107.075s.894.022,1.386.022c.547,0,1.119-.007,1.713-.022s1.176-.03,1.748-.049,1.105-.037,1.6-.056.926-.031,1.289-.041a.689.689,0,0,1,.683.683.591.591,0,0,1-.188.446.635.635,0,0,1-.452.18q-2.2-.013-3.935.056c-1.157.047-2.181.068-3.072.068-.39,0-.757,0-1.1-.019s-.663-.04-.96-.075m1.17-5.977a.609.609,0,0,1-.544-.6.626.626,0,0,1,.21-.473.58.58,0,0,1,.473-.17c.473.031.993.044,1.56.044s1.127-.01,1.713-.027l1.679-.058q.8-.029,1.414-.028a.583.583,0,0,1,.437.18.613.613,0,0,1,.174.446.574.574,0,0,1-.188.44.7.7,0,0,1-.437.188c-.4,0-.869.009-1.408.028s-1.1.037-1.7.053-1.169.031-1.727.031c-.306,0-.6-.006-.878-.015s-.538-.024-.779-.043" transform="translate(37.777 55.041)"/>
        <path id="パス_116" data-name="パス 116" d="M100.91,115.252a.164.164,0,0,0-.013.071c0,.055.037.081.111.081h1.673a1.946,1.946,0,0,1,1.518.5,1.776,1.776,0,0,1,.446,1.224,3.57,3.57,0,0,1-.349,1.478,11.889,11.889,0,0,1-2.313,3.419,12.255,12.255,0,0,1-3.455,2.446.693.693,0,0,1-.612-.035.531.531,0,0,1-.223-.272.55.55,0,0,1-.056-.25.615.615,0,0,1,.377-.6,11.032,11.032,0,0,0,2.508-1.611,9.737,9.737,0,0,0,1.63-1.809,9.876,9.876,0,0,0,.975-1.791,2.891,2.891,0,0,0,.25-.947.436.436,0,0,0-.18-.4,1,1,0,0,0-.545-.12h-2.422a.194.194,0,0,0-.154.084,18.735,18.735,0,0,1-1.317,1.893,11.53,11.53,0,0,1-1.414,1.518.556.556,0,0,1-.39.139.662.662,0,0,1-.516-.236.629.629,0,0,1-.139-.389.662.662,0,0,1,.236-.514,10.821,10.821,0,0,0,1.178-1.235,16.352,16.352,0,0,0,1.051-1.433c.325-.5.613-.986.864-1.464a11.515,11.515,0,0,0,.6-1.314.61.61,0,0,1,.229-.294.6.6,0,0,1,.341-.111.473.473,0,0,1,.111.013.594.594,0,0,1,.111.043.674.674,0,0,1,.309.251.649.649,0,0,1,.111.362.635.635,0,0,1-.043.223c-.065.176-.139.353-.222.528s-.171.359-.266.544" transform="translate(45.999 54.114)"/>
        <path id="パス_117" data-name="パス 117" d="M115.293,124.061a.5.5,0,0,1-.126.013.613.613,0,0,1-.426-.174.571.571,0,0,1-.188-.437.637.637,0,0,1,.154-.42.649.649,0,0,1,.375-.223,7.66,7.66,0,0,0,3-1.314,6.3,6.3,0,0,0,1.942-2.361c.1-.223.185-.411.245-.566a1.055,1.055,0,0,0,.09-.368.253.253,0,0,0-.208-.266,2.989,2.989,0,0,0-.669-.055c-.362,0-.844.028-1.448.084s-1.265.112-1.984.167-1.442.084-2.166.084q-.14,0-.279-.009c-.093,0-.189-.006-.291-.006a.641.641,0,0,1-.44-.2.62.62,0,0,1-.174-.446.592.592,0,0,1,.2-.46.579.579,0,0,1,.465-.152c.186.007.369.016.55.021s.361.006.536.006a28.521,28.521,0,0,0,2.933-.139q1.343-.137,2.277-.139a2.411,2.411,0,0,1,1.54.368,1.212,1.212,0,0,1,.424.955,2.707,2.707,0,0,1-.139.816,7.028,7.028,0,0,1-.364.9,7.341,7.341,0,0,1-2.29,2.778,9.155,9.155,0,0,1-3.545,1.54m4.777-8.8h-5.906a.577.577,0,0,1-.437-.18.6.6,0,0,1-.174-.431.578.578,0,0,1,.18-.439.6.6,0,0,1,.431-.173h5.906a.585.585,0,0,1,.439.179.6.6,0,0,1,.174.433.58.58,0,0,1-.18.437.6.6,0,0,1-.433.174" transform="translate(53.833 54.47)"/>
        <path id="パス_118" data-name="パス 118" d="M80.382,72.156H63.3a6.175,6.175,0,0,0-4.891,9.98h-3.3a6.2,6.2,0,0,0,0,12.408H77.321a6.173,6.173,0,0,0,4.69-10.224,6.189,6.189,0,0,0-1.628-12.164" transform="translate(23.363 34.466)" fill="blue"/>
        <path id="パス_119" data-name="パス 119" d="M77.771,96.385H55.564a7.6,7.6,0,0,1,0-15.192h.983a7.415,7.415,0,0,1-.392-2.383,7.6,7.6,0,0,1,7.6-7.6H80.832a7.58,7.58,0,0,1,3.719,14.194,7.465,7.465,0,0,1,.816,3.381,7.6,7.6,0,0,1-7.6,7.6M55.564,83.979a4.811,4.811,0,0,0,0,9.621H77.771a4.817,4.817,0,0,0,4.811-4.811,4.765,4.765,0,0,0-1.176-3.112l-1.433-1.67,2.122-.581A4.8,4.8,0,0,0,80.832,74H63.75a4.816,4.816,0,0,0-4.81,4.811,4.746,4.746,0,0,0,1.02,2.924L61.7,83.979Z" transform="translate(22.913 34.016)"/>
        <path id="パス_120" data-name="パス 120" d="M138.473,82.135h-3.3a6.173,6.173,0,0,0-4.891-9.98H113.205a6.19,6.19,0,0,0-1.628,12.166,6.174,6.174,0,0,0,4.69,10.222h22.206a6.2,6.2,0,0,0,0-12.408" transform="translate(51.111 34.466)" fill="#ff0"/>
        <path id="パス_121" data-name="パス 121" d="M138.924,96.385H116.717a7.6,7.6,0,0,1-7.6-7.6,7.475,7.475,0,0,1,.817-3.381,7.58,7.58,0,0,1,3.718-14.194h17.082a7.6,7.6,0,0,1,7.6,7.6,7.428,7.428,0,0,1-.392,2.383h.981a7.6,7.6,0,1,1,0,15.192M113.656,74a4.8,4.8,0,0,0-1.26,9.427l2.122.581-1.433,1.67a4.764,4.764,0,0,0-1.178,3.112,4.817,4.817,0,0,0,4.811,4.811h22.206a4.811,4.811,0,1,0,0-9.621h-6.132l1.736-2.245a4.754,4.754,0,0,0,1.021-2.924A4.817,4.817,0,0,0,130.738,74Z" transform="translate(50.661 34.016)"/>
        <path id="パス_122" data-name="パス 122" d="M83.2,61.775a9.939,9.939,0,0,1-.066,1.192,10.771,10.771,0,0,1,.018,1.232,10.118,10.118,0,0,1-.324,1.184,10.263,10.263,0,0,1-.57,1.086,10.4,10.4,0,0,1-.765.95,9.492,9.492,0,0,1-.791.9,9.726,9.726,0,0,1-.807.884,9.942,9.942,0,0,1-.876.835,10.759,10.759,0,0,1-1.136.436c-.355.186-.6.606-.981.749a10.566,10.566,0,0,1-1.221.129,10.142,10.142,0,0,1-1.145.437,10.943,10.943,0,0,1-1.216-.137c-.409,0-.83.259-1.226.211a10.268,10.268,0,0,1-1.212-.207c-.395-.1-.7-.486-1.074-.628a10.1,10.1,0,0,1-1.173-.33,9.878,9.878,0,0,1-.968-.736,10.71,10.71,0,0,1-1.083-.587,10.206,10.206,0,0,1-.776-.947,10.235,10.235,0,0,1-.86-.876c-.228-.33-.174-.835-.363-1.192s-.615-.6-.76-.984.04-.85-.058-1.244a9.758,9.758,0,0,1-.253-1.164,10.029,10.029,0,0,1-.207-1.191,10.465,10.465,0,0,1-.071-1.225c.049-.4.414-.748.51-1.136a9.53,9.53,0,0,1,.272-1.169,10.286,10.286,0,0,1,.372-1.158,10.319,10.319,0,0,1,.731-.972,10.16,10.16,0,0,1,.634-1.043,10.479,10.479,0,0,1,.981-.728,9.544,9.544,0,0,1,.992-.669,6.27,6.27,0,0,1,2.042-1.257,10.1,10.1,0,0,1,1.2-.179,9.749,9.749,0,0,1,1.144-.409,17.07,17.07,0,0,1,2.417-.009,9.853,9.853,0,0,1,1.15.393,7.685,7.685,0,0,1,2.277.736,9.706,9.706,0,0,1,.941.751,9.812,9.812,0,0,1,1.02.634,10.13,10.13,0,0,1,.9.8,10.373,10.373,0,0,1,.59,1.061,9.678,9.678,0,0,1,.655.993,9.7,9.7,0,0,1,.619,1.037,10.324,10.324,0,0,1,.7,2.327,11.355,11.355,0,0,1-.186,1.223" transform="translate(30.198 24.733)" fill="#fff"/>
        <path id="パス_123" data-name="パス 123" d="M73.17,73.56a8.36,8.36,0,0,1-1.925-.171,6.744,6.744,0,0,1-1.791-.757c-.177-.1-.353-.2-.535-.285-.2-.095-.411-.173-.619-.253a5.836,5.836,0,0,1-1.68-.864,6.418,6.418,0,0,1-1.253-1.45c-.124-.176-.245-.353-.378-.519s-.266-.315-.4-.468a6.646,6.646,0,0,1-1.141-1.569,6.959,6.959,0,0,1-.529-1.871c-.035-.2-.071-.4-.115-.6s-.118-.42-.186-.628a5.908,5.908,0,0,1-.378-1.881,11.721,11.721,0,0,1,.275-2.574,5.846,5.846,0,0,1,.785-1.748c.114-.191.229-.38.322-.576l.235-.514a7.563,7.563,0,0,1,.971-1.739,9.151,9.151,0,0,1,1.606-1.487l.288-.229c.154-.123.3-.254.455-.387a7.2,7.2,0,0,1,1.6-1.151,9.969,9.969,0,0,1,2.182-.672l.674-.155a8.315,8.315,0,0,1,4.028.064,6.1,6.1,0,0,0,.634.194c.223.052.449.081.677.111a5.831,5.831,0,0,1,1.831.465,5.459,5.459,0,0,1,1.5,1.164,6.546,6.546,0,0,0,.492.461A11.293,11.293,0,0,1,82.6,55.217l.257.316a8.854,8.854,0,0,1,1.21,1.761l.194.393a8.754,8.754,0,0,1,.791,1.986,5.968,5.968,0,0,1,.053,1.884c-.019.228-.04.458-.04.686a11.249,11.249,0,0,1-.275,2.511c-.05.213-.084.429-.118.641a6.465,6.465,0,0,1-.5,1.85,11.339,11.339,0,0,1-1.342,2.209,11.651,11.651,0,0,1-1.874,1.772,8.328,8.328,0,0,1-1.8,1.015l-.451.208a11.16,11.16,0,0,1-2.41.773,10.99,10.99,0,0,1-2.506.335H73.17m.618-20.092a6.863,6.863,0,0,0-1.509.251l-.717.166a7.546,7.546,0,0,0-1.578.464,4.85,4.85,0,0,0-.972.734c-.185.161-.369.322-.557.471l-.31.245A6.964,6.964,0,0,0,67,56.831a5.327,5.327,0,0,0-.6,1.124l-.275.6c-.127.264-.282.529-.44.792a3.764,3.764,0,0,0-.46.938,8.942,8.942,0,0,0-.205,1.956,3.728,3.728,0,0,0,.241,1.017c.095.293.188.585.254.875.055.239.1.485.142.727a4.742,4.742,0,0,0,.3,1.151,4.405,4.405,0,0,0,.7.918c.174.194.347.389.51.591s.33.44.488.668a4.17,4.17,0,0,0,.7.861,3.727,3.727,0,0,0,.924.436c.287.109.575.219.85.352.226.108.448.231.669.353a4.438,4.438,0,0,0,1.062.482,7.778,7.778,0,0,0,1.609.1h.316a8.564,8.564,0,0,0,1.888-.265,8.734,8.734,0,0,0,1.818-.564L78,69.706a5.993,5.993,0,0,0,1.212-.658,9.183,9.183,0,0,0,1.436-1.333,8.922,8.922,0,0,0,1.009-1.682,4.279,4.279,0,0,0,.262-1.082c.043-.273.09-.548.151-.816a8.513,8.513,0,0,0,.207-1.893c0-.306.025-.613.05-.919a4.031,4.031,0,0,0,.007-1.033,6.566,6.566,0,0,0-.566-1.355l-.214-.431a6.406,6.406,0,0,0-.853-1.2l-.279-.346a8.388,8.388,0,0,0-1.37-1.311,9.263,9.263,0,0,1-.72-.665,3.422,3.422,0,0,0-.743-.629,3.738,3.738,0,0,0-.989-.211c-.312-.043-.624-.086-.926-.155a8.932,8.932,0,0,1-.916-.273,3.454,3.454,0,0,0-.971-.244" transform="translate(29.727 24.263)"/>
        <path id="パス_124" data-name="パス 124" d="M133.917,63.527c0,.387-.006.758-.031,1.139s.337.81.285,1.188-.049.791-.127,1.164-.294.736-.4,1.1-.479.658-.607,1.018-.371.666-.525,1.018-.231.729-.406,1.068-.2.77-.395,1.1-.711.442-.932.755-.074.9-.316,1.2-.8.318-1.062.6-.263.817-.544,1.08-.8.247-1.1.489-.315.857-.628,1.079-.637.463-.965.663-.9-.024-1.24.154-.551.619-.9.773-.789.093-1.151.222-.627.579-1,.684-.8,0-1.178.077-.726.369-1.108.421-.814-.426-1.2-.4-.749.525-1.136.525-.752-.544-1.133-.57-.758,0-1.136-.047-.794.109-1.167.033-.819.066-1.187-.037-.587-.7-.947-.827-.764-.129-1.116-.281-.8-.112-1.139-.288-.578-.547-.9-.746-.788-.207-1.1-.429-.439-.695-.737-.937-.482-.6-.762-.857-.693-.378-.955-.659-.563-.525-.807-.823-.22-.783-.442-1.1-.7-.443-.906-.771-.352-.683-.529-1.024-.393-.663-.547-1.017-.006-.813-.136-1.176-.371-.671-.474-1.043-.257-.72-.335-1.1.115-.783.062-1.164-.307-.726-.332-1.111-.161-.758-.161-1.145.334-.752.361-1.132-.015-.76.037-1.138-.112-.794-.035-1.167.068-.782.171-1.15.115-.783.244-1.144.344-.706.5-1.057.35-.7.526-1.037.378-.678.578-1.006.563-.551.785-.864.173-.844.415-1.141.882-.254,1.145-.533.346-.733.625-.994.771-.275,1.068-.517.452-.658.767-.879.494-.659.822-.859.634-.477.975-.655.8-.136,1.154-.29.674-.409,1.036-.539.823.046,1.194-.059.721-.263,1.1-.341.737-.239,1.12-.291.767-.075,1.154-.1.768.021,1.156.021.751.328,1.132.355.774-.137,1.153-.086.832-.263,1.207-.185.782.132,1.15.235.715.347,1.076.476.659.445,1.011.6.68.358,1.021.533.789.174,1.117.374.395.794.708,1.015.694.332.992.575.737.324,1.018.585.591.507.853.788.284.771.526,1.068.557.532.779.847.307.7.508,1.034.839.411,1.017.754.3.728.454,1.082.027.822.155,1.185.325.7.429,1.073.071.771.149,1.15-.035.771.016,1.154.315.728.341,1.114-.146.764-.146,1.151" transform="translate(47.939 22.271)" fill="#fff"/>
        <path id="パス_125" data-name="パス 125" d="M123.7,61.767c0,.408-.3.8-.349,1.2a8.8,8.8,0,0,1-1.092,3.4,9.912,9.912,0,0,1-.615,1.023c-.231.332-.291.8-.559,1.1a10.447,10.447,0,0,1-.836.9,10.5,10.5,0,0,1-1.008.7,10.814,10.814,0,0,1-1.117.489,66.663,66.663,0,0,1-2.24.836,10.1,10.1,0,0,1-1.166.33,10.877,10.877,0,0,1-1.21-.145c-.408,0-.823.257-1.218.21a10.135,10.135,0,0,1-1.145-.454,10.475,10.475,0,0,1-1.216-.145,9.836,9.836,0,0,1-1.014-.686c-.358-.188-.851-.155-1.182-.384a10.615,10.615,0,0,1-.974-.746c-.3-.267-.39-.754-.658-1.055a10.148,10.148,0,0,1-.888-.836,10.238,10.238,0,0,1-.516-1.1,10.671,10.671,0,0,1-.689-1.023,10.188,10.188,0,0,1-.247-1.2,9.983,9.983,0,0,1-.352-1.176c-.047-.4.235-.819.235-1.226s-.263-.829-.216-1.223.43-.745.526-1.133a9.889,9.889,0,0,1,.316-1.148,10.251,10.251,0,0,1,.369-1.151A10.455,10.455,0,0,1,105.148,56c.229-.332.712-.465.98-.767a10,10,0,0,1,.783-.907,10.283,10.283,0,0,1,.867-.854,10.384,10.384,0,0,1,1.1-.522,9.9,9.9,0,0,1,1.045-.631,10.281,10.281,0,0,1,1.207-.189,9.511,9.511,0,0,1,1.19-.13,9.667,9.667,0,0,1,1.188-.2,9.915,9.915,0,0,1,1.207.034,9.44,9.44,0,0,1,1.145.4,10.269,10.269,0,0,1,1.2.167,16.768,16.768,0,0,1,2.143,1.119,10.239,10.239,0,0,1,.832.882,7.695,7.695,0,0,1,1.674,1.708,9.95,9.95,0,0,1,.488,1.1,9.822,9.822,0,0,1,.609,1.034,10.046,10.046,0,0,1,.427,1.127,10.339,10.339,0,0,1,.027,1.215c.049.395.436.777.436,1.185" transform="translate(49.392 24.741)" fill="#fff"/>
        <path id="パス_126" data-name="パス 126" d="M113.956,73.782a11.471,11.471,0,0,1-2.558-.362,8.2,8.2,0,0,1-1.918-.773l-.44-.22a11.033,11.033,0,0,1-2.106-1.407,11.238,11.238,0,0,1-1.823-1.745l-.194-.241a9.532,9.532,0,0,1-1.259-1.854,6.752,6.752,0,0,1-.52-1.854c-.035-.2-.069-.408-.115-.61s-.118-.418-.186-.625a5.851,5.851,0,0,1-.375-1.871,6.4,6.4,0,0,1,.355-1.9c.061-.2.123-.4.168-.6s.078-.411.114-.618a6.727,6.727,0,0,1,.516-1.862,6.985,6.985,0,0,1,1.141-1.586c.134-.152.269-.3.393-.458.137-.173.259-.362.384-.551a5.9,5.9,0,0,1,1.223-1.456,11.717,11.717,0,0,1,2.18-1.388,5.908,5.908,0,0,1,1.837-.473c.226-.031.454-.061.672-.109l.535-.136a9.466,9.466,0,0,1,4.133,0l.966.2a7.091,7.091,0,0,1,1.891.536,9.777,9.777,0,0,1,1.874,1.278l.55.436A9.282,9.282,0,0,1,123,55.01a5.608,5.608,0,0,1,.847,1.686,6.658,6.658,0,0,0,.254.637,6.407,6.407,0,0,0,.327.581,5.834,5.834,0,0,1,.788,1.736,11.6,11.6,0,0,1,.327,2.57,6,6,0,0,1-.377,1.891c-.066.21-.136.418-.183.625a9.982,9.982,0,0,1-2.187,4.533,11.962,11.962,0,0,1-3.942,3.113c-.188.092-.371.2-.556.3a6.468,6.468,0,0,1-1.778.768,11.424,11.424,0,0,1-2.561.33m0-20.245a5.243,5.243,0,0,0-1.262.235l-.632.16c-.3.066-.6.111-.907.154a3.825,3.825,0,0,0-1.008.22,8.957,8.957,0,0,0-1.655,1.058,3.754,3.754,0,0,0-.635.813c-.17.259-.343.517-.533.755-.152.192-.315.377-.479.562a4.746,4.746,0,0,0-.721.955,4.489,4.489,0,0,0-.276,1.114c-.044.257-.089.516-.146.77s-.137.525-.216.788a4.179,4.179,0,0,0-.236,1.1,3.676,3.676,0,0,0,.238,1.008c.095.29.186.579.253.87.056.25.1.5.145.752a4.484,4.484,0,0,0,.282,1.12,7.389,7.389,0,0,0,.918,1.314l.2.253a8.652,8.652,0,0,0,1.388,1.308,8.412,8.412,0,0,0,1.575,1.073l.5.251a5.925,5.925,0,0,0,1.268.536,7.649,7.649,0,0,0,3.883.031,4.283,4.283,0,0,0,1.021-.476c.238-.134.477-.269.72-.386a8,8,0,0,0,4.622-5.754c.065-.287.155-.573.248-.861a3.881,3.881,0,0,0,.242-1.039,8.918,8.918,0,0,0-.257-1.951,3.684,3.684,0,0,0-.455-.916c-.163-.267-.322-.535-.454-.808s-.251-.6-.364-.9a3.491,3.491,0,0,0-.4-.893,7.038,7.038,0,0,0-1.139-1.021l-.591-.468a7.468,7.468,0,0,0-1.331-.935,4.949,4.949,0,0,0-1.176-.3c-.241-.044-.483-.089-.721-.143l-.393-.092a6.875,6.875,0,0,0-1.512-.248" transform="translate(48.942 24.289)"/>
        <path id="パス_127" data-name="パス 127" d="M117.544,83.774a19.066,19.066,0,1,1,17.566-26.489,2.09,2.09,0,0,1-3.849,1.627,14.888,14.888,0,1,0,0,11.589,2.09,2.09,0,0,1,3.849,1.627,19.036,19.036,0,0,1-17.566,11.645" transform="translate(47.039 21.801)"/>
        <path id="パス_128" data-name="パス 128" d="M75.434,82.785c-.148,0-.3,0-.443-.007a19.131,19.131,0,0,1-16.349-10.31C54.829,65,56.486,56.035,57.7,49.489a2.089,2.089,0,0,1,4.108.76c-1.427,7.722-2.369,14.585.559,20.321a14.681,14.681,0,0,0,25.834.647,20.123,20.123,0,0,0,2.323-9.979,65.672,65.672,0,0,0-1.237-10.991,2.089,2.089,0,0,1,4.12-.7,68.765,68.765,0,0,1,1.3,11.7,24.23,24.23,0,0,1-2.87,12.034,19.3,19.3,0,0,1-16.395,9.5" transform="translate(26.881 22.822)"/>
        <path id="パス_129" data-name="パス 129" d="M111.206,70a5.509,5.509,0,0,1-3.883-1.744A8.864,8.864,0,0,1,105.26,64.5a11.307,11.307,0,0,1-.33-1.448,4.765,4.765,0,0,1-.344-1.481,4.668,4.668,0,0,1,.08-1.2,5.108,5.108,0,0,1,.145-3.957,4.61,4.61,0,0,1,1.054-1.272,7.18,7.18,0,0,1,.6-.48,5.73,5.73,0,0,1,2.779-1.529,3.776,3.776,0,0,1,1.792-.13,9.475,9.475,0,0,1,5.088.712,7.478,7.478,0,0,1,3.251,2.861,7.4,7.4,0,0,1,1.732,2.219,6.043,6.043,0,0,1,.267,4.891,6.768,6.768,0,0,1-.653,1.207,10.1,10.1,0,0,1-3.205,3.05,5.588,5.588,0,0,1-1,.761,5.734,5.734,0,0,1-3.146.77,5.147,5.147,0,0,1-1.971.511c-.065,0-.13,0-.2,0m.875-2.132a5.177,5.177,0,0,0,1.249.05,6.011,6.011,0,0,0,.924-.737c.108-.1.213-.213.313-.327a6.439,6.439,0,0,1-1.577.214c-.205.035-.412.062-.619.083a7.812,7.812,0,0,1-1.877-.049c.095.064.188.126.284.185a5.427,5.427,0,0,0,1.3.581m4.86-2.064a8.911,8.911,0,0,1-.8,1.32c.173-.084.343-.176.51-.272a5,5,0,0,0,1.045-1.6,8.08,8.08,0,0,1-.755.556m-4.486-.161a3.835,3.835,0,0,0,.414.031,7.589,7.589,0,0,0,3.252-1.515,8.5,8.5,0,0,0,.33-1.314,5.443,5.443,0,0,1-2.162,2.271,4.789,4.789,0,0,1-1.834.526m-3.911-.631c.059.033.118.064.179.093-.123-.124-.242-.257-.359-.393.058.1.118.2.18.3M119.5,63.057a7.76,7.76,0,0,1-.117,1.331c.059-.084.12-.17.176-.257a5.514,5.514,0,0,0,.526-.962,4.41,4.41,0,0,0,.186-2.57,6.879,6.879,0,0,1-.771,2.457m-9.55.726c.126.061.257.118.387.168-.041-.038-.081-.08-.121-.12q-.135-.022-.266-.049m8.006-2.214c0,.124-.007.245-.013.368.019-.047.038-.093.055-.142-.012-.075-.027-.151-.041-.226m-4.548-2.041-.072,0a1.089,1.089,0,0,0-.956.675.742.742,0,0,0,.353.861,1.1,1.1,0,0,0,.366.05,1.6,1.6,0,0,0,.829-.27,1.073,1.073,0,0,1,.25-.873.632.632,0,0,0-.126-.2.894.894,0,0,0-.644-.242m-4.022-1.7c-.019.075-.035.151-.052.232a5.915,5.915,0,0,0-.108,1.838,6.556,6.556,0,0,1,.9-2.382,4.246,4.246,0,0,0-.736.312m2.642-.5a5.239,5.239,0,0,0-.523.627,5.379,5.379,0,0,0-.6,1.083,3.687,3.687,0,0,1,.715-.564,3.079,3.079,0,0,1,2.366-.44,3.69,3.69,0,0,0-.582-.328,4.439,4.439,0,0,0-1.377-.377m-4.619-1.617a2.526,2.526,0,0,0-.306.5,8.477,8.477,0,0,1,3.334-1.7c-.126.025-.254.053-.381.084a8.119,8.119,0,0,0-2.646,1.111M111.9,54.34a6.376,6.376,0,0,1,.869.061c.192-.01.383-.018.575-.018a8.743,8.743,0,0,0-1.553-.043Z" transform="translate(49.838 25.284)"/>
        <path id="パス_130" data-name="パス 130" d="M71.74,70a5.51,5.51,0,0,1-3.883-1.744A8.864,8.864,0,0,1,65.794,64.5a11.375,11.375,0,0,1-.331-1.453,4.82,4.82,0,0,1-.343-1.476,4.679,4.679,0,0,1,.08-1.2,5.121,5.121,0,0,1,.146-3.957A4.637,4.637,0,0,1,66.4,55.149a7.05,7.05,0,0,1,.609-.483,5.729,5.729,0,0,1,2.775-1.526,3.781,3.781,0,0,1,1.794-.13,9.513,9.513,0,0,1,5.086.712,7.469,7.469,0,0,1,3.251,2.861A7.4,7.4,0,0,1,81.644,58.8a6.043,6.043,0,0,1,.267,4.891A6.853,6.853,0,0,1,81.26,64.9a10.1,10.1,0,0,1-3.205,3.051,5.608,5.608,0,0,1-1,.761,5.679,5.679,0,0,1-3.144.77,5.147,5.147,0,0,1-1.971.511c-.065,0-.13,0-.2,0m.875-2.132a5.176,5.176,0,0,0,1.249.05,6.015,6.015,0,0,0,.924-.737c.108-.1.213-.213.313-.327a6.372,6.372,0,0,1-1.575.213c-.205.037-.412.064-.619.084a8.137,8.137,0,0,1-1.878-.049c.093.064.188.126.284.185a5.486,5.486,0,0,0,1.3.581m4.86-2.064a8.909,8.909,0,0,1-.8,1.32c.173-.084.343-.174.51-.272a4.963,4.963,0,0,0,1.046-1.6,7.84,7.84,0,0,1-.757.556m-4.486-.161a3.838,3.838,0,0,0,.415.031,7.6,7.6,0,0,0,3.252-1.515,8.6,8.6,0,0,0,.33-1.315,5.45,5.45,0,0,1-2.163,2.273,4.782,4.782,0,0,1-1.834.526m-3.913-.631c.061.033.12.064.18.093-.123-.126-.244-.259-.361-.4.058.1.12.2.18.3m10.963-1.948a7.758,7.758,0,0,1-.118,1.331c.062-.086.121-.171.179-.26a5.506,5.506,0,0,0,.525-.962,4.416,4.416,0,0,0,.188-2.568,6.919,6.919,0,0,1-.773,2.459m-9.55.723c.127.061.257.118.389.168-.041-.038-.081-.078-.121-.12-.092-.015-.18-.031-.267-.049M78.5,61.573c0,.121-.009.242-.015.364.021-.046.038-.093.056-.14-.013-.074-.027-.149-.041-.223m-4.55-2.045c-.025,0-.049,0-.072,0a1.089,1.089,0,0,0-.956.675.744.744,0,0,0,.353.863,1.206,1.206,0,0,0,.366.049,1.6,1.6,0,0,0,.829-.27,1.069,1.069,0,0,1,.251-.873.662.662,0,0,0-.127-.2.894.894,0,0,0-.644-.242m-4.021-1.7c-.019.075-.035.152-.052.232a5.93,5.93,0,0,0-.109,1.84,6.532,6.532,0,0,1,.9-2.382,4.358,4.358,0,0,0-.736.31m2.641-.5a4.991,4.991,0,0,0-.522.625,5.308,5.308,0,0,0-.6,1.083,3.687,3.687,0,0,1,.714-.564,3.081,3.081,0,0,1,2.367-.44,3.773,3.773,0,0,0-.584-.328,4.385,4.385,0,0,0-1.377-.375M67.95,55.71a2.53,2.53,0,0,0-.307.5,8.036,8.036,0,0,1,1.426-.959,7.915,7.915,0,0,1,1.9-.737c-.124.025-.25.053-.375.083a8.129,8.129,0,0,0-2.644,1.11m4.483-1.37a6.382,6.382,0,0,1,.87.061c.192-.01.384-.018.576-.018a9.627,9.627,0,0,0-1.552-.043Z" transform="translate(30.988 25.284)"/>
        <path id="パス_131" data-name="パス 131" d="M103.29,107.315a2.577,2.577,0,0,1-1.828-.813,3.9,3.9,0,0,1-.91-1.64,4.562,4.562,0,0,1-.133-.576,2.268,2.268,0,0,1-.148-.663,2.311,2.311,0,0,1,.021-.473,2.4,2.4,0,0,1,.118-1.775,2.245,2.245,0,0,1,.5-.615,2.9,2.9,0,0,1,.235-.188,2.68,2.68,0,0,1,1.257-.69,1.957,1.957,0,0,1,.827-.071,4.168,4.168,0,0,1,2.157.322,3.345,3.345,0,0,1,1.422,1.229,3.268,3.268,0,0,1,.731.958,2.789,2.789,0,0,1,.12,2.262,3.233,3.233,0,0,1-.3.55,4.417,4.417,0,0,1-1.349,1.3,2.717,2.717,0,0,1-.434.324,2.686,2.686,0,0,1-1.358.361,2.433,2.433,0,0,1-.842.2h-.093" transform="translate(47.851 47.664)"/>
        <path id="パス_132" data-name="パス 132" d="M81.729,96.774a1.4,1.4,0,0,1-.993-.434,1.868,1.868,0,0,1-.446-.8,1.733,1.733,0,0,1-.055-.222,1.3,1.3,0,0,1-.066-.335,1.162,1.162,0,0,1,0-.176,1.257,1.257,0,0,1,.1-.9,1.222,1.222,0,0,1,.285-.352c.03-.025.058-.049.087-.071a1.446,1.446,0,0,1,.638-.346,1.261,1.261,0,0,1,.431-.044,1.934,1.934,0,0,1,.98.16,1.7,1.7,0,0,1,.692.579,1.649,1.649,0,0,1,.321.44,1.464,1.464,0,0,1,.058,1.2,1.7,1.7,0,0,1-.145.278,2.132,2.132,0,0,1-.612.6,1.439,1.439,0,0,1-.205.146,1.418,1.418,0,0,1-.635.192,1.323,1.323,0,0,1-.384.075h-.053" transform="translate(38.276 44.467)"/>
        <path id="パス_133" data-name="パス 133" d="M150.191,107.385a2.577,2.577,0,0,1-1.821-.81,3.879,3.879,0,0,1-.91-1.645,4.619,4.619,0,0,1-.136-.579,2.272,2.272,0,0,1-.145-.659,2.184,2.184,0,0,1,.019-.47,2.391,2.391,0,0,1,.12-1.778,2.2,2.2,0,0,1,.5-.615c.077-.066.155-.13.238-.189a2.664,2.664,0,0,1,1.256-.689,2.035,2.035,0,0,1,.833-.071,4.152,4.152,0,0,1,2.15.322,3.378,3.378,0,0,1,1.424,1.232,3.277,3.277,0,0,1,.728.953,2.79,2.79,0,0,1,.118,2.265,3.162,3.162,0,0,1-.293.544,4.391,4.391,0,0,1-1.352,1.3,2.632,2.632,0,0,1-.434.324,2.682,2.682,0,0,1-1.359.362,2.412,2.412,0,0,1-.844.2l-.1,0" transform="translate(70.256 47.698)"/>
        <path id="パス_134" data-name="パス 134" d="M91.155,21.465a1.393,1.393,0,0,1-1.393-1.393V1.392a1.393,1.393,0,0,1,2.787,0V20.071a1.393,1.393,0,0,1-1.393,1.393" transform="translate(42.876 0)"/>
        <path id="パス_135" data-name="パス 135" d="M91.155,22.069a1.393,1.393,0,0,1-1.393-1.393v-3.01a1.393,1.393,0,0,1,2.787,0v3.01a1.393,1.393,0,0,1-1.393,1.393" transform="translate(42.876 7.773)"/>
        <path id="パス_136" data-name="パス 136" d="M57.675,26.7a1.392,1.392,0,0,1-1.225-.728L47.109,8.746a1.392,1.392,0,0,1,2.448-1.327L58.9,24.639A1.394,1.394,0,0,1,57.675,26.7" transform="translate(22.422 3.195)"/>
        <path id="パス_137" data-name="パス 137" d="M57.979,27.254a1.392,1.392,0,0,1-1.225-.728L55.248,23.75A1.393,1.393,0,1,1,57.7,22.422L59.2,25.2a1.394,1.394,0,0,1-1.223,2.057" transform="translate(26.309 10.362)"/>
        <path id="パス_138" data-name="パス 138" d="M127.506,26.7a1.394,1.394,0,0,1-1.224-2.057l9.34-17.221a1.392,1.392,0,0,1,2.448,1.327l-9.34,17.222a1.391,1.391,0,0,1-1.225.728" transform="translate(60.24 3.195)"/>
        <path id="パス_139" data-name="パス 139" d="M124.67,27.254a1.394,1.394,0,0,1-1.224-2.057l1.506-2.775A1.393,1.393,0,1,1,127.4,23.75l-1.506,2.775a1.393,1.393,0,0,1-1.225.728" transform="translate(58.886 10.362)"/>
        <path id="パス_140" data-name="パス 140" d="M33.436,45.515a1.394,1.394,0,0,1-.823-.269L16.477,33.409a1.393,1.393,0,0,1,1.648-2.248L34.262,43a1.393,1.393,0,0,1-.826,2.516" transform="translate(7.599 14.756)"/>
        <path id="パス_141" data-name="パス 141" d="M33.959,45.9a1.394,1.394,0,0,1-.823-.269l-2.6-1.909a1.394,1.394,0,1,1,1.649-2.248l2.6,1.909a1.393,1.393,0,0,1-.826,2.516" transform="translate(14.314 19.682)"/>
        <path id="パス_142" data-name="パス 142" d="M153.483,45.516A1.393,1.393,0,0,1,152.657,43l16.136-11.838a1.393,1.393,0,1,1,1.648,2.248L154.306,45.247a1.394,1.394,0,0,1-.823.269" transform="translate(72.647 14.755)"/>
        <path id="パス_143" data-name="パス 143" d="M148.584,45.9a1.393,1.393,0,0,1-.826-2.516l2.6-1.909a1.394,1.394,0,1,1,1.649,2.248l-2.6,1.909a1.4,1.4,0,0,1-.823.269" transform="translate(70.307 19.681)"/>
        <path id="パス_144" data-name="パス 144" d="M20.971,76.053a1.375,1.375,0,0,1-.244-.022L1.151,72.579a1.392,1.392,0,0,1,.483-2.743l19.578,3.452a1.393,1.393,0,0,1-.241,2.765" transform="translate(0 33.348)"/>
        <path id="パス_145" data-name="パス 145" d="M21.607,76.165a1.371,1.371,0,0,1-.244-.022l-3.155-.556a1.392,1.392,0,0,1,.483-2.743l3.156.556a1.393,1.393,0,0,1-.241,2.765" transform="translate(8.148 34.784)"/>
        <path id="パス_146" data-name="パス 146" d="M167.668,76.053a1.393,1.393,0,0,1-.241-2.765L187,69.836a1.393,1.393,0,1,1,.485,2.743l-19.578,3.452a1.376,1.376,0,0,1-.244.022" transform="translate(79.424 33.348)"/>
        <path id="パス_147" data-name="パス 147" d="M161.725,76.165a1.393,1.393,0,0,1-.241-2.765l3.155-.556a1.393,1.393,0,1,1,.485,2.743l-3.155.556a1.373,1.373,0,0,1-.244.022" transform="translate(76.586 34.784)"/>
      </g>
    </g>
    <rect id="長方形_33" data-name="長方形 33" width="28" height="172" rx="14" transform="translate(285 317)" fill="#ff0"/>
    <g id="グループ_27" data-name="グループ 27" transform="translate(0 15.5)">
      <g id="グループ_24" data-name="グループ 24" transform="translate(289.807 118)">
        <g id="グループ_23" data-name="グループ 23" clip-path="url(#clip-path-2)">
          <path id="パス_170" data-name="パス 170" d="M2.595,10.628C2.42,7.033,4.363,4.4,5.123,3.041c.08-.121.181-.279.021-.24a8.278,8.278,0,0,1-1.5.177c-1.578.079-1.475-2.1.1-2.056a7.393,7.393,0,0,0,3.8-.752,1.035,1.035,0,1,1,.877,1.859c-1.4.7-4.422,4.667-3.99,8.6.337,3.017,3.053,3.282,5.133,1.345,2.541-2.354,2.468-6.927,1.911-8.208-.119-.261-.318-.741-.518-1.081C10.14,1.27,12.16.233,13,1.874a8.3,8.3,0,0,0,3.87,3.76,1.1,1.1,0,1,1-1.2,1.838,9.072,9.072,0,0,1-2.155-2c-.119-.16-.18-.2-.121,0A9.461,9.461,0,0,1,10.8,13.6c-2.842,2.813-7.956,2.464-8.208-2.97" transform="translate(0.78 0)"/>
          <path id="パス_171" data-name="パス 171" d="M4.5,22.99c-1.037-1.281.923-2.357,1.72-1.216a20.273,20.273,0,0,1,2.332,4.658,38.247,38.247,0,0,1,3.519-2.193c1.359-.756,2.4,1.164.857,1.941a29.952,29.952,0,0,0-5.681,3.527c-1.98,1.675-2.042,3.173-.485,3.935,1.4.7,4.256.187,5.455-.25,1.678-.638,2.275,1.661.5,2.157-1.578.438-4.915.832-6.893-.17-2.874-1.461-2.75-4.7.49-7.272.2-.16.38-.318.581-.457A16.217,16.217,0,0,0,4.5,22.99" transform="translate(1.169 6.615)"/>
          <path id="パス_172" data-name="パス 172" d="M6.669,56.424a9.2,9.2,0,0,0,3.492-10.505c-.657-2-2.556-1.262-3.136-.024A6.594,6.594,0,0,0,6.5,49.671c.1,1.937-2.06,1.915-2.178.476a17.7,17.7,0,0,1,.467-4.615c.22-1.018.6-2.337.764-3.555a1.006,1.006,0,0,1,2,.182,5.942,5.942,0,0,1-.523,1.857c-.26.539-.059.28.14.021,1.463-1.877,4.058-1.054,4.874,1.206a10.91,10.91,0,0,1-3.975,12.74c-1.62,1.2-3.076-.464-1.4-1.56" transform="translate(1.335 12.782)"/>
          <path id="パス_173" data-name="パス 173" d="M2.5,73.737c-.174-3.6,1.768-6.231,2.528-7.589.08-.121.181-.279.021-.24a8.37,8.37,0,0,1-1.5.178c-1.578.077-1.475-2.1.1-2.058a7.392,7.392,0,0,0,3.8-.754,1.035,1.035,0,1,1,.877,1.86c-1.4.7-4.422,4.669-3.99,8.6.337,3.017,3.053,3.282,5.133,1.346,2.541-2.354,2.468-6.93,1.911-8.208-.119-.262-.318-.741-.518-1.081-.818-1.419,1.2-2.456,2.039-.817a8.291,8.291,0,0,0,3.87,3.762,1.1,1.1,0,1,1-1.2,1.838,9.072,9.072,0,0,1-2.155-2c-.119-.16-.18-.2-.121,0a9.46,9.46,0,0,1-2.589,8.129C7.868,79.518,2.753,79.171,2.5,73.737" transform="translate(0.751 19.606)"/>
          <path id="パス_174" data-name="パス 174" d="M4.4,86.1c-1.037-1.282.923-2.357,1.721-1.216a20.324,20.324,0,0,1,2.33,4.658,38.14,38.14,0,0,1,3.519-2.193c1.359-.758,2.4,1.163.858,1.94A29.989,29.989,0,0,0,7.15,92.813c-1.98,1.675-2.042,3.174-.485,3.936,1.4.7,4.256.186,5.456-.252,1.678-.637,2.275,1.662.494,2.159-1.577.436-4.915.831-6.893-.17-2.874-1.463-2.75-4.7.49-7.272.2-.16.38-.32.581-.459A16.226,16.226,0,0,0,4.4,86.1" transform="translate(1.14 26.221)"/>
          <path id="パス_175" data-name="パス 175" d="M6.577,119.53a9.2,9.2,0,0,0,3.492-10.5c-.657-2-2.556-1.263-3.136-.024a6.588,6.588,0,0,0-.526,3.775c.1,1.939-2.06,1.915-2.178.477a17.718,17.718,0,0,1,.467-4.616c.22-1.018.6-2.336.764-3.553a1.006,1.006,0,0,1,2,.181,5.932,5.932,0,0,1-.523,1.857c-.26.539-.059.28.14.021,1.463-1.876,4.058-1.052,4.874,1.206a10.911,10.911,0,0,1-3.975,12.741c-1.62,1.2-3.076-.464-1.4-1.561" transform="translate(1.306 32.388)"/>
          <path id="パス_176" data-name="パス 176" d="M10.155,130.08a15.74,15.74,0,0,1-4.049,8.086c-1.54,1.416-3.216.633-4.093-1.085-1.256-2.479.089-6.193,2.768-8.048a8.356,8.356,0,0,1,8.635-.448,5.914,5.914,0,0,1,1.843,8.395,8.341,8.341,0,0,1-4.878,3.29c-1.759.457-2.376-1.562-.658-1.959a6.184,6.184,0,0,0,3.721-2.231,4.313,4.313,0,0,0-1.09-6.116,5.178,5.178,0,0,0-2.477-.8,1,1,0,0,1,.279.92m-4.437.374c-1.86,1.436-2.863,4.091-2.026,5.631.3.579.818.879,1.319.442a12.022,12.022,0,0,0,3.108-6.649,1.427,1.427,0,0,1,.18-.619,6.632,6.632,0,0,0-2.579,1.2" transform="translate(0.478 39.64)"/>
          <path id="パス_177" data-name="パス 177" d="M15.048,160.051v.041c0,1.4-1,3.015-4.16,3.009-1.958,0-2.756-.3-2.755-1.161a.935.935,0,0,1,.98-.938.949.949,0,0,1,.24.022,9.221,9.221,0,0,0,1.578.161c1.219,0,2.058-.377,2.059-1.416,0-1.978.052-7.812.056-10.849L1.519,148.9A.874.874,0,0,1,.6,148a.862.862,0,0,1,.92-.9l15.323.022a.9.9,0,0,1,.958.9.887.887,0,0,1-.961.9l-1.838,0c0,2.4-.01,6.972.008,8.311Zm-6.631-1.768c-.579.02-1.2.039-1.8.038-.62,0-1.22-.022-1.779-.043a2.012,2.012,0,0,1-2.055-1.9c-.02-.579-.018-1.2-.017-1.839,0-.619,0-1.258.022-1.857a1.783,1.783,0,0,1,1.821-1.735c.5-.02,1.1-.039,1.718-.038.759,0,1.539.022,2.177.045a1.853,1.853,0,0,1,2,1.62c.039.68.058,1.418.058,2.159,0,.56-.022,1.118-.063,1.638a2.062,2.062,0,0,1-2.081,1.914m.225-3.455c0-.56-.018-1.119-.038-1.6-.018-.579-.2-.62-1.977-.623-.46,0-.919,0-1.239.018-.739.039-.741.377-.742,1.977,0,.44,0,.879.017,1.3.018.64.478.682,2.117.684,1.619,0,1.78-.139,1.819-.617a10.116,10.116,0,0,0,.042-1.139" transform="translate(0.187 45.703)"/>
          <path id="パス_178" data-name="パス 178" d="M1.313,173.076a.834.834,0,0,1-.9-.84.844.844,0,0,1,.881-.857c.279,0,.579-.02.9-.039a22.119,22.119,0,0,0,1.5-3.633.784.784,0,0,1,.8-.6.994.994,0,0,1,1.037.9c0,.1-.121.9-1.484,3.194.881-.079,1.759-.2,2.558-.316a3.688,3.688,0,0,0-.318-.26.628.628,0,0,1-.3-.519.857.857,0,0,1,.881-.738c.579,0,2.535,1.742,2.534,2.661a.908.908,0,0,1-.861.917c-.38,0-.539-.161-.9-.76a41.323,41.323,0,0,1-6.335.889m2.026,7.636c0,1.118.017,2.2.037,3v.02a.786.786,0,0,1-.82.818.837.837,0,0,1-.878-.84c0-1.079-.016-2.578-.014-4.057,0-1.5.025-3,.026-4.1.042-1.738.982-1.776,3.3-1.772.619,0,1.258.02,1.638.041a1.6,1.6,0,0,1,1.7,1.762c0,.3.014,3.4.033,4.055.021.339.02.86.02,1.359,0,.478,0,.958,0,1.258v.08a2,2,0,0,1-2.2,2.075c-.9,0-1.678-.2-1.678-1.021a.727.727,0,0,1,.9-.758,3.1,3.1,0,0,0,.659.1c.419,0,.659-.2.682-.857,0-.321.021-.72.021-1.16Zm0-2.657v1.278l3.417.005c0-.419-.018-.858-.018-1.279Zm3.379-1.393c0-.26-.02-.5-.018-.721,0-.6-.139-.64-1.7-.641-1.439,0-1.579.037-1.62.637,0,.219-.021.46-.021.72Zm4.948,4.861c0,.9.758.94,1.877.941,1.459,0,2.338-.275,2.34-1.475a.818.818,0,0,1,.9-.818,1.01,1.01,0,0,1,1.077,1.02c0,2.178-1.543,2.956-4.379,2.95-1.679,0-3.678-.1-3.674-2.321,0-1.219.026-4.137.047-5.2a.855.855,0,0,1,.921-.859.857.857,0,0,1,.937.841v.02c0,.48-.022,1.178-.024,1.937a30.053,30.053,0,0,0,3.679-1.592.92.92,0,0,1,.439-.118.987.987,0,0,1,.938.98.891.891,0,0,1-.621.836,30.527,30.527,0,0,1-4.456,1.514Zm.013-8.792c0,.94.838.941,1.857.942,1.878,0,2.258-.556,2.26-1.455a.785.785,0,0,1,.879-.8.983.983,0,0,1,1.058,1c0,2.2-1.562,2.894-4.26,2.89-2.717,0-3.656-.7-3.653-2.282,0-1.18.026-3.9.047-4.936a.866.866,0,0,1,.94-.838.847.847,0,0,1,.919.819v.021c0,.5-.042,1.219-.043,1.958a28.392,28.392,0,0,0,3.738-1.514.824.824,0,0,1,.419-.1.964.964,0,0,1,.938.94.916.916,0,0,1-.641.839,33.176,33.176,0,0,1-4.458,1.412Z" transform="translate(0.129 51.918)"/>
          <path id="パス_179" data-name="パス 179" d="M0,196.36a1.307,1.307,0,0,1,.2-.659,5.626,5.626,0,0,0,.763-2.876.742.742,0,0,1,.8-.8.9.9,0,0,1,.938.9c0,.78-.506,4.3-1.845,4.294A.854.854,0,0,1,0,196.36m3.088-7.408a.9.9,0,0,1,.959-.917.93.93,0,0,1,.979.92l0,2.578a1,1,0,0,1,.519-.159,3.085,3.085,0,0,1,1.855,2.02.952.952,0,0,1-.92.9.658.658,0,0,1-.579-.381,6.089,6.089,0,0,0-.877-1.3L5,204.82a.881.881,0,0,1-.98.857.875.875,0,0,1-.957-.86ZM7.02,204.9a.846.846,0,0,1-.937-.84.9.9,0,0,1,.94-.9l4.395.026.007-3.776-2.617.016a.834.834,0,0,1-.938-.82.9.9,0,0,1,.941-.9l2.617.024,0-3.218-2.2.017a16.512,16.512,0,0,1-1.562,2.855,1.094,1.094,0,0,1-.92.539.882.882,0,0,1-.877-.862.967.967,0,0,1,.22-.6A13.374,13.374,0,0,0,8.5,190.378a.913.913,0,0,1,.92-.878.964.964,0,0,1,1,.942,13.832,13.832,0,0,1-.562,2.376l1.578.022.007-3.815a.9.9,0,0,1,.98-.917.9.9,0,0,1,.957.92l-.005,3.815,3.357-.014a.878.878,0,0,1,.957.86.868.868,0,0,1-.959.859l-3.357-.026-.005,3.218,2.617-.017a.88.88,0,0,1,.958.861.868.868,0,0,1-.961.857l-2.617-.024-.005,3.776,4.036-.013a.852.852,0,0,1,.9.879.839.839,0,0,1-.9.859Z" transform="translate(0 58.42)"/>
          <path id="パス_180" data-name="パス 180" d="M8.631,211.647a7.554,7.554,0,0,0,.84-.358c1.1-.658,2.176,1,.7,1.738a11.238,11.238,0,0,1-2.2.657,20.451,20.451,0,0,1-.962,2.017,2.91,2.91,0,0,1,3.354,1.743c.819-.418,1.659-.838,2.439-1.177a15.125,15.125,0,0,0,1.56-.737,1.065,1.065,0,1,1,1.115,1.8c-.64.32-1.1.418-2.159.817-.839.319-1.738.717-2.539,1.1a16.025,16.025,0,0,1,.037,2.2,1.179,1.179,0,0,1-1.06,1.236c-.5.02-.959-.36-.9-1.139.02-.419.041-.879.042-1.3-.181.1-.36.2-.519.3-2.481,1.6-2.182,2.8-1.064,3.357,1.058.54,3.016.144,3.956-.153,1.759-.539,2.316,1.62.477,2.1-1.18.3-3.9.594-5.455-.288-2.695-1.522-2.211-4.218,1.409-6.59.279-.18.6-.4.98-.619-.537-1.679-2.076-1.481-3.378.016-.02.02-.059.06-.08.08a4.3,4.3,0,0,1-.46.518c-1.1.978-2.557-.164-1.357-1.24a9.923,9.923,0,0,0,1.621-1.877,16.516,16.516,0,0,0,.941-1.775,4.047,4.047,0,0,1-2.477-.224c-1.438-.722-.456-2.6.941-1.657a3.1,3.1,0,0,0,1.878.042c.08-.02.2-.02.3-.039a8.427,8.427,0,0,0,.223-1.678c.081-1.2,1.959-1.076,2-.1a3.8,3.8,0,0,1-.161,1.159Z" transform="translate(0.866 65.132)"/>
          <path id="パス_181" data-name="パス 181" d="M15.468,242.194l-3.737-.047c-.021,1.278-.022,2.358-.024,2.617.041.739.679.82,1.657.822,1.279,0,1.9-.316,1.9-1.5a.853.853,0,0,1,.92-.9,1.019,1.019,0,0,1,1.077,1.1c0,2.358-1.343,3.075-4.061,3.071-1.079,0-3.357-.025-3.353-2.323,0-.26,0-1.5.024-2.918L7.716,242.1c-.363,2.437-1.645,4.692-5.623,5.5a2.266,2.266,0,0,1-.339.041.975.975,0,0,1-1.037-1,.844.844,0,0,1,.72-.878c3.019-.414,4.038-1.832,4.361-3.649l-3.176.055H2.6a.834.834,0,0,1-.919-.861.916.916,0,0,1,.941-.957l3.316.025,0-2.337H5.7a.882.882,0,0,1-.839-.461,10.355,10.355,0,0,1-3.6,1.912.954.954,0,0,1-.917-.98.917.917,0,0,1,.6-.857,13.775,13.775,0,0,0,6.4-5.306c0-.139-.119-.2-.32-.2-.739.017-1.678.037-2.817.035a.849.849,0,0,1,0-1.7h.8l2.017,0c1.279,0,2.3.025,2.556,1.123a.722.722,0,0,1,.54.28c.258.3.518.6.8.9a10.735,10.735,0,0,0,1.482-1.735.753.753,0,0,1,.659-.377,1.079,1.079,0,0,1,1.037,1c0,.68-1.541,1.975-1.961,2.316.318.3.619.561.957.84A11.382,11.382,0,0,0,14.942,233a.772.772,0,0,1,.64-.338,1.115,1.115,0,0,1,1.038,1.021c0,.439-.662,1.138-2.1,2.2a14.8,14.8,0,0,0,2.654,1.422.922.922,0,0,1,.638.839,1.089,1.089,0,0,1-1.119,1.038c-.819,0-2.4-1.043-3.654-2.042v.039a.865.865,0,0,1-.94.878h-.32c0,.6-.022,1.436-.024,2.337l3.716-.014a.9.9,0,0,1,.958.92.871.871,0,0,1-.94.9ZM3.29,235.062a8.146,8.146,0,0,0-1.735-1.38.7.7,0,0,1-.4-.6.972.972,0,0,1,1-.877c.8,0,2.455,1.422,2.515,1.482a.924.924,0,0,1,.258.62,1.082,1.082,0,0,1-1.039,1.035.771.771,0,0,1-.6-.279m8.75,1.232a29.9,29.9,0,0,1-2.953-3.042,21.557,21.557,0,0,1-2.7,3.033ZM9.9,240.386c0-.9,0-1.738.025-2.337l-2.1,0,0,1.877c0,.161.02.3.018.46Z" transform="translate(0.108 71.609)"/>
          <path id="パス_182" data-name="パス 182" d="M1.143,268.694a.969.969,0,0,1-1.017-.94.913.913,0,0,1,.9-.9c2.6-.357,4.258-1.351,5.059-3.049a.956.956,0,0,1,.9-.6,1.047,1.047,0,0,1,1.058.939,1,1,0,0,1-.1.4c-1.784,3.752-6.8,4.144-6.8,4.144m4.6-5.867a2.125,2.125,0,0,1-2.334-2c-.039-.879-.056-2.317-.055-3.716,0-1.418.025-2.8.066-3.576a2.022,2.022,0,0,1,2.2-1.956c.919-.039,2.118-.037,3.357-.035,1.219,0,2.477,0,3.5.045a2.077,2.077,0,0,1,2.075,1.822c.038.879.056,2.159.055,3.477,0,1.459-.025,2.937-.067,3.916a2.128,2.128,0,0,1-2.18,2.033c-.339,0-.679.039-1.02.039-.021.8-.042,1.738-.043,2.378,0,1.1.237,1.358,1.956,1.36,1.539,0,2.5-.235,2.5-2.034a.89.89,0,0,1,.941-.937,1,1,0,0,1,1.056,1.08c-.005,3.437-2.323,3.693-4.6,3.69-2.017,0-3.755-.2-3.752-2.422,0-.539,0-2.038.025-3.117-1.239,0-2.518-.024-3.676-.046m7-6.4-7.572-.012,0,1.557,7.573.012ZM5.193,259.51c0,.3.02.56.018.8.02.64.379.86.958.881.919.041,1.918.062,2.936.063.9,0,1.8-.017,2.658-.056.959-.038.961-.777.962-1.676Zm7.539-4.624c0-.3-.039-.579-.038-.8-.02-.52-.279-.819-.938-.861-.659-.02-1.539-.041-2.477-.042-1.119,0-2.278.016-3.117.035a.91.91,0,0,0-.94.877c0,.22-.021.48-.022.78Z" transform="translate(0.039 78.151)"/>
          <path id="パス_183" data-name="パス 183" d="M6.138,283.35a2.76,2.76,0,0,1,1.6-3.755,3.965,3.965,0,0,1,1.72-.176c-.02-.44-.039-1.039-.059-1.62-1.678.157-3.337.4-4.375.554-1.439.216-2.379.474-2.978.575a1.017,1.017,0,1,1-.157-2.018c.8-.14,2.1-.277,2.937-.415,1-.159,2.8-.376,4.556-.533,0-.119,0-.26,0-.359.021-1.239-.1-1.319-.1-1.958a1.049,1.049,0,0,1,2.1-.058c.02.46-.041,1.379-.083,1.918,0,.1-.02.2-.02.3.579-.039,1.1-.059,1.539-.058.979,0,1.678-.018,3.037,0,1.678.042,1.6,2.16,0,2.037-1.417-.121-1.9-.122-3.136-.143-.459,0-.938.018-1.457.037.018.64.038,1.258.037,1.839,0,.279.039.7.058,1.139,1.773,2.8-.35,7.032-2.469,8.727-1.341,1.058-3.077-.363-1.337-1.6a7.086,7.086,0,0,0,2.282-2.933,2.551,2.551,0,0,1-3.694-1.5M9.5,281.257a1.3,1.3,0,0,0-1.278-.081,1.223,1.223,0,0,0-.582,1.518,1.188,1.188,0,0,0,2.3-.337.915.915,0,0,0-.118-.76,2.7,2.7,0,0,0-.32-.339" transform="translate(0.269 84.691)"/>
          <path id="パス_184" data-name="パス 184" d="M11.184,306.821c1.46-1.3,1.4-3.2.265-3.956a5.258,5.258,0,0,0-5.215.332,4.393,4.393,0,0,0-1.68,1.5c-.721,1.058-2.717-.125-1.476-1.342a70.427,70.427,0,0,0,6.042-6.445c.22-.277.02-.2-.14-.119A15.888,15.888,0,0,1,5.621,297.8c-1.578.338-1.876-1.641-.516-1.8a31.121,31.121,0,0,0,4.4-.973c1.6-.457,2.915.962,1.915,2.08-.641.718-1.44,1.5-2.241,2.233s-1.6,1.457-2.321,2.155a6.126,6.126,0,0,1,5.615-.052c2.874,1.724,1.931,5.237-.169,6.754-1.982,1.417-5.1,1.49-6.615.49-2.115-1.382-1.173-3.859,1.185-3.933a2.833,2.833,0,0,1,3.152,2.7,2.694,2.694,0,0,0,1.161-.637m-4.256-.606c-.878.08-.92.9-.282,1.239a3.6,3.6,0,0,0,1.678.3c.022-.919-.516-1.619-1.4-1.54" transform="translate(0.833 91.635)"/>
        </g>
      </g>
      <g id="グループ_26" data-name="グループ 26" transform="translate(247.865 118)">
        <g id="グループ_25" data-name="グループ 25" transform="translate(0)" clip-path="url(#clip-path-3)">
          <path id="パス_185" data-name="パス 185" d="M.491,21.9a1.7,1.7,0,0,1,.756-1.322,7.318,7.318,0,0,0,2.083-2.95,1.156,1.156,0,0,1,1.117-.845,1.421,1.421,0,0,1,1.416,1.329c0,.874-2.118,5.032-4.017,5.028A1.29,1.29,0,0,1,.491,21.9M2.5,6.2A1.192,1.192,0,0,1,1.3,4.961,1.176,1.176,0,0,1,2.507,3.729l4.46.005,0-2.471A1.316,1.316,0,0,1,8.419,0,1.315,1.315,0,0,1,9.864,1.267L9.831,3.741l4.521.005a1.192,1.192,0,0,1,1.264,1.237,1.207,1.207,0,0,1-1.267,1.233ZM9.864,21.7v.212c0,1.6-.608,3.345-3.441,3.34-1.387,0-2.38-.186-2.379-1.419a1.339,1.339,0,0,1,1.269-1.387c.089,0,.151.033.241.033a4.14,4.14,0,0,0,.782.09c.573,0,.9-.27.906-1.294l.009-5.366C3.363,15.9,3,15.123,3.008,11.775c0-.571,0-1.176.033-1.657A2.416,2.416,0,0,1,5.575,7.953c.9-.031,1.869-.059,2.8-.056s1.838.03,2.682.063a2.506,2.506,0,0,1,2.619,2.024c.029.451.059.993.058,1.536,0,2.894-.007,4.4-3.954,4.395l.025,3.435Zm1.311-9.822c0-1.839,0-1.839-2.739-1.844-.663,0-1.3.028-1.929.059-.814.029-.9.481-.907,1.838,0,.36,0,.723.029,1.084.059.692.571.725,2.772.729,2.321,0,2.653-.028,2.713-.811.03-.33.062-.692.062-1.054m1.013,8.77a8.119,8.119,0,0,0-1.444-1.928,1.062,1.062,0,0,1-.27-.695,1.286,1.286,0,0,1,1.237-1.264c.995,0,2.95,2.233,2.948,3.2a1.471,1.471,0,0,1-1.418,1.413,1.126,1.126,0,0,1-1.052-.725M25,20.489A1.137,1.137,0,0,1,26.2,19.283a1.325,1.325,0,0,1,1.416,1.24V20.7c-.008,4.582-1.817,5.123-4.5,5.118-3.075,0-3.766-1.3-3.763-3.471,0-.784.1-3.948.16-6.269C17.729,23.13,13.445,26.2,12.269,26.2a1.434,1.434,0,0,1-1.414-1.418,1.383,1.383,0,0,1,.665-1.176c4.737-3.248,6.011-8.793,6.29-14.4l-2.742,0A1.24,1.24,0,0,1,13.8,7.9,1.223,1.223,0,0,1,15.07,6.61l2.8,0c0-1.807-.025-3.557-.083-5.213V1.34A1.282,1.282,0,0,1,19.179.075a1.382,1.382,0,0,1,1.446,1.33c.029.814.028,1.687.026,2.561,0,.843,0,1.747-.034,2.65l5.182.009a1.224,1.224,0,0,1,1.265,1.3,1.242,1.242,0,0,1-1.267,1.3l-5.3-.009c-.062,1.114-.153,2.2-.307,3.286a1.166,1.166,0,0,1,.633-.18c.573,0,1.266.392,1.264,1.628,0,1.627-.19,6.48-.191,7.987,0,.121,0,.21,0,.271,0,.782.24,1.176,1.235,1.176,1.416,0,1.868-.357,1.872-2.62v-.269ZM25.2,5.54a1.2,1.2,0,0,1-.874-.364,10.516,10.516,0,0,0-2.136-1.539,1.156,1.156,0,0,1-.752-1.085,1.3,1.3,0,0,1,1.3-1.3c1.115,0,3.163,1.574,3.433,1.845a1.47,1.47,0,0,1,.481,1.024A1.5,1.5,0,0,1,25.2,5.54" transform="translate(0.153 0)"/>
          <path id="パス_186" data-name="パス 186" d="M20.006,45.077c2.442.033,3.616,1.151,3.611,3.621v.09c0,2.773-.646,9.132-6.854,9.122a12.539,12.539,0,0,1-4.038-.73,1.3,1.3,0,0,1-.872-1.328,1.5,1.5,0,0,1,1.388-1.625,1.755,1.755,0,0,1,.544.092,11.5,11.5,0,0,0,3.224.727c2.8,0,3.531-3.46,3.6-6.051,0-1-.241-1.357-1.084-1.358h-.09c-.874.028-2.773.056-4.912.052-1.3,5-4.414,8.915-10.807,10.774a1.7,1.7,0,0,1-.541.089,1.638,1.638,0,0,1-1.627-1.629A1.33,1.33,0,0,1,2.661,55.6c5.307-1.319,7.723-4.237,8.783-7.913-2.382.026-4.581.054-5.666.081h-.06a1.265,1.265,0,0,1-1.355-1.3,1.332,1.332,0,0,1,1.389-1.325c1.114-.028,3.586-.085,6.209-.081q.138-1.128.185-2.35a1.418,1.418,0,0,1,1.509-1.444,1.5,1.5,0,0,1,1.6,1.478c0,.423-.183,1.99-.214,2.321ZM5.18,43.849a1.464,1.464,0,0,1-1.539,1.444,1.418,1.418,0,0,1-1.475-1.478c0-.392-.029-.874-.029-1.357,0-.512.031-1.055.034-1.507.062-1.417,1.178-2.8,3.5-2.827,2.773-.028,5.607-.052,8.471-.048l3.134.005a1.673,1.673,0,0,1,.211-.271,23.214,23.214,0,0,0,2.78-4.729,1.411,1.411,0,0,1,1.359-.962,1.66,1.66,0,0,1,1.714,1.48c0,1.055-2.749,4.185-3.021,4.517.815,0,1.6.033,2.412.034a3.4,3.4,0,0,1,3.4,2.988c.031.422.03,1.055.028,1.628,0,1.115,0,2.593-1.661,2.59a1.438,1.438,0,0,1-1.5-1.45v-.06c0-3.164,0-3.224-1.865-3.289-2.38-.033-5.122-.067-7.805-.071-2.2,0-4.34.022-6.18.051-1.627.028-1.869.45-1.961,1.5l0,1.78Zm2.994-6.083a1.176,1.176,0,0,1-.995-.6,12.123,12.123,0,0,0-2.527-2.6.983.983,0,0,1-.421-.784,1.557,1.557,0,0,1,1.6-1.324c1.055,0,3.914,2.657,3.912,3.773a1.633,1.633,0,0,1-1.569,1.535m6.42-.353a1.214,1.214,0,0,1-1.144-.847,11.919,11.919,0,0,0-2.1-2.925,1.055,1.055,0,0,1-.271-.665,1.472,1.472,0,0,1,1.541-1.232c1.384,0,3.549,3.2,3.549,4.164a1.586,1.586,0,0,1-1.57,1.5" transform="translate(0.48 9.863)"/>
          <path id="パス_187" data-name="パス 187" d="M2.013,87.963A1.225,1.225,0,0,1,.718,86.785a1.49,1.49,0,0,1,.212-.722,14.7,14.7,0,0,0,1.515-5.273,1.1,1.1,0,0,1,1.117-1.083,1.3,1.3,0,0,1,1.294,1.358,20.137,20.137,0,0,1-1.7,6.207,1.308,1.308,0,0,1-1.147.691M5.6,88.6l.136-10.457c-1.147.178-3.2.417-3.376.417a1.154,1.154,0,0,1-1.084-1.237.992.992,0,0,1,.936-1.084c.362-.03.814-.059,1.3-.089a24.9,24.9,0,0,0,1.721-2.228,27.023,27.023,0,0,0-3.311-2.807,1.178,1.178,0,0,1,.606-2.169,2.022,2.022,0,0,1,.814.273A21.424,21.424,0,0,0,5.6,64.066a1.108,1.108,0,0,1,1.177-.841,1.368,1.368,0,0,1,1.444,1.208,26.074,26.074,0,0,1-2.992,6.2c.481.393.933.847,1.324,1.207a30.974,30.974,0,0,0,2.207-4.337,1.1,1.1,0,0,1,1.087-.751,1.431,1.431,0,0,1,1.475,1.328c0,.814-2.418,4.729-4.683,7.77.935-.089,1.839-.208,2.532-.3-.121-.21-.241-.392-.36-.571a1.276,1.276,0,0,1-.241-.665A.952.952,0,0,1,9.6,73.447c1.447,0,2.738,3.349,2.737,4.012A1.31,1.31,0,0,1,11.1,78.813c-.482,0-.874-.363-1.084-1.358-.482.09-1.085.18-1.777.3L8.281,88.6a1.344,1.344,0,0,1-1.358,1.414A1.294,1.294,0,0,1,5.6,88.631Zm4.165-3.881a10.2,10.2,0,0,0-.931-3.467,1.476,1.476,0,0,1-.149-.574.96.96,0,0,1,1.026-.933c1.718,0,2.465,4.134,2.464,4.677a1.382,1.382,0,0,1-1.358,1.414,1.058,1.058,0,0,1-1.052-1.117m16.874,1.742a1.186,1.186,0,0,1,1.2,1.267,1.235,1.235,0,0,1-1.208,1.325c-.782.029-2.471.026-4.279.024-2.5,0-5.274-.007-6.358-.039a2.936,2.936,0,0,1-3.19-3.169c0-1.446-.022-5.606-.017-9.765s.043-8.349.045-9.8a1.279,1.279,0,0,1,1.329-1.324,1.232,1.232,0,0,1,1.294,1.3v.03c-.033,1.839-.043,9.073-.051,14.166a1.522,1.522,0,0,1,.212-.241,21.262,21.262,0,0,0,4.106-5.631l-2.653.056h-.03A1.1,1.1,0,0,1,15.9,73.486a1.145,1.145,0,0,1,1.177-1.2l3.164.005-.11-7.083v-.03a1.229,1.229,0,0,1,1.359-1.2,1.227,1.227,0,0,1,1.353,1.208v.03s-.063,2.11-.1,4.671a.683.683,0,0,1,.181-.271,22.454,22.454,0,0,0,1.781-2.558.972.972,0,0,1,.906-.541A1.431,1.431,0,0,1,27,67.806c0,.784-2.054,3.011-2.265,3.222a1.041,1.041,0,0,1-.755.3,1.368,1.368,0,0,1-1.233-.754l-.033,1.718,3.315,0a1.115,1.115,0,0,1,1.144,1.177,1.131,1.131,0,0,1-1.118,1.2h-.029l-3.346-.064,0,1.869a1.225,1.225,0,0,1,.482-.089c.784,0,3.945,2.385,3.943,3.682a1.387,1.387,0,0,1-1.3,1.385,1.1,1.1,0,0,1-.963-.574A11,11,0,0,0,22.672,78.5c.025,3.527.142,6.15.142,6.15v.03a1.272,1.272,0,0,1-1.388,1.2A1.212,1.212,0,0,1,20.1,84.7v-.06l.252-7.023a20.471,20.471,0,0,1-2.84,4.4,1.221,1.221,0,0,1-.995.481,1.323,1.323,0,0,1-1.115-.634c0,1.6.026,2.863.026,3.465a1.029,1.029,0,0,0,1.084,1.147c.6.031,1.627.033,2.771.034,2.562,0,5.878-.021,7.324-.05ZM17.832,70.535A10.468,10.468,0,0,0,16.3,68.152a.918.918,0,0,1-.241-.6c0-.573.665-1.025,1.3-1.024,1.146,0,2.709,2.625,2.708,3.439a1.271,1.271,0,0,1-1.267,1.265,1.032,1.032,0,0,1-.963-.695" transform="translate(0.223 19.643)"/>
          <path id="パス_188" data-name="パス 188" d="M1.766,119.9a1.271,1.271,0,0,1-1.324-1.177,1.382,1.382,0,0,1,.242-.784,14.171,14.171,0,0,0,1.755-5.272,1.117,1.117,0,0,1,1.147-1.052,1.3,1.3,0,0,1,1.324,1.358,18.854,18.854,0,0,1-1.967,6.265,1.423,1.423,0,0,1-1.177.662m22.89-9.249c0-.362,0-.633,0-.935,0-1.536,0-1.928-1.5-1.961-1.144-.031-2.772-.064-4.279-.066-3.857-.007-4.1.022-4.192,1.5l0,1.509v.029a1.266,1.266,0,0,1-2.531-.033v-.845a1.28,1.28,0,0,1-1.147.813c-.332,0-.873-.182-1.113-1.358q-.678.134-1.628.269l.045,10.97a1.352,1.352,0,0,1-1.389,1.414,1.3,1.3,0,0,1-1.354-1.388v-.03l.106-10.579c-1.447.208-3.286.448-3.557.447A1.157,1.157,0,0,1,1,109.173a1.043,1.043,0,0,1,.966-1.114c.362-.03.815-.059,1.326-.088.544-.633,1.178-1.416,1.783-2.258a26.556,26.556,0,0,0-3.4-2.807,1.25,1.25,0,0,1-.57-1,1.208,1.208,0,0,1,1.206-1.2,1.811,1.811,0,0,1,.815.273,22.06,22.06,0,0,0,2.328-5.211A1.164,1.164,0,0,1,6.656,94.9a1.432,1.432,0,0,1,1.5,1.237c0,.995-2.359,5.213-3.084,6.266.482.391.965.844,1.355,1.206a32.823,32.823,0,0,0,2.3-4.367,1.142,1.142,0,0,1,1.117-.751,1.439,1.439,0,0,1,1.5,1.329c0,.843-2.6,4.967-4.8,7.858.9-.088,1.779-.207,2.472-.3-.119-.211-.271-.392-.391-.573a1.051,1.051,0,0,1-.24-.663.993.993,0,0,1,1.087-.9c1.325,0,2.467,2.8,2.676,3.439v-.634c.033-1.536.908-2.56,2.9-2.586,1.688-.029,3.557-.026,5.426-.024,1.355,0,2.712.005,4.007.037a2.871,2.871,0,0,1,2.919,2.807c.03.392.029.814.029,1.206,0,.421,0,.813-.031,1.174a1.3,1.3,0,0,1-1.418,1.2,1.212,1.212,0,0,1-1.325-1.176Zm-14.3,5.888a10.1,10.1,0,0,0-1.29-3.409,1.293,1.293,0,0,1-.211-.663,1.021,1.021,0,0,1,1.088-.962c1.717,0,2.946,3.982,2.946,4.675a1.4,1.4,0,0,1-1.389,1.385,1.13,1.13,0,0,1-1.144-1.026M11.317,122a1.408,1.408,0,0,1-1.444-1.45,1.314,1.314,0,0,1,1.117-1.325c4.131-.776,5.1-3.669,5.106-8.13,0-.36-.03-.722-.029-1.114v-.06a1.24,1.24,0,0,1,1.3-1.325,1.418,1.418,0,0,1,1.446,1.419c0,.392.029.754.028,1.146-.007,4.822-1.219,9.582-7.067,10.779a2.354,2.354,0,0,1-.453.06m3.252-17.869a1.1,1.1,0,0,1-1.2-1.117,1.17,1.17,0,0,1,1.207-1.2l3.5.005v-1.6l-4.641-.007a1.131,1.131,0,0,1-1.233-1.147,1.2,1.2,0,0,1,1.237-1.235l4.641.008,0-1.809A1.286,1.286,0,0,1,19.435,94.7a1.32,1.32,0,0,1,1.414,1.329l0,1.809,5.213.008a1.19,1.19,0,0,1,0,2.38l-5.214-.008v1.6l3.8.005a1.161,1.161,0,0,1,0,2.321ZM25.43,116.08a1.143,1.143,0,0,1,1.237-1.2,1.347,1.347,0,0,1,1.476,1.448c-.005,3.316-.852,5.092-4.62,5.087-2.982,0-3.553-1.391-3.551-3.471,0-1.206.072-7.3.134-8.227a1.35,1.35,0,0,1,1.418-1.174c1.265,0,1.263,1.147,1.262,1.629,0,1.628-.128,5.636-.131,7.142,0,1.237.33,1.448,1.054,1.45,1.325,0,1.718-.3,1.721-2.349v-.332Z" transform="translate(0.137 29.423)"/>
          <path id="パス_189" data-name="パス 189" d="M15.525,133.928,15.49,137.4l3.708,0c1.777,0,2.831,1,2.828,2.387,0,1.807-2.72,5.148-5.435,7.586a18.707,18.707,0,0,0,9.248,2.364,1.318,1.318,0,0,1,1.264,1.448,1.7,1.7,0,0,1-1.81,1.746,19.83,19.83,0,0,1-11.116-3.663,23.62,23.62,0,0,1-11.52,4.323,1.5,1.5,0,0,1-1.5-1.569,1.419,1.419,0,0,1,1.419-1.475,20.575,20.575,0,0,0,9.257-3.121c-1.384-1.269-3.973-4.287-3.971-5.493a1.438,1.438,0,0,1,1.51-1.322,1.226,1.226,0,0,1,1.114.6,18.1,18.1,0,0,0,3.7,4.467c2.475-2.138,4.137-4.545,4.137-5.179,0-.271-.24-.452-.692-.454l-3.254,0c-2.5,0-5.515-.009-8.078.079h-.06a1.258,1.258,0,0,1-1.325-1.3,1.375,1.375,0,0,1,1.419-1.414l6.239.009-.025-3.5-9.314.046a1.389,1.389,0,1,1,0-2.773l9.314.075-.026-3.134A1.325,1.325,0,0,1,14,126.873c.784,0,1.566.425,1.565,1.269l-.034,3.135,9.463-.048a1.389,1.389,0,1,1,0,2.775Z" transform="translate(0.358 39.418)"/>
          <path id="パス_190" data-name="パス 190" d="M17.206,173.116c-.212.573-.395,1.114-.636,1.657,1.718-.028,4.973-.084,5.455-.084a1.91,1.91,0,0,1,2.106,1.873,2.507,2.507,0,0,1-.242.995,11.978,11.978,0,0,1-2.446,3.431,17.091,17.091,0,0,0,5.362,1.425,1.21,1.21,0,0,1,1.144,1.207,1.464,1.464,0,0,1-1.6,1.414,16.743,16.743,0,0,1-6.957-2.391,18.463,18.463,0,0,1-6.966,2.7,1.2,1.2,0,0,1-1.235-1.236,1.124,1.124,0,0,1,.967-1.144,15.172,15.172,0,0,0,5.247-1.891,11.048,11.048,0,0,1-2.376-3.168c-2.509,4.4-5.224,6.5-6.338,6.5A1.305,1.305,0,0,1,7.4,183.348a3.593,3.593,0,0,1-3.439,1.683c-1.777,0-2.741-.4-2.739-1.63a1.27,1.27,0,0,1,1.177-1.387.874.874,0,0,1,.271.031,4.68,4.68,0,0,0,.965.122c.633,0,1.236-.21,1.237-.992l.009-6.359c-1.569.81-2.112,1.111-2.684,1.111a1.446,1.446,0,0,1-1.444-1.45,1.348,1.348,0,0,1,.876-1.233c1.206-.512,2.262-.932,3.257-1.412l.007-4.552-2.531,0a1.326,1.326,0,1,1,0-2.652l2.531,0-.022-4.7a1.383,1.383,0,0,1,1.448-1.416A1.335,1.335,0,0,1,7.7,159.931l-.007,4.7H9.564a1.326,1.326,0,0,1,0,2.653l-1.869,0,0,3.075c.36-.211.693-.422,1.055-.662a1.069,1.069,0,0,1,.633-.21,1.257,1.257,0,0,1,1.2,1.237c0,.692-.575,1.235-2.9,2.557,0,1.99-.035,3.527-.035,3.978,0,.482.085,3.226.114,4.281a6.291,6.291,0,0,1-.031.754,3.2,3.2,0,0,1,.332-.271c3.077-1.8,5.342-5.3,6.614-8.88l-3.164-.005a1.131,1.131,0,1,1,0-2.261l3.8.037c.122-.574.244-1.115.334-1.658l-3.134,0a1.146,1.146,0,1,1,0-2.291h1.024a.692.692,0,0,1-.151-.241,4.629,4.629,0,0,0-.992-1.569.853.853,0,0,1-.24-.573,1.259,1.259,0,0,1,1.3-1.052c.935,0,2.136,1.811,2.136,2.5a1.283,1.283,0,0,1-.453.963l2.924,0a.869.869,0,0,1-.693-.755,4.872,4.872,0,0,0-.72-1.779.733.733,0,0,1-.121-.392c0-.543.665-.9,1.267-.9,1.265,0,1.865,2.324,1.864,2.625a1.312,1.312,0,0,1-1.117,1.2l2.08,0a16.546,16.546,0,0,0,1.752-3.675.978.978,0,0,1,.995-.63c.725,0,1.507.484,1.506,1.147s-1.481,2.891-1.632,3.133l1.839,0a1.151,1.151,0,1,1,0,2.291l-6.81-.042c-.092.543-.212,1.115-.364,1.688l8.167-.017a1.134,1.134,0,1,1,0,2.26Zm-5.141-9.953a1.291,1.291,0,0,1-1.384-1.3,1.211,1.211,0,0,1,1.328-1.233h.06c.482.03.965.03,1.507.031a50.417,50.417,0,0,0,10.369-1.009,1.241,1.241,0,0,1,.332-.03,1.4,1.4,0,0,1,1.414,1.329c0,.512-.333.994-1.177,1.172-4.04.929-11.122,1.039-12.449,1.038m9.113,13.787c0-.271-.271-.3-.452-.3s-2.2.056-3.859.055a8.915,8.915,0,0,0,2.438,2.956,6.473,6.473,0,0,0,1.873-2.709" transform="translate(0.232 49.247)"/>
          <path id="パス_191" data-name="パス 191" d="M13.788,215.016c-.392.029-1.176.059-1.929.058-2.923,0-6.388-.131-6.5-3.9C5.3,209.91,5.3,207.65,5.3,205.207c.005-3.675.042-7.774.1-9.7.1-3.767,3.442-3.822,6-3.819.663,0,1.3.031,1.748.063,5,.338,6.867,2.995,6.864,5.526,0,2.291-1.514,4.518-3.624,4.815-.3.06-.482.121-.482.181,0,.03.121.09.452.122a5.35,5.35,0,0,1,4.994,5.642c-.005,3.224-2.361,6.688-7.574,6.982M17.9,207.7c0-1.78-1.2-3.528-3.973-3.745-.754-.06-1.537-.092-2.29-.093-2.8,0-3.075.085-3.076.688-.005,3.768-.007,5.155.083,5.969.148,1.115.45,1.477,3.253,1.481.693,0,1.446-.029,2.018-.058A4.215,4.215,0,0,0,17.9,207.7M11.286,194.79c-1.929,0-2.532.237-2.624,1.383-.062.722-.034,2.44-.067,4.189,0,.632.422.632,2.41.636.723,0,1.507,0,2.05-.028a3.613,3.613,0,0,0,3.561-3.4c0-1.417-1.111-2.745-3.763-2.749,0,0-.784-.03-1.568-.031" transform="translate(1.647 59.554)"/>
          <path id="パス_192" data-name="パス 192" d="M2.686,247.891a1.273,1.273,0,0,1-1.414-1.237,1.292,1.292,0,0,1,1.418-1.235l9.885.046,0-2.743-7.2.02a1.214,1.214,0,1,1,0-2.412l7.173.042,0-1.747a1.538,1.538,0,0,1-.965.3,1.188,1.188,0,0,1-1.325-1.147L10.3,231.9l-2.924,0c-.7,4.851-3.476,7.5-4.863,7.5a1.24,1.24,0,0,1-1.325-1.206,1.3,1.3,0,0,1,.514-.995c2.113-1.835,2.809-3.222,3.083-5.27l-2.382,0h-.03a1.21,1.21,0,0,1-1.324-1.237,1.243,1.243,0,0,1,1.328-1.233h.03l2.531.034.031-.754c.031-.482.031-.935.033-1.355,0-.454,0-.874-.029-1.326l-1.628,0H3.32A1.223,1.223,0,0,1,2,224.833a1.258,1.258,0,0,1,1.358-1.264l11.121.017a1.175,1.175,0,0,1,1.2,1.236,1.155,1.155,0,0,1-1.177,1.236h-.031l-1.566,0,.025,3.435,2.412-.027h.03a1.153,1.153,0,0,1,1.173,1.239,1.168,1.168,0,0,1-1.177,1.233h-.03l-2.412,0,.022,5.576a1.579,1.579,0,0,1,1.085-.419,1.383,1.383,0,0,1,1.446,1.418l0,1.868,6.932-.018a1.214,1.214,0,1,1,0,2.412l-6.931-.042,0,2.743,9.7-.017a1.293,1.293,0,0,1,1.324,1.3,1.183,1.183,0,0,1-1.328,1.172Zm7.627-21.87-2.683,0c0,1.026-.031,1.99-.033,2.8v.663l2.712,0Zm6.964-.924a1.248,1.248,0,0,1,1.3-1.294,1.281,1.281,0,0,1,1.354,1.3l-.013,8.862a1.22,1.22,0,0,1-1.329,1.2,1.218,1.218,0,0,1-1.324-1.208Zm8.484,10.17v.06c0,1.748-1.03,3.707-4.074,3.7-1.959,0-3.074-.456-3.072-1.6a1.361,1.361,0,0,1,1.3-1.446,1.607,1.607,0,0,1,.391.063,5.83,5.83,0,0,0,1.387.241c.692,0,1.236-.3,1.267-1.5,0-1.236.039-6.329.045-9.344,0-.754,0-1.387,0-1.809a1.263,1.263,0,0,1,1.359-1.294,1.279,1.279,0,0,1,1.354,1.3l-.012,8.228Z" transform="translate(0.327 69.076)"/>
          <path id="パス_193" data-name="パス 193" d="M11.086,261.093l-3.8-.068c-.062.906-.123,1.84-.185,2.775.362-.031.723-.03,1.085-.03,1.809,0,3.405.187,3.4,2.688v.181c-.19,6.209-.471,12.868-5.053,12.86-.451,0-2.652-.094-2.649-1.721V277.6c-.847,1.476-1.421,2.35-2.354,2.349A1.493,1.493,0,0,1,0,278.615a1.217,1.217,0,0,1,.3-.783c3.29-4.093,3.994-10.843,4.3-16.781L2.5,261.08h-.03a1.326,1.326,0,0,1,.005-2.653H2.5l2.893.066-.025-3.376a1.366,1.366,0,0,1,1.478-1.384,1.381,1.381,0,0,1,1.475,1.388L8.316,258.5l2.8-.056h.029a1.208,1.208,0,0,1,1.265,1.3,1.3,1.3,0,0,1-1.3,1.355Zm-4.2,5.117a33.429,33.429,0,0,1-2.517,10.454,1.079,1.079,0,0,1,.663-.21,1.254,1.254,0,0,1,.543.122,2.045,2.045,0,0,0,.874.211c.573,0,2.35-.056,2.485-9.61a.84.84,0,0,0-.813-.966Zm8.9-5.713c-1.572,2.739-2.206,3.582-3.171,3.582a1.368,1.368,0,0,1-1.414-1.267,1.516,1.516,0,0,1,.363-.906,24.386,24.386,0,0,0,3.868-7.165,1.27,1.27,0,0,1,1.236-.874,1.39,1.39,0,0,1,1.476,1.3,12.566,12.566,0,0,1-1.029,2.742l8.71-.05a1.327,1.327,0,0,1,0,2.654Zm5.4,14.174a1.144,1.144,0,0,1-1.267,1.083,1.157,1.157,0,0,1-1.295-1.087l.01-6.753c-.695.362-1.388.722-2.053,1.053,0,2.562-.007,5.155.021,6.9,0,1.295.721,1.357,3.313,1.361,3.766.005,5.213.008,5.218-2.705a1.176,1.176,0,0,1,1.237-1.265,1.366,1.366,0,0,1,1.444,1.48c0,2.863-1.423,4.669-4.378,5-.692.059-1.809.086-2.954.084-4.34-.007-6.418-.1-6.475-3.291-.026-1.991-.024-4.13-.021-6.27l-.722.36a1.46,1.46,0,0,1-.574.149,1.23,1.23,0,0,1-1.143-1.267,1.1,1.1,0,0,1,.665-1.022l1.81-.9c0-1.114.033-2.169.034-3.223a1.214,1.214,0,0,1,1.3-1.235,1.177,1.177,0,0,1,1.265,1.178v.029c0,.633-.033,1.326-.034,2.02l2.053-.962,0-2.953a1.285,1.285,0,0,1,2.561,0l0,1.717.874-.421a3.084,3.084,0,0,1,1.447-.329c2.472,0,2.528,2.264,2.528,3.29,0,1.206-.126,2.651-.218,3.767-.275,2.831-1.362,3.794-3.231,3.792-.843,0-1.084-.062-1.414-.334Zm0-2.864a.761.761,0,0,1,.512-.181.894.894,0,0,1,.271.031,1.49,1.49,0,0,0,.481.092c.3,0,1.025-.149,1.032-4.279,0-1.506-.148-1.6-.45-1.6a.666.666,0,0,0-.3.09c-.392.181-.9.419-1.536.721Z" transform="translate(0 78.831)"/>
          <path id="パス_194" data-name="パス 194" d="M1.85,292.75a1.267,1.267,0,1,1,0-2.532l8.921.013a1.267,1.267,0,1,1,0,2.531Zm11.02,7.068a1.117,1.117,0,0,1-1.083-1.237,1.13,1.13,0,0,1,1.056-1.235c1.176-.029,2.713-.026,4.311-.024s3.224.005,4.581.037c1.928.033,2.65,1.119,2.648,2.294,0,1.72-1.844,4.61-3.6,6.627a14.933,14.933,0,0,0,5.873,2.48,1.341,1.341,0,0,1,1.143,1.358,1.561,1.561,0,0,1-1.661,1.565c-1.295,0-4.729-1.333-7.287-3.476a14.883,14.883,0,0,1-7.54,3.815,1.578,1.578,0,0,1-1.475-1.389c-.754.392-1.568.421-3.708.417-.844,0-1.718-.033-2.321-.062A2.338,2.338,0,0,1,1.495,308.6c-.029-.663-.028-1.266-.026-1.869,0-.843,0-1.627.033-2.38a2.256,2.256,0,0,1,2.264-2.287c.693-.03,1.477-.058,2.261-.056.965,0,1.9.031,2.621.064a2.461,2.461,0,0,1,2.5,2.144c.029.692.028,1.446.026,2.2s0,1.509-.033,2.172a2.558,2.558,0,0,1-.122.692,13.562,13.562,0,0,0,5.913-2.975,12.719,12.719,0,0,1-2.707-4.615,1.4,1.4,0,0,1,1.448-1.263,1.152,1.152,0,0,1,1.114.725,13.744,13.744,0,0,0,2.015,3.258,10.77,10.77,0,0,0,2.328-4.247c0-.363-.451-.392-.663-.392l-1.928,0c-1.869,0-3.979.025-5.637.052Zm-9.778-11.2a1.283,1.283,0,0,1-1.385-1.239A1.265,1.265,0,0,1,3.1,286.151l6.268.009a1.194,1.194,0,0,1,1.265,1.237,1.211,1.211,0,0,1-1.269,1.235Zm.042,11.935A1.244,1.244,0,0,1,1.81,299.32a1.226,1.226,0,0,1,1.328-1.232l6.269.009a1.193,1.193,0,0,1,1.265,1.236A1.209,1.209,0,0,1,9.4,300.566Zm.007-3.888a1.219,1.219,0,0,1-1.295-1.24,1.2,1.2,0,0,1,1.3-1.232l6.269.009a1.193,1.193,0,0,1,1.265,1.236A1.211,1.211,0,0,1,9.41,296.68Zm5.38,9.833c0-.482,0-.965-.029-1.387-.059-.784-.722-.815-2.258-.818-.423,0-.844,0-1.3.03-.874.058-.876.57-.878,2.168,0,.482.029.965.029,1.417.029.632.6.725,2.139.726,1.717,0,2.231-.177,2.261-.751.031-.421.031-.9.033-1.385M24.7,291.577c0-.724.6-1.024,1.237-1.022.693,0,1.446.395,1.444,1.056v.211c-.005,3.678-1.663,4.37-3.954,4.366-3.224-.005-3.553-1.211-3.551-3.5,0-1.115.034-2.412.035-3.316,0-.843-.692-.876-1.265-.876-1.085,0-1.809,0-1.81.931,0,2.8-.308,5-2.722,6.869a1.571,1.571,0,0,1-1.025.359,1.554,1.554,0,0,1-1.565-1.418,1.062,1.062,0,0,1,.514-.9c1.75-1.144,2.083-2.347,2.085-4.519,0-.36-.029-.754-.028-1.174v-.06c0-2.38,2.414-2.5,4.042-2.5,3.586.005,4.519.368,4.515,3.623,0,.965-.063,1.748-.064,2.593v.422a.868.868,0,0,0,.962,1c1.025,0,1.147-.784,1.148-1.839v-.3Z" transform="translate(0.163 88.882)"/>
        </g>
      </g>
    </g>
  </g>
</svg>
