<svg xmlns="http://www.w3.org/2000/svg" width="146.826" height="129.628" viewBox="0 0 146.826 129.628">
  <g id="グループ_96" data-name="グループ 96" transform="translate(-2185.534 -2301.872)">
    <path id="パス_168" data-name="パス 168" d="M147.809,19.459A18.958,18.958,0,0,0,128.851.5H45.119a18.9,18.9,0,0,0-15.98,29.092H21.933a20.954,20.954,0,0,0,0,41.908h92.541a20.878,20.878,0,0,0,16.832-33.327,18.9,18.9,0,0,0,16.5-18.714" transform="translate(2184.551 2360)" fill="blue"/>
    <path id="パス_428" data-name="パス 428" d="M-1.02,7.072q-14.552,0-24.548-7.616t-13.94-20.944v-.544a1.743,1.743,0,0,1,1.5-1.768l14.96-4.08.544-.136a1.743,1.743,0,0,1,1.768,1.5,22.987,22.987,0,0,0,7.072,10.268q4.76,3.876,12.648,3.876,8.568,0,13.6-4.216a14.124,14.124,0,0,0,5.032-11.424,12.312,12.312,0,0,0-5.44-10.812q-5.44-3.74-14.416-3.74H-6.732a1.683,1.683,0,0,1-1.9-1.9V-57.528a1.683,1.683,0,0,1,1.9-1.9h4.488q7.616,0,12.308-3.468a10.871,10.871,0,0,0,4.692-9.18A12.183,12.183,0,0,0,10.2-81.872,17.517,17.517,0,0,0-1.428-85.68,17.382,17.382,0,0,0-12.988-81.8a23.487,23.487,0,0,0-6.936,10.268,1.753,1.753,0,0,1-2.312,1.36l-14.824-4.08a1.721,1.721,0,0,1-1.5-2.312Q-34.612-89.9-24.82-97.512t23.8-7.616a46.647,46.647,0,0,1,14.552,2.176,36.067,36.067,0,0,1,11.56,6.12,28.519,28.519,0,0,1,7.616,9.248,25.251,25.251,0,0,1,2.72,11.7A24.184,24.184,0,0,1,30.94-61.54a30.468,30.468,0,0,1-12.512,10,29.929,29.929,0,0,1,14.484,9.86q5.236,6.732,5.236,16.524a30.231,30.231,0,0,1-2.856,13.192,29.3,29.3,0,0,1-8.024,10.2A37.429,37.429,0,0,1,14.892,4.76,51.892,51.892,0,0,1-1.02,7.072Z" transform="translate(2258.948 2408)" fill="#fff" stroke="#000" stroke-width="2"/>
  </g>
</svg>
