<svg xmlns="http://www.w3.org/2000/svg" width="90.676" height="435.021" viewBox="0 0 90.676 435.021">
  <g id="グループ_282" data-name="グループ 282" transform="translate(-640 -4210)">
    <path id="パス_169" data-name="パス 169" d="M64.188,5.85a23.856,23.856,0,0,0,4.019.27c.36,0,.69,0,1.38-.031A36.188,36.188,0,0,0,70.156,1.5a4.2,4.2,0,0,0-.029-.54l3.96.36a20.052,20.052,0,0,0-.48,2.34c-.06.36-.12.78-.21,1.32-.03.149-.09.39-.18.93a27.279,27.279,0,0,0,5.13-.9L78.5,8.46a1.312,1.312,0,0,1-.269.03l-.69.119a40.833,40.833,0,0,1-4.92.631A99.79,99.79,0,0,1,67.4,26.909l-3.78-1.47c1.95-3.48,4.35-10.71,5.37-16.08h-.3l-.659-.029H65.9c-.42-.031-.959-.031-1.2-.031a4.336,4.336,0,0,0-.57.031ZM79.067,17.46c-1.2,1.529-1.56,2.249-1.56,3.329,0,1.53,1.5,2.31,4.5,2.31a22.966,22.966,0,0,0,6.811-1.11l.269,3.66c-.54.06-.689.09-1.47.21a32.141,32.141,0,0,1-5.58.51,12.177,12.177,0,0,1-6.029-1.2,4.335,4.335,0,0,1-2.13-3.69c0-1.59.57-2.94,2.22-5.22Zm8.91-3.931a34.913,34.913,0,0,0-11.7.69l-.27-3.33a38.391,38.391,0,0,1,8.94-.96c.9,0,1.589,0,2.969.031ZM83.027,1.77a19.486,19.486,0,0,1,3.149,4.409l-2.1,1.111a20.224,20.224,0,0,0-3.15-4.47ZM87.676,5.4a22.032,22.032,0,0,0-3.06-4.35L86.626,0a17.279,17.279,0,0,1,3.12,4.23Z" transform="translate(640 4210)" fill="#1a1a1a"/>
    <path id="パス_170" data-name="パス 170" d="M74.566,45.09a7.136,7.136,0,0,0-.24.93c-.059.39-.09.54-.18,1.02-.089.63-.089.63-.509,2.88-.12.66-.12.72-.21,1.11.87-.06,1.29-.09,1.86-.09a5.809,5.809,0,0,1,4.439,1.59c1.02,1.14,1.411,2.58,1.411,5.31,0,5.159-.87,9.269-2.311,10.919a3.8,3.8,0,0,1-3.33,1.35,14.554,14.554,0,0,1-4.619-.87c.029-.6.059-1.019.059-1.32a11.258,11.258,0,0,0-.3-2.55,12.411,12.411,0,0,0,4.38,1.17c.87,0,1.349-.569,1.8-2.04A26.6,26.6,0,0,0,77.6,57.66c0-2.76-.691-3.57-3.06-3.57-.6,0-1.051.03-1.74.09a63.61,63.61,0,0,1-1.83,6.509,64.341,64.341,0,0,1-3.6,8.43l-.45.9c-.09.18-.09.21-.24.51l-3.48-1.92a32.67,32.67,0,0,0,3.119-5.639,50.742,50.742,0,0,0,2.91-8.49,53.812,53.812,0,0,0-5.369.96L63.5,51.9c1.11,0,4.739-.36,6.39-.6a46.166,46.166,0,0,0,.78-6.06v-.57Zm9.93,3.84a29.12,29.12,0,0,1,6.18,11.7l-3.42,1.739a27.019,27.019,0,0,0-2.4-6.81,19.427,19.427,0,0,0-3.45-5.129Z" transform="translate(640 4210)" fill="#1a1a1a"/>
    <path id="パス_171" data-name="パス 171" d="M71.537,94.5a63.266,63.266,0,0,0-1.35,7.38c-.06.42-.06.42-.15.87l.06.059c1.74-1.679,5.46-2.849,9.09-2.849,5.1,0,8.46,2.519,8.46,6.359a7.3,7.3,0,0,1-3.09,5.79c-1.95,1.41-4.441,2.04-7.92,2.04a27.58,27.58,0,0,1-7.65-1.05,13.317,13.317,0,0,0-.45-3.87,24.219,24.219,0,0,0,8.07,1.5c4.229,0,7.17-1.77,7.17-4.319,0-2.011-1.89-3.21-5.07-3.21a13.651,13.651,0,0,0-7.47,2.19,6.529,6.529,0,0,0-1.35,1.29l-3.779-.121c.09-.54.09-.66.239-1.8.24-1.861.72-5.19,1.261-8.73a12.384,12.384,0,0,0,.179-1.74Zm.39-5.88a44.993,44.993,0,0,0,11.189,3.33L81.887,95.4a54.3,54.3,0,0,1-11.7-3.75Z" transform="translate(640 4210)" fill="#1a1a1a"/>
    <path id="パス_172" data-name="パス 172" d="M78.6,153.358a24.9,24.9,0,0,0,.24,3.9h-4.53a25.148,25.148,0,0,0,.24-3.9V136.979H70.5a29.792,29.792,0,0,0-4.11.21v-4.02a30.344,30.344,0,0,0,4.08.21h11.88a31.966,31.966,0,0,0,4.409-.21v4.02a31.521,31.521,0,0,0-4.409-.21H78.6Z" transform="translate(640 4210)" fill="#1a1a1a"/>
    <path id="パス_173" data-name="パス 173" d="M83.446,201.06a20.156,20.156,0,0,0-.84-3.151l-1.2-3.269h-9.6l-1.2,3.269a14.962,14.962,0,0,0-.9,3.151h-4.92a32.912,32.912,0,0,0,1.59-3.541l6.6-17.309a17.584,17.584,0,0,0,.96-3.03h5.22a19.865,19.865,0,0,0,1.02,3.03l6.66,17.309a31.61,31.61,0,0,0,1.53,3.541Zm-6.33-18.75c-.12-.33-.21-.69-.54-1.68-.48,1.41-.48,1.41-.569,1.68l-3.12,8.879h7.439Z" transform="translate(640 4210)" fill="#1a1a1a"/>
    <path id="パス_174" data-name="パス 174" d="M82.021,244.859a30.2,30.2,0,0,0-1.919-3.21l-7.741-11.67c-.569-.9-1.319-2.189-2.038-3.6.029.419.029.419.118,1.53.03.57.091,1.92.091,2.609v9.84a33.236,33.236,0,0,0,.239,4.5H66.392a32.457,32.457,0,0,0,.24-4.53V224.85a24.867,24.867,0,0,0-.24-3.87h4.681a16.359,16.359,0,0,0,1.828,3.18l7.591,11.429c.719,1.081,1.679,2.64,2.339,3.84-.12-1.17-.21-2.969-.21-4.23V225.12a26.109,26.109,0,0,0-.24-4.14H86.76a26.368,26.368,0,0,0-.239,4.14v15.869a22.754,22.754,0,0,0,.239,3.87Z" transform="translate(640 4210)" fill="#1a1a1a"/>
    <path id="パス_175" data-name="パス 175" d="M86.281,288.869a31.127,31.127,0,0,0-4.35-.21H70.771c-1.889,0-2.729.029-3.9.09v-3.54a22.655,22.655,0,0,0,2.43-2.79l10.019-12.6c.811-.96,1.261-1.47,1.32-1.559-.6.029-1.62.059-2.13.059H72.152a36.475,36.475,0,0,0-4.23.21V264.57a37.3,37.3,0,0,0,4.23.21h9.69c1.169,0,2.759-.03,3.9-.091v3.42a29.792,29.792,0,0,0-2.52,2.91l-9.78,12.36a21.436,21.436,0,0,1-1.5,1.77c.541,0,1.53-.03,2.49-.03h7.5a36.538,36.538,0,0,0,4.35-.21Z" transform="translate(640 4210)" fill="#1a1a1a"/>
    <path id="パス_176" data-name="パス 176" d="M84.406,311.1c2.189,2.19,3.359,5.46,3.359,9.359,0,7.59-4.41,12.51-11.219,12.51s-11.19-4.89-11.19-12.51c0-3.869,1.2-7.2,3.42-9.359a10.4,10.4,0,0,1,7.74-3,10.513,10.513,0,0,1,7.89,3m-.84,9.359c0-3.029-.84-5.459-2.37-6.989a6.457,6.457,0,0,0-4.62-1.83c-4.32,0-7.05,3.42-7.05,8.849a9.907,9.907,0,0,0,2.431,7.08,6.473,6.473,0,0,0,4.649,1.83c4.29,0,6.96-3.419,6.96-8.94" transform="translate(640 4210)" fill="#1a1a1a"/>
    <path id="パス_177" data-name="パス 177" d="M65.6,377.008a10.979,10.979,0,0,0-.15-1.17,56.88,56.88,0,0,1-.81-9.539,53.623,53.623,0,0,1,.57-7.95c.151-.9.151-.9.811-4.29a16.209,16.209,0,0,0,.329-2.22v-.119l4.05.419c-1.23,2.61-2.369,9.84-2.4,15.06-.03,1.08-.03,1.08-.03,1.56v.48a5.266,5.266,0,0,1-.029.629h.029c.15-.33.15-.33.36-.869.06-.21.21-.54.36-1.02.27-.63.27-.63.57-1.35a5.717,5.717,0,0,0,.36-.93l2.49,1.11c-1.77,3.479-2.97,7.2-2.97,9.18a5.859,5.859,0,0,0,.06.809Zm6.78-19.649a21.621,21.621,0,0,0,5.43.48c1.05,0,1.71,0,2.76-.059,0-1.771-.031-3.271-.031-4.5a8.4,8.4,0,0,0-.09-1.441l3.75-.09a29.4,29.4,0,0,0-.209,4.41v1.38a30.346,30.346,0,0,0,4.049-.719c.18-.061.18-.061.66-.241l.24-.06.121,3.39a5.191,5.191,0,0,0-.871.15c-1.02.21-2.579.48-4.17.66v.66c0,1.68,0,1.74.3,6.779a23.971,23.971,0,0,1,4.71,2.731,5.887,5.887,0,0,0,.839.51l-1.44,3.63a11.239,11.239,0,0,0-2.25-1.92c-1.02-.66-1.709-1.111-1.89-1.23v.42a5.253,5.253,0,0,1-.24,1.68c-.689,1.769-2.79,2.819-5.7,2.819-3.931,0-6.33-1.859-6.33-4.919,0-2.91,2.55-4.95,6.179-4.95a7.124,7.124,0,0,1,2.67.42c-.089-.75-.12-2.22-.239-6.39-1.2.03-1.92.06-2.7.06-1.11,0-2.31-.03-3.72-.15-.42,0-.75-.03-.9-.03a4.467,4.467,0,0,0-.51-.03,1.38,1.38,0,0,0-.3-.03.523.523,0,0,0-.179.03Zm6.09,12.57c-1.92,0-3.12.75-3.12,1.979,0,1.111,1.08,1.861,2.76,1.861a2.947,2.947,0,0,0,2.429-.93,2.511,2.511,0,0,0,.39-1.62v-.811a6.292,6.292,0,0,0-2.459-.479" transform="translate(640 4210)" fill="#1a1a1a"/>
    <path id="パス_178" data-name="パス 178" d="M14.971,197.915a12.918,12.918,0,0,1-.349,3.7c-.392,1.523-1.958,2.524-4,2.524a13.554,13.554,0,0,1-8.226-3.09A6.391,6.391,0,0,1,0,196.131c0-2.046,1.349-4.352,3.743-6.441a23.291,23.291,0,0,1,6.354-3.7l-.044-6.7c-.348,0-.348,0-1.785.087-.652.044-1.261.044-2.349.044-.653,0-1.871-.044-2.394-.044-.565-.043-.957-.043-1.088-.043a8.269,8.269,0,0,0-.914.043L1.48,174.5a26.611,26.611,0,0,0,5.266.392c.435,0,.913,0,1.522-.044,1.045-.043,1.263-.043,1.742-.043v-2.872a29.759,29.759,0,0,0-.262-5.005h5.44a26.787,26.787,0,0,0-.261,4.744v2.785a48.6,48.6,0,0,0,8.4-1.654l.174,4.874c-.783.131-1.61.261-4.613.783-1.436.261-2.306.392-3.96.566v5.657a30.193,30.193,0,0,1,8.878-1.218c7.267,0,12.446,4.439,12.446,10.618a9.668,9.668,0,0,1-9.879,9.923,7.027,7.027,0,0,1-7.137-4.831,14.548,14.548,0,0,1-.74-5.57,18.374,18.374,0,0,0,4.831-1.915,15.094,15.094,0,0,0-.087,1.915,8.369,8.369,0,0,0,.61,3.829,3.007,3.007,0,0,0,2.741,1.48c2.567,0,4.4-2.046,4.4-4.831,0-3.742-3.046-6.179-7.7-6.179a27.865,27.865,0,0,0-8.355,1.436Zm-4.918-7.006c-3.264,1.74-5.179,3.655-5.179,5.222,0,.739.435,1.392,1.436,2a5.234,5.234,0,0,0,2.786.957c.74,0,.957-.391.957-1.828Zm24.109-8.791a37.161,37.161,0,0,0-8.7-9.4l4.091-2.742a36.922,36.922,0,0,1,8.617,8.922Z" transform="translate(640 4210)" fill="#1a1a1a"/>
    <path id="パス_179" data-name="パス 179" d="M7.572,234.214a50.51,50.51,0,0,0-.348,6.614,81.388,81.388,0,0,0,.827,11.663c.74,4.526,2.132,7.311,3.525,7.311.652,0,1.262-.652,1.784-1.871a32.07,32.07,0,0,0,2.307-7.877,21.484,21.484,0,0,0,4.351,3.96c-2.262,8.486-4.787,12.012-8.486,12.012-2.915,0-5.266-2.133-7.006-6.311C2.742,255.363,1.959,249.053,1.784,237a20.628,20.628,0,0,0-.174-2.785Zm20.584,1.958c5.483,6.571,8.53,13.839,9.792,23.413l-5.4,2.045a44.083,44.083,0,0,0-2.786-12.577,37.966,37.966,0,0,0-6.179-10.7Z" transform="translate(640 4210)" fill="#1a1a1a"/>
    <path id="パス_180" data-name="パス 180" d="M11.924,295.057a39.7,39.7,0,0,0-.521,5.875c-.174,4.047-.436,12.881-.436,15.971,0,4.134.262,5.7,1.132,7.007,1,1.436,3.09,2.263,5.831,2.263,4.7,0,8.486-2.655,10.531-7.442a29.116,29.116,0,0,0,2-7.311,18.811,18.811,0,0,0,5.266,3.351c-1.741,5.875-3.046,8.7-5.179,11.1-3.264,3.7-7.572,5.527-13.056,5.527a14.184,14.184,0,0,1-7.615-1.915c-3-2-4.265-5.353-4.265-11.184,0-2.263.087-6.615.348-17.538.044-1.3.044-2.22.044-2.828a21.734,21.734,0,0,0-.174-2.96Z" transform="translate(640 4210)" fill="#1a1a1a"/>
    <path id="パス_181" data-name="パス 181" d="M7.572,361.3a50.511,50.511,0,0,0-.348,6.614,81.388,81.388,0,0,0,.827,11.663c.74,4.526,2.132,7.311,3.525,7.311.652,0,1.262-.652,1.784-1.871a32.07,32.07,0,0,0,2.307-7.877,21.484,21.484,0,0,0,4.351,3.96c-2.262,8.486-4.787,12.012-8.486,12.012-2.915,0-5.266-2.133-7.006-6.311-1.784-4.352-2.567-10.662-2.742-22.716A20.628,20.628,0,0,0,1.61,361.3Zm20.584,1.958c5.483,6.571,8.53,13.839,9.792,23.413l-5.4,2.045a44.084,44.084,0,0,0-2.786-12.577,37.966,37.966,0,0,0-6.179-10.7Z" transform="translate(640 4210)" fill="#1a1a1a"/>
    <path id="パス_182" data-name="パス 182" d="M38.731,427.623a7.354,7.354,0,1,1-7.354-7.354,7.382,7.382,0,0,1,7.354,7.354m-11.314,0a3.96,3.96,0,1,0,3.96-3.96,3.984,3.984,0,0,0-3.96,3.96" transform="translate(640 4210)" fill="#1a1a1a"/>
    <line id="線_83" data-name="線 83" y1="126" transform="translate(656.5 4218.5)" fill="none" stroke="#000" stroke-width="1"/>
  </g>
</svg>
