<svg xmlns="http://www.w3.org/2000/svg" width="655" height="136" viewBox="0 0 655 136">
  <g id="グループ_266" data-name="グループ 266" transform="translate(-356 -3647)">
    <rect id="長方形_19" data-name="長方形 19" width="654" height="41" transform="translate(357 3648)" fill="#fafafa"/>
    <path id="パス_187" data-name="パス 187" d="M-1.218-10.514A16.114,16.114,0,0,0-2.87-11.872l-.658.686c.6.476,1.148.952,1.6,1.386Zm-7.77,3.64C-9.24-4.844-9.674-2.422-13.51-.42A4.427,4.427,0,0,1-12.474.742C-10-.784-8.092-2.436-7.518-6.874h3.052A44.938,44.938,0,0,1-4.8-2.184c-.1.742-.154,1.036-.616,1.036H-7.056A4.692,4.692,0,0,1-6.65.308C-3.808.126-3.626-.1-3.43-1.414A58.456,58.456,0,0,0-2.968-8.12H-7.42c.042-.812.056-.952.084-2.94H-8.862v2.1c0,.238,0,.448-.028.84h-3.458v1.246Zm4.3-3.08c.532.448,1.064.966,1.5,1.414l.686-.672a19.536,19.536,0,0,0-1.582-1.414Zm14.84.07H2.674V-8.61H9.45C7.056-4.27,4.858-2.408,1.232-.9A3.193,3.193,0,0,1,2.212.378a17.652,17.652,0,0,0,5.81-4.466A34.061,34.061,0,0,1,11.844.448L13.09-.5c-.868-1.078-1.288-1.61-2.03-2.422C10.766-3.248,9.2-4.788,8.848-5.138a18.867,18.867,0,0,0,1.33-1.988c.154-.266.868-1.554,1.05-1.848l-.9-.98Z" transform="translate(438 3673)"/>
    <path id="パス_186" data-name="パス 186" d="M-6.2-9.436V0h1.6V-9.436Zm4.522,0V0h1.6V-4.27h4.76V0h1.6V-9.436h-1.6v3.808H-.084V-9.436Z" transform="translate(601 3673)"/>
    <path id="パス_185" data-name="パス 185" d="M-58.156-11.326v2.87h-6.118v1.274h5.754A17.165,17.165,0,0,1-65.058-2.03a4.525,4.525,0,0,1,.966,1.26,18.979,18.979,0,0,0,5.936-4.788v4.522c0,.168-.042.252-.252.252h-1.428a2.787,2.787,0,0,1,.49,1.456c2.212-.168,2.618-.35,2.618-1.26V-7.182h3.85V-8.456h-3.85v-2.87Zm8.5,5.25v1.4H-38.57v-1.4Zm25.088-5.418c.49.42.994.868,1.4,1.232l.644-.63c-.42-.392-.91-.854-1.4-1.232Zm.938,1.666a15.625,15.625,0,0,0-1.442-1.246l-.574.574A14.6,14.6,0,0,1-24.22-9.212Zm-1.96.182h-9.044V-8.33h8.456a13.267,13.267,0,0,1-2.24,4.354A9.384,9.384,0,0,1-34.006-.644a3.2,3.2,0,0,1,.8,1.33,11.391,11.391,0,0,0,7.756-6.93c.154-.35.826-2.156.994-2.562l-.994-.9ZM-15.33-8.2a23.133,23.133,0,0,0-3.318-2.436L-19.5-9.534a21.882,21.882,0,0,1,3.178,2.506ZM-18.816.532c4.942-2.3,7.1-3.976,10.164-7.742A3.778,3.778,0,0,1-9.66-8.26a23.335,23.335,0,0,1-2,2.366,18.9,18.9,0,0,1-7.9,4.886ZM5.362-11.816A8.616,8.616,0,0,0,2.912-8.5a8.532,8.532,0,0,0-.658,3.164,8.513,8.513,0,0,0,.574,3.01A8.454,8.454,0,0,0,5.292,1.12L6.02.42a7.484,7.484,0,0,1-1.9-2.6A7.532,7.532,0,0,1,3.444-5.32a7.652,7.652,0,0,1,2.6-5.768Zm15.946,1.372c-.448-.434-1.05-.924-1.61-1.372l-.644.686a18.957,18.957,0,0,1,1.512,1.4Zm-7.364,1.68c.266-.56.56-1.162.812-1.68l-1.442-.5a13.639,13.639,0,0,1-4.55,6.384,3.171,3.171,0,0,1,1.176.91,16.662,16.662,0,0,0,3.374-3.962h4.074a9.926,9.926,0,0,1-7.8,7.07,3.563,3.563,0,0,1,.77,1.3,13.152,13.152,0,0,0,4.06-1.9A10.566,10.566,0,0,0,17.444-4.48a19.935,19.935,0,0,0,1.61-3.528L18.2-8.862l-.21.1Zm3.892-1.12a16,16,0,0,1,1.5,1.372l.658-.658a15.274,15.274,0,0,0-1.54-1.386ZM31.5-11.018c0,5.712,0,6.3-.252,7.35-.63,2.338-3.066,2.926-4.382,3.234A3.91,3.91,0,0,1,27.538.882a8.864,8.864,0,0,0,4.046-2.254,5.659,5.659,0,0,0,1.26-3.752c.056-.84.07-1.2.07-5.894Zm-5.768.616v6.874H27.2V-10.4ZM44.3-10.794v9.772l-.2.21L45,.2a20.909,20.909,0,0,0,5.712-5.474,10.454,10.454,0,0,1-.994-.854,16.919,16.919,0,0,1-4.046,4.186v-8.848Zm-3.472.924c0,5.026-.056,7.294-3.22,9.282A3.992,3.992,0,0,1,38.486.574a8.06,8.06,0,0,0,3.066-3.808c.6-1.61.644-3.43.714-6.636Zm11.914-1.19a7.594,7.594,0,0,1,2.576,5.7A7.427,7.427,0,0,1,52.724.42l.756.77A8.748,8.748,0,0,0,54.852-.294a8.466,8.466,0,0,0,1.666-5.04,8.371,8.371,0,0,0-1.68-4.97,8.158,8.158,0,0,0-1.372-1.456Z" transform="translate(770 3673)"/>
    <path id="パス_184" data-name="パス 184" d="M-59.346-11.578l-.028,1.33h-5.544v1.106H-59.4l-.028.966h-2.254v6.664h7.42V-8.176h-3.892l.056-.966h5.25v-1.106h-5.194l.07-1.316Zm3.864,6.258v.9h-5v-.9Zm0-1.82v.882h-5V-7.14Zm0,3.626v1.008h-5V-3.514Zm-8.89-4.41V.924H-63.1V.448H-52.85V-.588H-63.1V-7.924Zm19.516-3.486c.014,3.374.028,5.768-.924,7.49-.728,1.33-1.834,2.576-4.7,3.654a3.819,3.819,0,0,1,.91,1.12c3.78-1.6,4.718-3.486,5.488-5.39A11.536,11.536,0,0,0-38.724.98a2.372,2.372,0,0,1,.994-1.3,9.109,9.109,0,0,1-5.1-4.424A18.49,18.49,0,0,1-43.61-6.5a32.545,32.545,0,0,0,.2-3.668c.014-.392.028-.784.028-1.246Zm4.928,2.338c-.8,1.106-1.722,2.268-2.744,3.472q.5.441.966.882c1.036-1.176,2.058-2.408,2.814-3.416ZM-47.8-8.96a11.47,11.47,0,0,1-1.526,3.738l1.092.644A11.986,11.986,0,0,0-46.536-8.5Zm23.758-2.856A8.617,8.617,0,0,0-26.488-8.5a8.532,8.532,0,0,0-.658,3.164,8.513,8.513,0,0,0,.574,3.01A8.454,8.454,0,0,0-24.108,1.12l.728-.7a7.484,7.484,0,0,1-1.9-2.6,7.532,7.532,0,0,1-.672-3.136,7.652,7.652,0,0,1,2.6-5.768Zm5.768.322v1.414h-2.394V-9h1.988a12,12,0,0,1-2.6,2.38,3.922,3.922,0,0,1,.84.994A14.106,14.106,0,0,0-18.27-7.84v2.618h1.218V-7.378a9.273,9.273,0,0,0,1.232.756l.574-.994a14.188,14.188,0,0,1-1.806-1.022V-9h1.778V-10.08h-1.778v-1.414Zm5.768.042v1.372H-14.49V-9h1.736a8.949,8.949,0,0,1-2.814,2.38,3.894,3.894,0,0,1,.812.924A8.223,8.223,0,0,0-12.5-7.574v2.352h1.19V-7.644A11,11,0,0,0-9.2-5.656a4.331,4.331,0,0,1,.952-.938A8.642,8.642,0,0,1-10.85-9h2.03V-10.08h-2.492v-1.372ZM-15.75-5.278c-.056,1.918-.224,4.312-5.334,5.138a2.84,2.84,0,0,1,.56,1.19c1.61-.42,4.662-1.2,5.628-3.794C-13.762-.6-12.054.392-9.184.994A2,2,0,0,1-8.6-.238c-1.82-.28-4-.84-5.348-2.87a5.138,5.138,0,0,1-.546-1.064c.042-.392.112-.826.14-1.106Zm4.746.56c-.56.574-1.3,1.3-1.876,1.792.224.238.574.616.784.9.448-.364,1.512-1.316,1.974-1.778Zm-7.77.028a9.355,9.355,0,0,1-1.12,2.254l1.092.546a15.161,15.161,0,0,0,1.12-2.38Zm17.136-6.328c.21.7.5,1.526.7,2a17.185,17.185,0,0,1-1.862.1c-.406,0-.812-.014-1.5-.042l-.028,1.176A23.4,23.4,0,0,0-.49-7.952c.21.448.448.952.616,1.246a31.939,31.939,0,0,1-3.78.252A13.613,13.613,0,0,1-5.5-6.58L-5.516-5.4c.616.042,1.064.056,1.428.056A38.907,38.907,0,0,0,.686-5.7,15.256,15.256,0,0,0,1.862-4.13,11.05,11.05,0,0,0-.182-4.48C-.42-4.494-.63-4.494-.84-4.494c-2.646,0-3.906,1.176-3.906,2.478A2.183,2.183,0,0,0-3.29-.042,11.487,11.487,0,0,0,.644.49,25.707,25.707,0,0,0,3.7.322l-.07-1.26A20.143,20.143,0,0,1,.2-.644,12.557,12.557,0,0,1-2.282-.882c-.266-.042-1.2-.266-1.2-1.036,0-.392.252-1.61,2.968-1.61a9.272,9.272,0,0,1,3.57.784l.714-1.064A10.265,10.265,0,0,1,2-5.894,24.837,24.837,0,0,0,5.166-6.72l-.28-1.162a22.617,22.617,0,0,1-3.514.98c-.14-.28-.392-.784-.56-1.176A25,25,0,0,0,3.766-8.75l-.28-1.19a29.415,29.415,0,0,1-3.094.756,17.334,17.334,0,0,1-.63-2.1Zm15.582-.392c.014,3.374.028,5.768-.924,7.49-.728,1.33-1.834,2.576-4.7,3.654a3.819,3.819,0,0,1,.91,1.12c3.78-1.6,4.718-3.486,5.488-5.39A11.536,11.536,0,0,0,20.076.98a2.372,2.372,0,0,1,.994-1.3,9.109,9.109,0,0,1-5.1-4.424A18.49,18.49,0,0,1,15.19-6.5a32.545,32.545,0,0,0,.2-3.668c.014-.392.028-.784.028-1.246Zm4.928,2.338C18.074-7.966,17.15-6.8,16.128-5.6q.5.441.966.882c1.036-1.176,2.058-2.408,2.814-3.416ZM11-8.96A11.47,11.47,0,0,1,9.478-5.222l1.092.644A11.986,11.986,0,0,0,12.264-8.5Zm17.22,7.714c0-.1.07-.91,1.386-.91a4.439,4.439,0,0,1,1.554.294c0,.154.014.28.014.392a.932.932,0,0,1-.392.868,1.74,1.74,0,0,1-.966.252C29.218-.35,28.224-.56,28.224-1.246Zm2.856-5.5A11.058,11.058,0,0,0,31.01-5.5c0,.378.126,2.142.14,2.548a6.7,6.7,0,0,0-1.568-.182c-2.128,0-2.59,1.26-2.59,1.876,0,1.176,1.526,1.946,2.9,1.946A4.382,4.382,0,0,0,31.248.462,1.609,1.609,0,0,0,32.41-1.344a21.641,21.641,0,0,1,2.31,1.4l.742-1.316A22.706,22.706,0,0,0,32.4-2.618c-.056-.994-.1-1.96-.1-2.408a7.021,7.021,0,0,1,.154-1.624Zm-3.99-4.564c-.21.868-.434,1.694-.672,2.436a6.451,6.451,0,0,1-.952.056,10.312,10.312,0,0,1-1.582-.126l-.014,1.26c.448.042.854.056,1.218.056.336,0,.63-.014.924-.042A34.618,34.618,0,0,1,23.072-1.2l1.2.686a50.972,50.972,0,0,0,3.178-7.266c.714-.1,1.568-.224,2.38-.392L29.778-9.45c-.616.14-1.3.28-1.918.378.21-.546.476-1.26.644-1.848Zm8.162,3.444a23.122,23.122,0,0,0-4.466-1.26L30.478-7.98a21.219,21.219,0,0,1,4.256,1.358ZM47.8-11.382c.476.462.994,1.064,1.428,1.568l.826-.644c-.434-.49-1.078-1.148-1.5-1.526ZM46.4-10.36A19.708,19.708,0,0,1,47.74-8.708l.77-.616a17.106,17.106,0,0,0-1.386-1.6Zm-4.1-.854c0,3.29,0,3.584.364,5.222-2.422,1.148-3.542,2.086-3.542,3.738a2.523,2.523,0,0,0,.77,1.736C41.048.518,43.918.532,45.15.532c1.54,0,2.716-.07,3.85-.168L48.958-.9a24.22,24.22,0,0,1-3.752.266c-3.892,0-4.844-.5-4.844-1.736,0-.672.336-1.2,1.26-1.792,1.652-1.064,3.864-1.624,7.014-2.31L48.23-7.784c-1.582.448-3.038.9-4.452,1.4A10.767,10.767,0,0,1,43.61-8.12c0-.616.028-1.008.14-3.122Zm10.444.154a7.594,7.594,0,0,1,2.576,5.7A7.427,7.427,0,0,1,52.724.42l.756.77A8.748,8.748,0,0,0,54.852-.294a8.466,8.466,0,0,0,1.666-5.04,8.371,8.371,0,0,0-1.68-4.97,8.158,8.158,0,0,0-1.372-1.456Z" transform="translate(929 3673)"/>
    <line id="線_75" data-name="線 75" x2="654" transform="translate(356.5 3688.5)" fill="none" stroke="#000" stroke-width="1"/>
    <line id="線_77" data-name="線 77" x2="654" transform="translate(356.5 3782.5)" fill="none" stroke="#000" stroke-width="1"/>
    <line id="線_76" data-name="線 76" x2="654" transform="translate(356.5 3647.5)" fill="none" stroke="#000" stroke-width="1"/>
    <line id="線_78" data-name="線 78" y2="135" transform="translate(520.5 3647.5)" fill="none" stroke="#000" stroke-width="1"/>
    <line id="線_82" data-name="線 82" y2="135" transform="translate(356.5 3647.5)" fill="none" stroke="#000" stroke-width="1"/>
    <line id="線_79" data-name="線 79" y2="135" transform="translate(683.5 3647.5)" fill="none" stroke="#000" stroke-width="1"/>
    <line id="線_80" data-name="線 80" y2="135" transform="translate(847.5 3647.5)" fill="none" stroke="#000" stroke-width="1"/>
    <line id="線_81" data-name="線 81" y2="135" transform="translate(1010.5 3647.5)" fill="none" stroke="#000" stroke-width="1"/>
    <g id="グループ_262" data-name="グループ 262" transform="translate(-44.125 -246.125)">
      <g id="楕円形_6" data-name="楕円形 6" transform="translate(466.125 3963.125)" fill="#fff" stroke="#000" stroke-width="2">
        <circle cx="16" cy="16" r="16" stroke="none"/>
        <circle cx="16" cy="16" r="15" fill="none"/>
      </g>
      <g id="楕円形_7" data-name="楕円形 7" transform="translate(471.125 3968.125)" fill="#fff" stroke="#000" stroke-width="2">
        <circle cx="11" cy="11" r="11" stroke="none"/>
        <circle cx="11" cy="11" r="10" fill="none"/>
      </g>
    </g>
    <g id="グループ_263" data-name="グループ 263" transform="translate(118.875 -246.125)">
      <g id="楕円形_6-2" data-name="楕円形 6" transform="translate(466.125 3963.125)" fill="#fff" stroke="#000" stroke-width="2">
        <circle cx="16" cy="16" r="16" stroke="none"/>
        <circle cx="16" cy="16" r="15" fill="none"/>
      </g>
      <g id="楕円形_7-2" data-name="楕円形 7" transform="translate(471.125 3968.125)" fill="#fff" stroke="#000" stroke-width="2">
        <circle cx="11" cy="11" r="11" stroke="none"/>
        <circle cx="11" cy="11" r="10" fill="none"/>
      </g>
    </g>
    <g id="グループ_264" data-name="グループ 264" transform="translate(279.875 -246.125)">
      <g id="楕円形_6-3" data-name="楕円形 6" transform="translate(466.125 3963.125)" fill="#fff" stroke="#000" stroke-width="2">
        <circle cx="16" cy="16" r="16" stroke="none"/>
        <circle cx="16" cy="16" r="15" fill="none"/>
      </g>
      <g id="楕円形_7-3" data-name="楕円形 7" transform="translate(471.125 3968.125)" fill="#fff" stroke="#000" stroke-width="2">
        <circle cx="11" cy="11" r="11" stroke="none"/>
        <circle cx="11" cy="11" r="10" fill="none"/>
      </g>
    </g>
    <g id="グループ_265" data-name="グループ 265" transform="translate(443.875 -246.125)">
      <g id="楕円形_6-4" data-name="楕円形 6" transform="translate(466.125 3963.125)" fill="#fff" stroke="#000" stroke-width="2">
        <circle cx="16" cy="16" r="16" stroke="none"/>
        <circle cx="16" cy="16" r="15" fill="none"/>
      </g>
      <g id="楕円形_7-4" data-name="楕円形 7" transform="translate(471.125 3968.125)" fill="#fff" stroke="#000" stroke-width="2">
        <circle cx="11" cy="11" r="11" stroke="none"/>
        <circle cx="11" cy="11" r="10" fill="none"/>
      </g>
    </g>
  </g>
</svg>
