<?xml version="1.0" encoding="UTF-8"?>
<svg id="_レイアウト" xmlns="http://www.w3.org/2000/svg" version="1.1" viewBox="0 0 204.1109 62.17">
  <!-- Generator: Adobe Illustrator 29.6.1, SVG Export Plug-In . SVG Version: 2.1.1 Build 9)  -->
  <defs>
    <style>
      .st0 {
        fill: #231815;
      }
    </style>
  </defs>
  <path class="st0" d="M140.9305,40.16c-6.44,0-13.24-.02-20.45-.04-6.02-.02-12.21-.04-18.42-.04-6.22,0-12.4.02-18.42.04-7.2.02-14,.04-20.45.04-12.24,0-20.52-.07-26.85-.24-1.61-.04-2.63-.12-3.66-.29-5.87-.93-11.27-4.06-15.22-8.8-2.93-3.52-5.24-7.67-8.74-13.95,0-.01-.53-.98-.72-1.29-.89-1.49-1.82-2.35-2.91-2.7-1.03-.33-1.93-.34-3.71-.37h-.58c-.4-.02-.76-.37-.77-.78C-.0195,10.12.0005,7.9.0304,6.42c0-.39.34-.72.76-.77.32-.03,1.24-.07,2.03-.07.27,0,.53,0,.75.02,5.1.25,7.54,1.68,10.07,5.86.88,1.45,1.89,3.25,2.97,5.15,1.8,3.18,3.66,6.47,5.16,8.66,3.78,5.55,10.31,7.7,14.76,7.86.39.01,1.31.02,2.11.03h.66c4.4.06,33.46.22,56.8.22h11.92c23.34,0,52.4-.16,56.8-.21h.66c.79-.02,1.72-.03,2.11-.04,4.45-.16,10.98-2.31,14.76-7.86,1.49-2.19,3.35-5.48,5.15-8.65,1.08-1.9,2.09-3.7,2.97-5.15,2.53-4.18,4.97-5.61,10.07-5.86.22-.01.47-.02.75-.02.79,0,1.7.04,2.03.07.42.04.75.38.76.77.03,1.49.05,3.71,0,5.32-.01.4-.37.76-.77.77h-.58c-1.78.04-2.67.05-3.71.38-1.09.35-2.02,1.2-2.91,2.7-.19.31-.71,1.28-.72,1.29-3.5,6.28-5.81,10.43-8.74,13.96-3.94,4.74-9.35,7.87-15.22,8.8-1.03.16-2.05.24-3.66.29-6.33.17-14.61.24-26.85.24l.01-.02ZM54.5105.69h-27.34c-.2,0-.37.16-.37.37v6.97c0,.2.16.37.37.37h8.08c.2,0,.37.16.37.37v17.93c0,.2.16.37.37.37h7.43c.2,0,.37-.16.37-.37V8.77c0-.2.16-.37.37-.37h6.13c1.1,0,1.73-.83,2.21-1.8.67-1.33,1.88-4.23,2.37-5.4.1-.24-.08-.51-.34-.51h-.02ZM63.5305.48h8.09c.15,0,.28.09.34.23l10.68,26.01c.07.16-.05.34-.23.34h-8.28c-.15,0-.29-.1-.34-.24l-1.19-3.24c-.05-.14-.19-.24-.34-.24h-9.49c-.15,0-.29.1-.34.24l-1.19,3.24c-.05.14-.19.24-.34.24h-8.13c-.17,0-.29-.18-.23-.34L63.2205.71c.06-.14.19-.23.34-.23h-.03ZM65.2105,16.46h4.59c.09,0,.14-.08.11-.16l-2.29-6.23c-.04-.11-.19-.11-.23,0l-2.29,6.23c-.03.08.03.16.11.16h0ZM104.2305,12.64L95.3505.82c-.07-.09-.18-.15-.29-.15h-7.55c-.2,0-.37.16-.37.37v25.65c0,.2.16.37.37.37h7.84c.2,0,.37-.16.37-.37v-12.05c0-.12.15-.17.22-.07l9.28,12.35c.07.09.18.15.29.15h7.14c.2,0,.37-.16.37-.37V1.05c0-.2-.16-.37-.37-.37h-7.84c-.2,0-.37.16-.37.37v11.53c0,.12-.15.17-.22.07l.01-.01ZM121.7105,7.91h10.64c.11,0,.16.13.09.2l-11.44,12.66c-.06.07-.09.16-.09.25v5.67c0,.2.16.37.37.37h23.41c.2,0,.37-.16.37-.37v-6.5c0-.2-.16-.37-.37-.37h-11.08c-.11,0-.16-.13-.09-.2l11.44-12.66c.06-.07.09-.16.09-.25V1.04c0-.2-.16-.37-.37-.37h-22.97c-.2,0-.37.16-.37.37v6.5c0,.2.16.37.37.37h0ZM178.0105,13.79v.08c0,7.71-6.22,13.87-14.28,13.87s-14.2-6.08-14.2-13.79v-.08c0-7.71,6.22-13.87,14.28-13.87s14.2,6.08,14.2,13.79ZM169.2105,13.86c0-3.15-2.12-6-5.48-6s-5.4,2.81-5.4,5.93v.08c0,3.15,2.12,6,5.48,6s5.4-2.81,5.4-5.93v-.08ZM33.1605,62.01h2.24v-6.73l2.89,4.39h.06l2.92-4.43v6.78h2.27v-10.38h-2.46l-2.73,4.39-2.73-4.39h-2.46v10.38-.01ZM46.6205,62.01h2.33l.95-2.33h4.39l.95,2.33h2.39l-4.45-10.46h-2.11l-4.45,10.46h0ZM50.7105,57.67l1.38-3.37,1.38,3.37h-2.76ZM60.7005,62.01h4.05c3.26,0,5.52-2.27,5.52-5.19v-.03c0-2.92-2.26-5.16-5.52-5.16h-4.05v10.38ZM64.7505,53.69c1.87,0,3.13,1.29,3.13,3.13v.03c0,1.84-1.26,3.1-3.13,3.1h-1.77v-6.26h1.77ZM73.7805,62.01h7.9v-2.03h-5.64v-2.18h4.89v-2.03h-4.89v-2.11h5.56v-2.03h-7.83v10.38h.01ZM91.2205,62.01h2.28v-10.38h-2.28v10.38ZM97.5805,62.01h2.25v-6.6l5.03,6.6h1.94v-10.38h-2.26v6.39l-4.86-6.39h-2.11v10.38h.01ZM117.7305,62.16c1.13,0,2.06-.33,2.7-.96.62-.62.98-1.54.98-2.77v-6.79h-2.34v6.69c0,1.2-.53,1.72-1.39,1.72-.73,0-1.3-.39-1.9-1.04l-1.44,1.6c.71.85,1.78,1.56,3.4,1.56l-.01-.01ZM124.1005,62.01h2.33l.95-2.33h4.39l.95,2.33h2.39l-4.45-10.46h-2.11l-4.45,10.46h0ZM128.1905,57.67l1.38-3.37,1.38,3.37h-2.76ZM138.1805,62.01h2.28v-3.11h1.74c2.33,0,4.2-1.25,4.2-3.65v-.03c0-2.12-1.5-3.59-3.97-3.59h-4.24v10.38h-.01ZM140.4705,56.86v-3.17h1.77c1.14,0,1.85.55,1.85,1.57v.03c0,.89-.67,1.57-1.81,1.57h-1.81ZM147.6405,62.01h2.33l.95-2.33h4.39l.95,2.33h2.39l-4.45-10.46h-2.11l-4.45,10.46h0ZM151.7305,57.67l1.38-3.37,1.38,3.37h-2.76ZM161.7205,62.01h2.25v-6.6l5.03,6.6h1.94v-10.38h-2.26v6.39l-4.86-6.39h-2.11v10.38h.01Z"/>
</svg>