<?xml version="1.0" encoding="UTF-8"?>
<svg id="_レイヤー_1" data-name="レイヤー 1" xmlns="http://www.w3.org/2000/svg" viewBox="0 0 425.2 167.78">
  <defs>
    <style>
      .cls-1 {
        fill: #231815;
      }
    </style>
  </defs>
  <path class="cls-1" d="M293.57,83.68c-13.42,0-27.59-.04-42.6-.08-12.54-.04-25.43-.07-38.38-.09-12.95.01-25.83.05-38.38.09-15,.04-29.18.08-42.6.08-25.49,0-42.74-.15-55.93-.5-3.35-.09-5.48-.25-7.63-.6-12.23-1.94-23.49-8.46-31.7-18.34-6.1-7.34-10.92-15.98-18.2-29.07-.01-.03-1.11-2.04-1.5-2.69-1.86-3.11-3.79-4.9-6.06-5.62-2.16-.68-4.01-.71-7.72-.77l-1.22-.02c-.83-.01-1.57-.76-1.6-1.59-.1-3.37-.07-8,0-11.09.02-.8.71-1.5,1.57-1.59.68-.07,2.58-.15,4.22-.15.57,0,1.11,0,1.56.03,10.62.53,15.72,3.5,20.98,12.21,1.83,3.03,3.94,6.76,6.19,10.72,3.75,6.62,7.63,13.47,10.74,18.04,7.87,11.56,21.48,16.05,30.74,16.38.81.03,2.74.05,4.39.07l1.37.02c9.17.11,69.72.44,118.34.44,4.27,0,8.43,0,12.42,0,4,0,8.15,0,12.42,0,48.63,0,109.17-.33,118.34-.44l1.37-.02c1.66-.02,3.59-.04,4.39-.07,9.27-.33,22.88-4.82,30.74-16.38,3.11-4.57,6.98-11.41,10.73-18.03,2.24-3.96,4.36-7.7,6.19-10.73,5.26-8.72,10.36-11.68,20.98-12.21.45-.02.99-.03,1.56-.03,1.65,0,3.55.08,4.22.15.87.09,1.56.79,1.58,1.59.07,3.1.1,7.73,0,11.09-.02.84-.77,1.58-1.6,1.59l-1.22.02c-3.7.06-5.56.09-7.72.77-2.28.72-4.2,2.51-6.06,5.62-.39.65-1.49,2.67-1.5,2.69-7.29,13.09-12.11,21.74-18.21,29.07-8.22,9.88-19.47,16.4-31.7,18.34-2.14.34-4.28.51-7.63.6-13.19.35-30.44.5-55.94.5ZM113.53,1.44h-56.97c-.42,0-.77.34-.77.77v14.52c0,.42.34.77.77.77h16.82c.42,0,.77.34.77.77v37.36c0,.42.34.77.77.77h15.47c.42,0,.77-.34.77-.77V18.25c0-.42.34-.77.77-.77h12.78c2.28,0,3.6-1.73,4.61-3.74,1.39-2.77,3.92-8.81,4.93-11.25.21-.5-.16-1.06-.71-1.06ZM132.32,1.01h16.85c.31,0,.59.19.71.47l22.24,54.19c.14.34-.11.7-.47.7h-17.25c-.32,0-.61-.2-.72-.5l-2.48-6.75c-.11-.3-.4-.5-.72-.5h-19.77c-.32,0-.61.2-.72.5l-2.48,6.75c-.11.3-.4.5-.72.5h-16.94c-.36,0-.61-.37-.47-.7L131.61,1.49c.12-.29.4-.47.71-.47ZM135.81,34.29h9.55c.18,0,.3-.18.24-.34l-4.78-12.98c-.08-.22-.4-.22-.48,0l-4.78,12.98c-.06.17.06.34.24.34ZM217.11,26.34L198.61,1.71c-.14-.19-.37-.31-.61-.31h-15.72c-.42,0-.77.34-.77.77v53.44c0,.42.34.77.77.77h16.34c.42,0,.77-.34.77-.77v-25.11c0-.24.31-.35.46-.15l19.34,25.73c.14.19.37.31.61.31h14.88c.42,0,.77-.34.77-.77V2.17c0-.42-.34-.77-.77-.77h-16.34c-.42,0-.77.34-.77.77v24.01c0,.25-.31.35-.46.15ZM253.53,16.48h22.16c.22,0,.34.26.19.43l-23.84,26.37c-.13.14-.2.32-.2.51v11.82c0,.42.34.77.77.77h48.77c.42,0,.77-.34.77-.77v-13.55c0-.42-.34-.77-.77-.77h-23.08c-.22,0-.34-.26-.19-.43l23.84-26.37c.13-.14.2-.32.2-.51V2.17c0-.42-.34-.77-.77-.77h-47.85c-.42,0-.77.34-.77.77v13.55c0,.42.34.77.77.77ZM370.81,28.73v.16c0,16.07-12.97,28.89-29.74,28.89s-29.58-12.67-29.58-28.73v-.16c0-16.07,12.97-28.89,29.74-28.89s29.58,12.67,29.58,28.73ZM352.48,28.89c0-6.57-4.43-12.51-11.41-12.51s-11.26,5.86-11.26,12.35v.16c0,6.57,4.43,12.51,11.41,12.51s11.26-5.86,11.26-12.35v-.16ZM69.04,167.47h4.67v-14.03l6.03,9.15h.12l6.09-9.24v14.12h4.73v-21.63h-5.13l-5.68,9.15-5.68-9.15h-5.13v21.63ZM97.09,167.47h4.85l1.98-4.85h9.15l1.98,4.85h4.97l-9.27-21.78h-4.39l-9.27,21.78ZM105.61,158.42l2.87-7.01,2.87,7.01h-5.75ZM126.42,167.47h8.44c6.8,0,11.49-4.73,11.49-10.82v-.06c0-6.09-4.7-10.75-11.49-10.75h-8.44v21.63ZM134.86,150.14c3.89,0,6.52,2.69,6.52,6.52v.06c0,3.83-2.63,6.46-6.52,6.46h-3.68v-13.04h3.68ZM153.66,167.47h16.47v-4.23h-11.74v-4.54h10.2v-4.23h-10.2v-4.39h11.59v-4.23h-16.31v21.63ZM190.01,167.47h4.76v-21.63h-4.76v21.63ZM203.26,167.47h4.7v-13.75l10.48,13.75h4.05v-21.63h-4.7v13.32l-10.13-13.32h-4.39v21.63ZM245.23,167.78c2.35,0,4.29-.68,5.62-2.01,1.3-1.3,2.04-3.21,2.04-5.78v-14.15h-4.88v13.94c0,2.5-1.11,3.58-2.9,3.58-1.51,0-2.72-.8-3.96-2.16l-3,3.34c1.48,1.76,3.71,3.24,7.08,3.24ZM258.51,167.47h4.85l1.98-4.85h9.15l1.98,4.85h4.97l-9.27-21.78h-4.39l-9.27,21.78ZM267.03,158.42l2.87-7.01,2.87,7.01h-5.75ZM287.85,167.47h4.76v-6.49h3.61c4.85,0,8.74-2.6,8.74-7.6v-.06c0-4.42-3.12-7.48-8.28-7.48h-8.84v21.63ZM292.6,156.75v-6.61h3.68c2.38,0,3.86,1.14,3.86,3.28v.06c0,1.85-1.39,3.27-3.77,3.27h-3.77ZM307.55,167.47h4.85l1.98-4.85h9.15l1.98,4.85h4.97l-9.27-21.78h-4.39l-9.27,21.78ZM316.07,158.42l2.87-7.01,2.87,7.01h-5.75ZM336.89,167.47h4.7v-13.75l10.48,13.75h4.05v-21.63h-4.7v13.32l-10.13-13.32h-4.39v21.63Z"/>
</svg>