<svg xmlns="http://www.w3.org/2000/svg" xmlns:xlink="http://www.w3.org/1999/xlink" width="180" height="35.426" viewBox="0 0 180 35.426">
  <defs>
    <clipPath id="clip-path">
      <rect id="長方形_3" data-name="長方形 3" width="180" height="35.426" fill="none"/>
    </clipPath>
  </defs>
  <g id="グループ_3" data-name="グループ 3" clip-path="url(#clip-path)">
    <path id="パス_41" data-name="パス 41" d="M124.279,35.348q-8.519,0-18.033-.036c-5.31-.015-10.764-.031-16.245-.038s-10.936.022-16.247.038c-6.352.018-12.351.036-18.032.036-10.792,0-18.094-.065-23.679-.211a23.662,23.662,0,0,1-3.229-.252A22.009,22.009,0,0,1,15.4,27.121c-2.583-3.106-4.622-6.766-7.707-12.3-.005-.011-.47-.865-.634-1.14A4.84,4.84,0,0,0,4.487,11.3a10.805,10.805,0,0,0-3.267-.325L.7,10.962a.717.717,0,0,1-.676-.676C-.014,8.862,0,6.9.027,5.592a.727.727,0,0,1,.666-.675c.287-.03,1.091-.063,1.788-.063.241,0,.469,0,.659.012,4.5.225,6.655,1.48,8.882,5.17.773,1.28,1.67,2.864,2.619,4.539,1.588,2.8,3.23,5.7,4.547,7.637,3.329,4.894,9.091,6.793,13.014,6.932.341.012,1.158.021,1.859.028l.582.006c3.881.047,29.513.187,50.1.187,1.808,0,3.57,0,5.26,0s3.45,0,5.26,0c20.586,0,46.216-.14,50.1-.187l.581-.006c.7-.007,1.518-.016,1.859-.028,3.923-.139,9.684-2.038,13.014-6.932,1.317-1.935,2.958-4.832,4.543-7.633.951-1.676,1.848-3.26,2.622-4.543,2.227-3.69,4.386-4.946,8.882-5.17.19-.008.418-.012.659-.012.7,0,1.5.033,1.787.063a.727.727,0,0,1,.668.675c.029,1.313.041,3.273,0,4.695a.718.718,0,0,1-.678.676l-.515.009a10.8,10.8,0,0,0-3.267.325,4.832,4.832,0,0,0-2.566,2.38c-.165.275-.629,1.129-.634,1.137-3.087,5.541-5.125,9.2-7.707,12.308a22.013,22.013,0,0,1-13.421,7.763,23.631,23.631,0,0,1-3.228.252c-5.585.146-12.889.211-23.679.211" transform="translate(0 0.078)"/>
    <path id="パス_42" data-name="パス 42" d="M47.688.6H23.572a.324.324,0,0,0-.324.324V7.069a.324.324,0,0,0,.324.324h7.122a.324.324,0,0,1,.324.324V23.533a.324.324,0,0,0,.324.324h6.55a.324.324,0,0,0,.324-.324V7.717a.324.324,0,0,1,.324-.324H43.95c.966,0,1.524-.732,1.951-1.584.588-1.173,1.659-3.731,2.088-4.764a.324.324,0,0,0-.3-.447" transform="translate(0.371 0.01)"/>
    <path id="パス_43" data-name="パス 43" d="M54.988.623,45.572,23.562a.216.216,0,0,0,.2.3h7.173a.324.324,0,0,0,.3-.212L54.3,20.79a.323.323,0,0,1,.3-.211h8.368a.324.324,0,0,1,.3.211l1.051,2.857a.325.325,0,0,0,.3.212h7.3a.216.216,0,0,0,.2-.3L62.719.623a.324.324,0,0,0-.3-.2H55.288a.323.323,0,0,0-.3.2m1.676,13.741,2.022-5.5a.108.108,0,0,1,.2,0l2.022,5.5a.107.107,0,0,1-.1.145H56.766a.108.108,0,0,1-.1-.145" transform="translate(0.728 0.007)"/>
    <path id="パス_44" data-name="パス 44" d="M90.7,11.14,82.871.716a.321.321,0,0,0-.259-.13H75.956a.324.324,0,0,0-.324.324V23.534a.323.323,0,0,0,.324.323h6.918a.323.323,0,0,0,.324-.323V12.9a.108.108,0,0,1,.194-.065l8.188,10.89a.32.32,0,0,0,.259.129h6.3a.323.323,0,0,0,.323-.323V.91a.324.324,0,0,0-.323-.324H91.218a.324.324,0,0,0-.324.324V11.075a.108.108,0,0,1-.194.065" transform="translate(1.209 0.01)"/>
    <path id="パス_45" data-name="パス 45" d="M105.651,6.968h9.38a.108.108,0,0,1,.08.18L105.019,18.312a.325.325,0,0,0-.083.217v5a.324.324,0,0,0,.324.324h20.648a.324.324,0,0,0,.324-.324V17.8a.324.324,0,0,0-.324-.324h-9.771a.108.108,0,0,1-.08-.181L126.148,6.13a.321.321,0,0,0,.084-.217v-5a.324.324,0,0,0-.324-.324H105.651a.324.324,0,0,0-.324.324V6.644a.324.324,0,0,0,.324.324" transform="translate(1.677 0.01)"/>
    <path id="パス_46" data-name="パス 46" d="M142.378,0a12.292,12.292,0,0,0-12.59,12.23V12.3A12.562,12.562,0,0,0,154.9,12.23v-.067A12.181,12.181,0,0,0,142.378,0m4.766,12.3c0,2.747-1.841,5.227-4.766,5.227-2.959,0-4.833-2.513-4.833-5.294v-.067c0-2.747,1.841-5.227,4.767-5.227,2.959,0,4.832,2.514,4.832,5.294Z" transform="translate(2.074 0.001)"/>
  </g>
</svg>
