<svg id="グループ_28" data-name="グループ 28" xmlns="http://www.w3.org/2000/svg" xmlns:xlink="http://www.w3.org/1999/xlink" width="268.065" height="178.642" viewBox="0 0 268.065 178.642">
  <defs>
    <clipPath id="clip-path">
      <rect id="長方形_19" data-name="長方形 19" width="268.065" height="178.642" fill="none"/>
    </clipPath>
  </defs>
  <g id="グループ_16" data-name="グループ 16" transform="translate(0 0)" clip-path="url(#clip-path)">
    <path id="パス_101" data-name="パス 101" d="M218.266,118.147a1.372,1.372,0,0,1-.256-.024A1.392,1.392,0,0,1,216.9,116.5a65.261,65.261,0,0,0,1.092-11.889c0-43.231-42.843-78.4-95.507-78.4s-95.509,35.17-95.509,78.4A65.258,65.258,0,0,0,28.063,116.5a1.393,1.393,0,0,1-2.74.51,68.222,68.222,0,0,1-1.139-12.4c0-44.766,44.1-81.186,98.3-81.186s98.294,36.42,98.294,81.186a68.22,68.22,0,0,1-1.139,12.4,1.394,1.394,0,0,1-1.368,1.138" transform="translate(11.552 11.189)"/>
    <path id="パス_102" data-name="パス 102" d="M201.158,112.41a57.8,57.8,0,0,0,.969-10.553c0-38.294-37.7-69.336-84.2-69.336s-84.2,31.043-84.2,69.336a57.8,57.8,0,0,0,.971,10.553" transform="translate(16.107 15.534)" fill="#fcd25b"/>
    <path id="パス_103" data-name="パス 103" d="M201.609,114.252a1.372,1.372,0,0,1-.256-.024,1.392,1.392,0,0,1-1.116-1.624,56.618,56.618,0,0,0,.947-10.3c0-37.465-37.148-67.945-82.81-67.945s-82.81,30.48-82.81,67.945a56.534,56.534,0,0,0,.946,10.3,1.393,1.393,0,0,1-2.74.51,59.355,59.355,0,0,1-.993-10.808c0-39,38.4-70.73,85.6-70.73s85.6,31.73,85.6,70.73a59.452,59.452,0,0,1-.993,10.808,1.394,1.394,0,0,1-1.368,1.138" transform="translate(15.657 15.083)"/>
    <path id="パス_104" data-name="パス 104" d="M98.3,35.94a6.261,6.261,0,0,0-6.261-6.261H64.394a6.242,6.242,0,0,0-5.277,9.606H56.739a6.918,6.918,0,0,0,0,13.837H87.293a6.892,6.892,0,0,0,5.558-11A6.239,6.239,0,0,0,98.3,35.94" transform="translate(23.798 14.177)" fill="#ffaeab"/>
    <path id="パス_105" data-name="パス 105" d="M87.744,54.966H57.19a8.311,8.311,0,1,1,0-16.622h.259a7.576,7.576,0,0,1-.259-1.953,7.661,7.661,0,0,1,7.654-7.653H92.491a7.636,7.636,0,0,1,2.905,14.7,8.136,8.136,0,0,1,.659,3.212,8.321,8.321,0,0,1-8.312,8.312M57.19,41.129a5.526,5.526,0,0,0,0,11.051H87.744a5.533,5.533,0,0,0,5.526-5.526A5.467,5.467,0,0,0,92.181,43.4l-1.4-1.9,2.341-.306a4.853,4.853,0,0,0-.629-9.667H64.844a4.849,4.849,0,0,0-4.1,7.468L62.1,41.129Z" transform="translate(23.347 13.727)"/>
    <path id="パス_106" data-name="パス 106" d="M140.8,39.285h-2.378a6.241,6.241,0,0,0-5.275-9.6H105.5a6.245,6.245,0,0,0-.811,12.439,6.891,6.891,0,0,0,5.557,11H140.8a6.918,6.918,0,0,0,0-13.837" transform="translate(47.405 14.177)" fill="#5cffff"/>
    <path id="パス_107" data-name="パス 107" d="M141.255,54.966H110.7a8.322,8.322,0,0,1-8.312-8.312,8.13,8.13,0,0,1,.659-3.212,7.636,7.636,0,0,1,2.907-14.7H133.6a7.661,7.661,0,0,1,7.653,7.653A7.512,7.512,0,0,1,141,38.343h.26a8.311,8.311,0,1,1,0,16.622m-35.3-23.443a4.852,4.852,0,0,0-.631,9.665l2.341.307-1.4,1.9a5.475,5.475,0,0,0-1.088,3.258,5.531,5.531,0,0,0,5.525,5.525h30.554a5.525,5.525,0,0,0,0-11.05h-4.915l1.361-2.14a4.849,4.849,0,0,0-4.1-7.467Z" transform="translate(46.955 13.727)"/>
    <path id="パス_108" data-name="パス 108" d="M91.39,63.527c0,.387-.006.758-.031,1.139s.337.81.285,1.188-.049.791-.127,1.164-.294.736-.4,1.1-.479.658-.607,1.018-.371.666-.525,1.018-.231.729-.406,1.068-.194.77-.395,1.1-.711.442-.932.755-.074.9-.316,1.2-.8.318-1.062.6-.263.817-.544,1.08-.8.247-1.1.489-.315.857-.628,1.079-.637.463-.965.663-.9-.024-1.24.154-.551.619-.9.773-.789.093-1.151.222-.627.579-1,.684-.8,0-1.178.077-.726.369-1.108.421-.814-.426-1.2-.4-.749.525-1.136.525-.752-.544-1.133-.57-.758,0-1.136-.047-.794.109-1.167.033-.819.066-1.187-.037-.587-.7-.947-.827-.764-.129-1.116-.281-.8-.112-1.139-.288-.578-.547-.9-.746-.788-.207-1.1-.429-.439-.695-.737-.937-.482-.6-.762-.857-.693-.378-.955-.659-.563-.525-.807-.823-.22-.783-.442-1.1-.7-.443-.906-.771-.352-.683-.528-1.024-.395-.663-.548-1.017-.006-.813-.136-1.176-.371-.671-.474-1.043-.257-.72-.335-1.1.115-.783.062-1.164-.307-.726-.332-1.111-.161-.758-.161-1.145.334-.752.361-1.132-.015-.76.037-1.138-.112-.794-.035-1.167.068-.782.171-1.15.115-.783.244-1.144.344-.706.5-1.057.35-.7.526-1.037.378-.678.578-1.006.563-.551.785-.864.173-.844.415-1.141.882-.254,1.145-.533.346-.733.625-.994.771-.275,1.068-.517.452-.658.767-.879.494-.659.822-.859.634-.477.975-.655.8-.136,1.154-.29.674-.409,1.036-.539.823.046,1.194-.059.721-.263,1.1-.341.737-.239,1.12-.291.767-.075,1.154-.1.768.021,1.156.021.751.328,1.132.355.774-.137,1.153-.086.832-.263,1.207-.185.782.132,1.15.235.715.347,1.076.476.659.445,1.011.6.68.358,1.021.533.789.174,1.117.374.395.794.708,1.015.694.332.992.575.737.324,1.018.585.591.507.853.788.284.771.526,1.068.557.532.779.847.307.7.508,1.034.839.411,1.017.754.3.728.454,1.082.027.822.155,1.185.325.7.429,1.073.071.771.149,1.15-.035.771.016,1.154.315.728.341,1.114-.146.764-.146,1.151" transform="translate(27.625 22.271)" fill="#fff"/>
    <path id="パス_109" data-name="パス 109" d="M28.059,94.338h2.268v11.891a6.1,6.1,0,1,0,12.2,0V94.338h2.268v11.953a8.367,8.367,0,0,1-16.735-.062Z" transform="translate(13.403 45.062)"/>
    <path id="パス_110" data-name="パス 110" d="M71.077,113.325H68.808v-8.183a6.1,6.1,0,1,0-12.2,0v8.183H54.342V105.08a8.367,8.367,0,0,1,16.735.062Z" transform="translate(25.957 46.211)"/>
    <rect id="長方形_18" data-name="長方形 18" width="2.268" height="16.429" transform="translate(119.138 143.107)"/>
    <path id="パス_111" data-name="パス 111" d="M111.526,106.224h2.3a8.411,8.411,0,0,1-10.917,6.865,8.216,8.216,0,0,1-5.393-5.4,8.4,8.4,0,1,1,16.31-3.736h-2.3a6.129,6.129,0,1,0,0,2.268" transform="translate(46.392 46.202)"/>
    <path id="パス_112" data-name="パス 112" d="M131.752,96.7v2.268a6.143,6.143,0,0,0-6.1,6.129v8.247h-2.267V105.1a8.4,8.4,0,0,1,8.367-8.4" transform="translate(58.937 46.191)"/>
    <path id="パス_113" data-name="パス 113" d="M160.771,113.334H158.5V110.85a8.389,8.389,0,1,1,2.268-5.761Zm-2.268-8.245a6.115,6.115,0,1,0-6.1,6.129,6.1,6.1,0,0,0,6.1-6.129" transform="translate(68.787 46.202)"/>
    <path id="パス_114" data-name="パス 114" d="M73.241,121.168a.6.6,0,0,1-.167.42.617.617,0,0,1-.431.2c-.353.019-.817.032-1.393.049s-1.215.028-1.915.041-1.419.024-2.151.035-1.441.013-2.117.013q-.641,0-1.206-.009c-.375,0-.717-.01-1.023-.018a.652.652,0,0,1-.44-.2.619.619,0,0,1-.173-.446.6.6,0,0,1,.2-.46.68.68,0,0,1,.465-.18c.251.009.544.015.878.015h1.073q.946,0,2.02-.009c.715-.006,1.416-.01,2.1-.022a.123.123,0,0,0,.126-.111c.037-.332.077-.7.118-1.086s.078-.767.111-1.133.049-.672.049-.915a1.288,1.288,0,0,0-.1-.576c-.071-.134-.239-.2-.508-.2h-.1a.687.687,0,0,0-.126.015c-.186.018-.48.037-.884.062s-.854.041-1.345.055-.962.021-1.408.021h-.381c-.126,0-.245,0-.356-.013a.591.591,0,0,1-.431-.2.609.609,0,0,1-.168-.43.623.623,0,0,1,.21-.476.655.655,0,0,1,.488-.18c.14.009.285.013.439.013h.467q.612,0,1.253-.021t1.17-.055c.353-.025.627-.041.822-.049a1.252,1.252,0,0,0,.146-.009c.052,0,.095-.006.133-.006a1.729,1.729,0,0,1,1.949,1.965q0,.388-.062,1.2c-.043.538-.1,1.194-.188,1.964v.027c0,.077.041.112.124.112l1.157-.027c.352-.009.65-.019.891-.028a.642.642,0,0,1,.683.653" transform="translate(29.722 55.077)"/>
    <path id="パス_115" data-name="パス 115" d="M79.631,122.516a.581.581,0,0,1-.39-.217.679.679,0,0,1-.154-.439.569.569,0,0,1,.223-.46.665.665,0,0,1,.5-.152c.306.035.674.062,1.107.075s.894.022,1.386.022c.547,0,1.119-.007,1.713-.022s1.176-.03,1.748-.049,1.105-.037,1.6-.056.926-.031,1.289-.041a.689.689,0,0,1,.683.683.591.591,0,0,1-.188.446.635.635,0,0,1-.452.18q-2.2-.013-3.935.056c-1.157.047-2.181.068-3.072.068-.39,0-.757,0-1.1-.019s-.663-.04-.96-.075m1.17-5.977a.609.609,0,0,1-.544-.6.626.626,0,0,1,.21-.473.58.58,0,0,1,.473-.17c.473.031.993.044,1.56.044s1.127-.01,1.713-.027l1.679-.058q.8-.029,1.414-.028a.583.583,0,0,1,.437.18.613.613,0,0,1,.174.446.574.574,0,0,1-.188.44.7.7,0,0,1-.437.188c-.4,0-.869.009-1.408.028s-1.1.037-1.7.053-1.169.031-1.727.031c-.306,0-.6-.006-.878-.015s-.538-.024-.779-.043" transform="translate(37.777 55.041)"/>
    <path id="パス_116" data-name="パス 116" d="M100.91,115.252a.164.164,0,0,0-.013.071c0,.055.037.081.111.081h1.673a1.946,1.946,0,0,1,1.518.5,1.776,1.776,0,0,1,.446,1.224,3.57,3.57,0,0,1-.349,1.478,11.889,11.889,0,0,1-2.313,3.419,12.255,12.255,0,0,1-3.455,2.446.693.693,0,0,1-.612-.035.531.531,0,0,1-.223-.272.55.55,0,0,1-.056-.25.615.615,0,0,1,.377-.6,11.032,11.032,0,0,0,2.508-1.611,9.737,9.737,0,0,0,1.63-1.809,9.876,9.876,0,0,0,.975-1.791,2.891,2.891,0,0,0,.25-.947.436.436,0,0,0-.18-.4,1,1,0,0,0-.545-.12h-2.422a.194.194,0,0,0-.154.084,18.735,18.735,0,0,1-1.317,1.893,11.53,11.53,0,0,1-1.414,1.518.556.556,0,0,1-.39.139.662.662,0,0,1-.516-.236.629.629,0,0,1-.139-.389.662.662,0,0,1,.236-.514,10.821,10.821,0,0,0,1.178-1.235,16.352,16.352,0,0,0,1.051-1.433c.325-.5.613-.986.864-1.464a11.515,11.515,0,0,0,.6-1.314.61.61,0,0,1,.229-.294.6.6,0,0,1,.341-.111.473.473,0,0,1,.111.013.594.594,0,0,1,.111.043.674.674,0,0,1,.309.251.649.649,0,0,1,.111.362.635.635,0,0,1-.043.223c-.065.176-.139.353-.222.528s-.171.359-.266.544" transform="translate(45.999 54.114)"/>
    <path id="パス_117" data-name="パス 117" d="M115.293,124.061a.5.5,0,0,1-.126.013.613.613,0,0,1-.426-.174.571.571,0,0,1-.188-.437.637.637,0,0,1,.154-.42.649.649,0,0,1,.375-.223,7.66,7.66,0,0,0,3-1.314,6.3,6.3,0,0,0,1.942-2.361c.1-.223.185-.411.245-.566a1.055,1.055,0,0,0,.09-.368.253.253,0,0,0-.208-.266,2.989,2.989,0,0,0-.669-.055c-.362,0-.844.028-1.448.084s-1.265.112-1.984.167-1.442.084-2.166.084q-.14,0-.279-.009c-.093,0-.189-.006-.291-.006a.641.641,0,0,1-.44-.2.62.62,0,0,1-.174-.446.592.592,0,0,1,.2-.46.579.579,0,0,1,.465-.152c.186.007.369.016.55.021s.361.006.536.006a28.521,28.521,0,0,0,2.933-.139q1.343-.137,2.277-.139a2.411,2.411,0,0,1,1.54.368,1.212,1.212,0,0,1,.424.955,2.707,2.707,0,0,1-.139.816,7.028,7.028,0,0,1-.364.9,7.341,7.341,0,0,1-2.29,2.778,9.155,9.155,0,0,1-3.545,1.54m4.777-8.8h-5.906a.577.577,0,0,1-.437-.18.6.6,0,0,1-.174-.431.578.578,0,0,1,.18-.439.6.6,0,0,1,.431-.173h5.906a.585.585,0,0,1,.439.179.6.6,0,0,1,.174.433.58.58,0,0,1-.18.437.6.6,0,0,1-.433.174" transform="translate(53.833 54.47)"/>
    <path id="パス_118" data-name="パス 118" d="M80.382,72.156H63.3a6.175,6.175,0,0,0-4.891,9.98h-3.3a6.2,6.2,0,0,0,0,12.408H77.321a6.173,6.173,0,0,0,4.69-10.224,6.189,6.189,0,0,0-1.628-12.164" transform="translate(23.363 34.466)" fill="blue"/>
    <path id="パス_119" data-name="パス 119" d="M77.771,96.385H55.564a7.6,7.6,0,0,1,0-15.192h.983a7.415,7.415,0,0,1-.392-2.383,7.6,7.6,0,0,1,7.6-7.6H80.832a7.58,7.58,0,0,1,3.719,14.194,7.465,7.465,0,0,1,.816,3.381,7.6,7.6,0,0,1-7.6,7.6M55.564,83.979a4.811,4.811,0,0,0,0,9.621H77.771a4.817,4.817,0,0,0,4.811-4.811,4.765,4.765,0,0,0-1.176-3.112l-1.433-1.67,2.122-.581A4.8,4.8,0,0,0,80.832,74H63.75a4.816,4.816,0,0,0-4.81,4.811,4.746,4.746,0,0,0,1.02,2.924L61.7,83.979Z" transform="translate(22.913 34.016)"/>
    <path id="パス_120" data-name="パス 120" d="M138.473,82.135h-3.3a6.173,6.173,0,0,0-4.891-9.98H113.205a6.19,6.19,0,0,0-1.628,12.166,6.174,6.174,0,0,0,4.69,10.222h22.206a6.2,6.2,0,0,0,0-12.408" transform="translate(51.111 34.466)" fill="#ff0"/>
    <path id="パス_121" data-name="パス 121" d="M138.924,96.385H116.717a7.6,7.6,0,0,1-7.6-7.6,7.475,7.475,0,0,1,.817-3.381,7.58,7.58,0,0,1,3.718-14.194h17.082a7.6,7.6,0,0,1,7.6,7.6,7.428,7.428,0,0,1-.392,2.383h.981a7.6,7.6,0,1,1,0,15.192M113.656,74a4.8,4.8,0,0,0-1.26,9.427l2.122.581-1.433,1.67a4.764,4.764,0,0,0-1.178,3.112,4.817,4.817,0,0,0,4.811,4.811h22.206a4.811,4.811,0,1,0,0-9.621h-6.132l1.736-2.245a4.754,4.754,0,0,0,1.021-2.924A4.817,4.817,0,0,0,130.738,74Z" transform="translate(50.661 34.016)"/>
    <path id="パス_122" data-name="パス 122" d="M83.2,61.775a9.939,9.939,0,0,1-.066,1.192,10.771,10.771,0,0,1,.018,1.232,10.118,10.118,0,0,1-.324,1.184,10.263,10.263,0,0,1-.57,1.086,10.4,10.4,0,0,1-.765.95,9.492,9.492,0,0,1-.791.9,9.726,9.726,0,0,1-.807.884,9.942,9.942,0,0,1-.876.835,10.759,10.759,0,0,1-1.136.436c-.355.186-.6.606-.981.749a10.566,10.566,0,0,1-1.221.129,10.142,10.142,0,0,1-1.145.437,10.943,10.943,0,0,1-1.216-.137c-.409,0-.83.259-1.226.211a10.268,10.268,0,0,1-1.212-.207c-.395-.1-.7-.486-1.074-.628a10.1,10.1,0,0,1-1.173-.33,9.878,9.878,0,0,1-.968-.736,10.71,10.71,0,0,1-1.083-.587,10.206,10.206,0,0,1-.776-.947,10.235,10.235,0,0,1-.86-.876c-.228-.33-.174-.835-.363-1.192s-.615-.6-.76-.984.04-.85-.058-1.244a9.758,9.758,0,0,1-.253-1.164,10.029,10.029,0,0,1-.207-1.191,10.465,10.465,0,0,1-.071-1.225c.049-.4.414-.748.51-1.136a9.53,9.53,0,0,1,.272-1.169,10.286,10.286,0,0,1,.372-1.158,10.319,10.319,0,0,1,.731-.972,10.16,10.16,0,0,1,.634-1.043,10.479,10.479,0,0,1,.981-.728,9.544,9.544,0,0,1,.992-.669,6.27,6.27,0,0,1,2.042-1.257,10.1,10.1,0,0,1,1.2-.179,9.749,9.749,0,0,1,1.144-.409,17.07,17.07,0,0,1,2.417-.009,9.853,9.853,0,0,1,1.15.393,7.685,7.685,0,0,1,2.277.736,9.706,9.706,0,0,1,.941.751,9.812,9.812,0,0,1,1.02.634,10.13,10.13,0,0,1,.9.8,10.373,10.373,0,0,1,.59,1.061,9.678,9.678,0,0,1,.655.993,9.7,9.7,0,0,1,.619,1.037,10.324,10.324,0,0,1,.7,2.327,11.355,11.355,0,0,1-.186,1.223" transform="translate(30.198 24.733)" fill="#fff"/>
    <path id="パス_123" data-name="パス 123" d="M73.17,73.56a8.36,8.36,0,0,1-1.925-.171,6.744,6.744,0,0,1-1.791-.757c-.177-.1-.353-.2-.535-.285-.2-.095-.411-.173-.619-.253a5.836,5.836,0,0,1-1.68-.864,6.418,6.418,0,0,1-1.253-1.45c-.124-.176-.245-.353-.378-.519s-.266-.315-.4-.468a6.646,6.646,0,0,1-1.141-1.569,6.959,6.959,0,0,1-.529-1.871c-.035-.2-.071-.4-.115-.6s-.118-.42-.186-.628a5.908,5.908,0,0,1-.378-1.881,11.721,11.721,0,0,1,.275-2.574,5.846,5.846,0,0,1,.785-1.748c.114-.191.229-.38.322-.576l.235-.514a7.563,7.563,0,0,1,.971-1.739,9.151,9.151,0,0,1,1.606-1.487l.288-.229c.154-.123.3-.254.455-.387a7.2,7.2,0,0,1,1.6-1.151,9.969,9.969,0,0,1,2.182-.672l.674-.155a8.315,8.315,0,0,1,4.028.064,6.1,6.1,0,0,0,.634.194c.223.052.449.081.677.111a5.831,5.831,0,0,1,1.831.465,5.459,5.459,0,0,1,1.5,1.164,6.546,6.546,0,0,0,.492.461A11.293,11.293,0,0,1,82.6,55.217l.257.316a8.854,8.854,0,0,1,1.21,1.761l.194.393a8.754,8.754,0,0,1,.791,1.986,5.968,5.968,0,0,1,.053,1.884c-.019.228-.04.458-.04.686a11.249,11.249,0,0,1-.275,2.511c-.05.213-.084.429-.118.641a6.465,6.465,0,0,1-.5,1.85,11.339,11.339,0,0,1-1.342,2.209,11.651,11.651,0,0,1-1.874,1.772,8.328,8.328,0,0,1-1.8,1.015l-.451.208a11.16,11.16,0,0,1-2.41.773,10.99,10.99,0,0,1-2.506.335H73.17m.618-20.092a6.863,6.863,0,0,0-1.509.251l-.717.166a7.546,7.546,0,0,0-1.578.464,4.85,4.85,0,0,0-.972.734c-.185.161-.369.322-.557.471l-.31.245A6.964,6.964,0,0,0,67,56.831a5.327,5.327,0,0,0-.6,1.124l-.275.6c-.127.264-.282.529-.44.792a3.764,3.764,0,0,0-.46.938,8.942,8.942,0,0,0-.205,1.956,3.728,3.728,0,0,0,.241,1.017c.095.293.188.585.254.875.055.239.1.485.142.727a4.742,4.742,0,0,0,.3,1.151,4.405,4.405,0,0,0,.7.918c.174.194.347.389.51.591s.33.44.488.668a4.17,4.17,0,0,0,.7.861,3.727,3.727,0,0,0,.924.436c.287.109.575.219.85.352.226.108.448.231.669.353a4.438,4.438,0,0,0,1.062.482,7.778,7.778,0,0,0,1.609.1h.316a8.564,8.564,0,0,0,1.888-.265,8.734,8.734,0,0,0,1.818-.564L78,69.706a5.993,5.993,0,0,0,1.212-.658,9.183,9.183,0,0,0,1.436-1.333,8.922,8.922,0,0,0,1.009-1.682,4.279,4.279,0,0,0,.262-1.082c.043-.273.09-.548.151-.816a8.513,8.513,0,0,0,.207-1.893c0-.306.025-.613.05-.919a4.031,4.031,0,0,0,.007-1.033,6.566,6.566,0,0,0-.566-1.355l-.214-.431a6.406,6.406,0,0,0-.853-1.2l-.279-.346a8.388,8.388,0,0,0-1.37-1.311,9.263,9.263,0,0,1-.72-.665,3.422,3.422,0,0,0-.743-.629,3.738,3.738,0,0,0-.989-.211c-.312-.043-.624-.086-.926-.155a8.932,8.932,0,0,1-.916-.273,3.454,3.454,0,0,0-.971-.244" transform="translate(29.727 24.263)"/>
    <path id="パス_124" data-name="パス 124" d="M133.917,63.527c0,.387-.006.758-.031,1.139s.337.81.285,1.188-.049.791-.127,1.164-.294.736-.4,1.1-.479.658-.607,1.018-.371.666-.525,1.018-.231.729-.406,1.068-.2.77-.395,1.1-.711.442-.932.755-.074.9-.316,1.2-.8.318-1.062.6-.263.817-.544,1.08-.8.247-1.1.489-.315.857-.628,1.079-.637.463-.965.663-.9-.024-1.24.154-.551.619-.9.773-.789.093-1.151.222-.627.579-1,.684-.8,0-1.178.077-.726.369-1.108.421-.814-.426-1.2-.4-.749.525-1.136.525-.752-.544-1.133-.57-.758,0-1.136-.047-.794.109-1.167.033-.819.066-1.187-.037-.587-.7-.947-.827-.764-.129-1.116-.281-.8-.112-1.139-.288-.578-.547-.9-.746-.788-.207-1.1-.429-.439-.695-.737-.937-.482-.6-.762-.857-.693-.378-.955-.659-.563-.525-.807-.823-.22-.783-.442-1.1-.7-.443-.906-.771-.352-.683-.529-1.024-.393-.663-.547-1.017-.006-.813-.136-1.176-.371-.671-.474-1.043-.257-.72-.335-1.1.115-.783.062-1.164-.307-.726-.332-1.111-.161-.758-.161-1.145.334-.752.361-1.132-.015-.76.037-1.138-.112-.794-.035-1.167.068-.782.171-1.15.115-.783.244-1.144.344-.706.5-1.057.35-.7.526-1.037.378-.678.578-1.006.563-.551.785-.864.173-.844.415-1.141.882-.254,1.145-.533.346-.733.625-.994.771-.275,1.068-.517.452-.658.767-.879.494-.659.822-.859.634-.477.975-.655.8-.136,1.154-.29.674-.409,1.036-.539.823.046,1.194-.059.721-.263,1.1-.341.737-.239,1.12-.291.767-.075,1.154-.1.768.021,1.156.021.751.328,1.132.355.774-.137,1.153-.086.832-.263,1.207-.185.782.132,1.15.235.715.347,1.076.476.659.445,1.011.6.68.358,1.021.533.789.174,1.117.374.395.794.708,1.015.694.332.992.575.737.324,1.018.585.591.507.853.788.284.771.526,1.068.557.532.779.847.307.7.508,1.034.839.411,1.017.754.3.728.454,1.082.027.822.155,1.185.325.7.429,1.073.071.771.149,1.15-.035.771.016,1.154.315.728.341,1.114-.146.764-.146,1.151" transform="translate(47.939 22.271)" fill="#fff"/>
    <path id="パス_125" data-name="パス 125" d="M123.7,61.767c0,.408-.3.8-.349,1.2a8.8,8.8,0,0,1-1.092,3.4,9.912,9.912,0,0,1-.615,1.023c-.231.332-.291.8-.559,1.1a10.447,10.447,0,0,1-.836.9,10.5,10.5,0,0,1-1.008.7,10.814,10.814,0,0,1-1.117.489,66.663,66.663,0,0,1-2.24.836,10.1,10.1,0,0,1-1.166.33,10.877,10.877,0,0,1-1.21-.145c-.408,0-.823.257-1.218.21a10.135,10.135,0,0,1-1.145-.454,10.475,10.475,0,0,1-1.216-.145,9.836,9.836,0,0,1-1.014-.686c-.358-.188-.851-.155-1.182-.384a10.615,10.615,0,0,1-.974-.746c-.3-.267-.39-.754-.658-1.055a10.148,10.148,0,0,1-.888-.836,10.238,10.238,0,0,1-.516-1.1,10.671,10.671,0,0,1-.689-1.023,10.188,10.188,0,0,1-.247-1.2,9.983,9.983,0,0,1-.352-1.176c-.047-.4.235-.819.235-1.226s-.263-.829-.216-1.223.43-.745.526-1.133a9.889,9.889,0,0,1,.316-1.148,10.251,10.251,0,0,1,.369-1.151A10.455,10.455,0,0,1,105.148,56c.229-.332.712-.465.98-.767a10,10,0,0,1,.783-.907,10.283,10.283,0,0,1,.867-.854,10.384,10.384,0,0,1,1.1-.522,9.9,9.9,0,0,1,1.045-.631,10.281,10.281,0,0,1,1.207-.189,9.511,9.511,0,0,1,1.19-.13,9.667,9.667,0,0,1,1.188-.2,9.915,9.915,0,0,1,1.207.034,9.44,9.44,0,0,1,1.145.4,10.269,10.269,0,0,1,1.2.167,16.768,16.768,0,0,1,2.143,1.119,10.239,10.239,0,0,1,.832.882,7.695,7.695,0,0,1,1.674,1.708,9.95,9.95,0,0,1,.488,1.1,9.822,9.822,0,0,1,.609,1.034,10.046,10.046,0,0,1,.427,1.127,10.339,10.339,0,0,1,.027,1.215c.049.395.436.777.436,1.185" transform="translate(49.392 24.741)" fill="#fff"/>
    <path id="パス_126" data-name="パス 126" d="M113.956,73.782a11.471,11.471,0,0,1-2.558-.362,8.2,8.2,0,0,1-1.918-.773l-.44-.22a11.033,11.033,0,0,1-2.106-1.407,11.238,11.238,0,0,1-1.823-1.745l-.194-.241a9.532,9.532,0,0,1-1.259-1.854,6.752,6.752,0,0,1-.52-1.854c-.035-.2-.069-.408-.115-.61s-.118-.418-.186-.625a5.851,5.851,0,0,1-.375-1.871,6.4,6.4,0,0,1,.355-1.9c.061-.2.123-.4.168-.6s.078-.411.114-.618a6.727,6.727,0,0,1,.516-1.862,6.985,6.985,0,0,1,1.141-1.586c.134-.152.269-.3.393-.458.137-.173.259-.362.384-.551a5.9,5.9,0,0,1,1.223-1.456,11.717,11.717,0,0,1,2.18-1.388,5.908,5.908,0,0,1,1.837-.473c.226-.031.454-.061.672-.109l.535-.136a9.466,9.466,0,0,1,4.133,0l.966.2a7.091,7.091,0,0,1,1.891.536,9.777,9.777,0,0,1,1.874,1.278l.55.436A9.282,9.282,0,0,1,123,55.01a5.608,5.608,0,0,1,.847,1.686,6.658,6.658,0,0,0,.254.637,6.407,6.407,0,0,0,.327.581,5.834,5.834,0,0,1,.788,1.736,11.6,11.6,0,0,1,.327,2.57,6,6,0,0,1-.377,1.891c-.066.21-.136.418-.183.625a9.982,9.982,0,0,1-2.187,4.533,11.962,11.962,0,0,1-3.942,3.113c-.188.092-.371.2-.556.3a6.468,6.468,0,0,1-1.778.768,11.424,11.424,0,0,1-2.561.33m0-20.245a5.243,5.243,0,0,0-1.262.235l-.632.16c-.3.066-.6.111-.907.154a3.825,3.825,0,0,0-1.008.22,8.957,8.957,0,0,0-1.655,1.058,3.754,3.754,0,0,0-.635.813c-.17.259-.343.517-.533.755-.152.192-.315.377-.479.562a4.746,4.746,0,0,0-.721.955,4.489,4.489,0,0,0-.276,1.114c-.044.257-.089.516-.146.77s-.137.525-.216.788a4.179,4.179,0,0,0-.236,1.1,3.676,3.676,0,0,0,.238,1.008c.095.29.186.579.253.87.056.25.1.5.145.752a4.484,4.484,0,0,0,.282,1.12,7.389,7.389,0,0,0,.918,1.314l.2.253a8.652,8.652,0,0,0,1.388,1.308,8.412,8.412,0,0,0,1.575,1.073l.5.251a5.925,5.925,0,0,0,1.268.536,7.649,7.649,0,0,0,3.883.031,4.283,4.283,0,0,0,1.021-.476c.238-.134.477-.269.72-.386a8,8,0,0,0,4.622-5.754c.065-.287.155-.573.248-.861a3.881,3.881,0,0,0,.242-1.039,8.918,8.918,0,0,0-.257-1.951,3.684,3.684,0,0,0-.455-.916c-.163-.267-.322-.535-.454-.808s-.251-.6-.364-.9a3.491,3.491,0,0,0-.4-.893,7.038,7.038,0,0,0-1.139-1.021l-.591-.468a7.468,7.468,0,0,0-1.331-.935,4.949,4.949,0,0,0-1.176-.3c-.241-.044-.483-.089-.721-.143l-.393-.092a6.875,6.875,0,0,0-1.512-.248" transform="translate(48.942 24.289)"/>
    <path id="パス_127" data-name="パス 127" d="M117.544,83.774a19.066,19.066,0,1,1,17.566-26.489,2.09,2.09,0,0,1-3.849,1.627,14.888,14.888,0,1,0,0,11.589,2.09,2.09,0,0,1,3.849,1.627,19.036,19.036,0,0,1-17.566,11.645" transform="translate(47.039 21.801)"/>
    <path id="パス_128" data-name="パス 128" d="M75.434,82.785c-.148,0-.3,0-.443-.007a19.131,19.131,0,0,1-16.349-10.31C54.829,65,56.486,56.035,57.7,49.489a2.089,2.089,0,0,1,4.108.76c-1.427,7.722-2.369,14.585.559,20.321a14.681,14.681,0,0,0,25.834.647,20.123,20.123,0,0,0,2.323-9.979,65.672,65.672,0,0,0-1.237-10.991,2.089,2.089,0,0,1,4.12-.7,68.765,68.765,0,0,1,1.3,11.7,24.23,24.23,0,0,1-2.87,12.034,19.3,19.3,0,0,1-16.395,9.5" transform="translate(26.881 22.822)"/>
    <path id="パス_129" data-name="パス 129" d="M111.206,70a5.509,5.509,0,0,1-3.883-1.744A8.864,8.864,0,0,1,105.26,64.5a11.307,11.307,0,0,1-.33-1.448,4.765,4.765,0,0,1-.344-1.481,4.668,4.668,0,0,1,.08-1.2,5.108,5.108,0,0,1,.145-3.957,4.61,4.61,0,0,1,1.054-1.272,7.18,7.18,0,0,1,.6-.48,5.73,5.73,0,0,1,2.779-1.529,3.776,3.776,0,0,1,1.792-.13,9.475,9.475,0,0,1,5.088.712,7.478,7.478,0,0,1,3.251,2.861,7.4,7.4,0,0,1,1.732,2.219,6.043,6.043,0,0,1,.267,4.891,6.768,6.768,0,0,1-.653,1.207,10.1,10.1,0,0,1-3.205,3.05,5.588,5.588,0,0,1-1,.761,5.734,5.734,0,0,1-3.146.77,5.147,5.147,0,0,1-1.971.511c-.065,0-.13,0-.2,0m.875-2.132a5.177,5.177,0,0,0,1.249.05,6.011,6.011,0,0,0,.924-.737c.108-.1.213-.213.313-.327a6.439,6.439,0,0,1-1.577.214c-.205.035-.412.062-.619.083a7.812,7.812,0,0,1-1.877-.049c.095.064.188.126.284.185a5.427,5.427,0,0,0,1.3.581m4.86-2.064a8.911,8.911,0,0,1-.8,1.32c.173-.084.343-.176.51-.272a5,5,0,0,0,1.045-1.6,8.08,8.08,0,0,1-.755.556m-4.486-.161a3.835,3.835,0,0,0,.414.031,7.589,7.589,0,0,0,3.252-1.515,8.5,8.5,0,0,0,.33-1.314,5.443,5.443,0,0,1-2.162,2.271,4.789,4.789,0,0,1-1.834.526m-3.911-.631c.059.033.118.064.179.093-.123-.124-.242-.257-.359-.393.058.1.118.2.18.3M119.5,63.057a7.76,7.76,0,0,1-.117,1.331c.059-.084.12-.17.176-.257a5.514,5.514,0,0,0,.526-.962,4.41,4.41,0,0,0,.186-2.57,6.879,6.879,0,0,1-.771,2.457m-9.55.726c.126.061.257.118.387.168-.041-.038-.081-.08-.121-.12q-.135-.022-.266-.049m8.006-2.214c0,.124-.007.245-.013.368.019-.047.038-.093.055-.142-.012-.075-.027-.151-.041-.226m-4.548-2.041-.072,0a1.089,1.089,0,0,0-.956.675.742.742,0,0,0,.353.861,1.1,1.1,0,0,0,.366.05,1.6,1.6,0,0,0,.829-.27,1.073,1.073,0,0,1,.25-.873.632.632,0,0,0-.126-.2.894.894,0,0,0-.644-.242m-4.022-1.7c-.019.075-.035.151-.052.232a5.915,5.915,0,0,0-.108,1.838,6.556,6.556,0,0,1,.9-2.382,4.246,4.246,0,0,0-.736.312m2.642-.5a5.239,5.239,0,0,0-.523.627,5.379,5.379,0,0,0-.6,1.083,3.687,3.687,0,0,1,.715-.564,3.079,3.079,0,0,1,2.366-.44,3.69,3.69,0,0,0-.582-.328,4.439,4.439,0,0,0-1.377-.377m-4.619-1.617a2.526,2.526,0,0,0-.306.5,8.477,8.477,0,0,1,3.334-1.7c-.126.025-.254.053-.381.084a8.119,8.119,0,0,0-2.646,1.111M111.9,54.34a6.376,6.376,0,0,1,.869.061c.192-.01.383-.018.575-.018a8.743,8.743,0,0,0-1.553-.043Z" transform="translate(49.838 25.284)"/>
    <path id="パス_130" data-name="パス 130" d="M71.74,70a5.51,5.51,0,0,1-3.883-1.744A8.864,8.864,0,0,1,65.794,64.5a11.375,11.375,0,0,1-.331-1.453,4.82,4.82,0,0,1-.343-1.476,4.679,4.679,0,0,1,.08-1.2,5.121,5.121,0,0,1,.146-3.957A4.637,4.637,0,0,1,66.4,55.149a7.05,7.05,0,0,1,.609-.483,5.729,5.729,0,0,1,2.775-1.526,3.781,3.781,0,0,1,1.794-.13,9.513,9.513,0,0,1,5.086.712,7.469,7.469,0,0,1,3.251,2.861A7.4,7.4,0,0,1,81.644,58.8a6.043,6.043,0,0,1,.267,4.891A6.853,6.853,0,0,1,81.26,64.9a10.1,10.1,0,0,1-3.205,3.051,5.608,5.608,0,0,1-1,.761,5.679,5.679,0,0,1-3.144.77,5.147,5.147,0,0,1-1.971.511c-.065,0-.13,0-.2,0m.875-2.132a5.176,5.176,0,0,0,1.249.05,6.015,6.015,0,0,0,.924-.737c.108-.1.213-.213.313-.327a6.372,6.372,0,0,1-1.575.213c-.205.037-.412.064-.619.084a8.137,8.137,0,0,1-1.878-.049c.093.064.188.126.284.185a5.486,5.486,0,0,0,1.3.581m4.86-2.064a8.909,8.909,0,0,1-.8,1.32c.173-.084.343-.174.51-.272a4.963,4.963,0,0,0,1.046-1.6,7.84,7.84,0,0,1-.757.556m-4.486-.161a3.838,3.838,0,0,0,.415.031,7.6,7.6,0,0,0,3.252-1.515,8.6,8.6,0,0,0,.33-1.315,5.45,5.45,0,0,1-2.163,2.273,4.782,4.782,0,0,1-1.834.526m-3.913-.631c.061.033.12.064.18.093-.123-.126-.244-.259-.361-.4.058.1.12.2.18.3m10.963-1.948a7.758,7.758,0,0,1-.118,1.331c.062-.086.121-.171.179-.26a5.506,5.506,0,0,0,.525-.962,4.416,4.416,0,0,0,.188-2.568,6.919,6.919,0,0,1-.773,2.459m-9.55.723c.127.061.257.118.389.168-.041-.038-.081-.078-.121-.12-.092-.015-.18-.031-.267-.049M78.5,61.573c0,.121-.009.242-.015.364.021-.046.038-.093.056-.14-.013-.074-.027-.149-.041-.223m-4.55-2.045c-.025,0-.049,0-.072,0a1.089,1.089,0,0,0-.956.675.744.744,0,0,0,.353.863,1.206,1.206,0,0,0,.366.049,1.6,1.6,0,0,0,.829-.27,1.069,1.069,0,0,1,.251-.873.662.662,0,0,0-.127-.2.894.894,0,0,0-.644-.242m-4.021-1.7c-.019.075-.035.152-.052.232a5.93,5.93,0,0,0-.109,1.84,6.532,6.532,0,0,1,.9-2.382,4.358,4.358,0,0,0-.736.31m2.641-.5a4.991,4.991,0,0,0-.522.625,5.308,5.308,0,0,0-.6,1.083,3.687,3.687,0,0,1,.714-.564,3.081,3.081,0,0,1,2.367-.44,3.773,3.773,0,0,0-.584-.328,4.385,4.385,0,0,0-1.377-.375M67.95,55.71a2.53,2.53,0,0,0-.307.5,8.036,8.036,0,0,1,1.426-.959,7.915,7.915,0,0,1,1.9-.737c-.124.025-.25.053-.375.083a8.129,8.129,0,0,0-2.644,1.11m4.483-1.37a6.382,6.382,0,0,1,.87.061c.192-.01.384-.018.576-.018a9.627,9.627,0,0,0-1.552-.043Z" transform="translate(30.988 25.284)"/>
    <path id="パス_131" data-name="パス 131" d="M103.29,107.315a2.577,2.577,0,0,1-1.828-.813,3.9,3.9,0,0,1-.91-1.64,4.562,4.562,0,0,1-.133-.576,2.268,2.268,0,0,1-.148-.663,2.311,2.311,0,0,1,.021-.473,2.4,2.4,0,0,1,.118-1.775,2.245,2.245,0,0,1,.5-.615,2.9,2.9,0,0,1,.235-.188,2.68,2.68,0,0,1,1.257-.69,1.957,1.957,0,0,1,.827-.071,4.168,4.168,0,0,1,2.157.322,3.345,3.345,0,0,1,1.422,1.229,3.268,3.268,0,0,1,.731.958,2.789,2.789,0,0,1,.12,2.262,3.233,3.233,0,0,1-.3.55,4.417,4.417,0,0,1-1.349,1.3,2.717,2.717,0,0,1-.434.324,2.686,2.686,0,0,1-1.358.361,2.433,2.433,0,0,1-.842.2h-.093" transform="translate(47.851 47.664)"/>
    <path id="パス_132" data-name="パス 132" d="M81.729,96.774a1.4,1.4,0,0,1-.993-.434,1.868,1.868,0,0,1-.446-.8,1.733,1.733,0,0,1-.055-.222,1.3,1.3,0,0,1-.066-.335,1.162,1.162,0,0,1,0-.176,1.257,1.257,0,0,1,.1-.9,1.222,1.222,0,0,1,.285-.352c.03-.025.058-.049.087-.071a1.446,1.446,0,0,1,.638-.346,1.261,1.261,0,0,1,.431-.044,1.934,1.934,0,0,1,.98.16,1.7,1.7,0,0,1,.692.579,1.649,1.649,0,0,1,.321.44,1.464,1.464,0,0,1,.058,1.2,1.7,1.7,0,0,1-.145.278,2.132,2.132,0,0,1-.612.6,1.439,1.439,0,0,1-.205.146,1.418,1.418,0,0,1-.635.192,1.323,1.323,0,0,1-.384.075h-.053" transform="translate(38.276 44.467)"/>
    <path id="パス_133" data-name="パス 133" d="M150.191,107.385a2.577,2.577,0,0,1-1.821-.81,3.879,3.879,0,0,1-.91-1.645,4.619,4.619,0,0,1-.136-.579,2.272,2.272,0,0,1-.145-.659,2.184,2.184,0,0,1,.019-.47,2.391,2.391,0,0,1,.12-1.778,2.2,2.2,0,0,1,.5-.615c.077-.066.155-.13.238-.189a2.664,2.664,0,0,1,1.256-.689,2.035,2.035,0,0,1,.833-.071,4.152,4.152,0,0,1,2.15.322,3.378,3.378,0,0,1,1.424,1.232,3.277,3.277,0,0,1,.728.953,2.79,2.79,0,0,1,.118,2.265,3.162,3.162,0,0,1-.293.544,4.391,4.391,0,0,1-1.352,1.3,2.632,2.632,0,0,1-.434.324,2.682,2.682,0,0,1-1.359.362,2.412,2.412,0,0,1-.844.2l-.1,0" transform="translate(70.256 47.698)"/>
    <path id="パス_134" data-name="パス 134" d="M91.155,21.465a1.393,1.393,0,0,1-1.393-1.393V1.392a1.393,1.393,0,0,1,2.787,0V20.071a1.393,1.393,0,0,1-1.393,1.393" transform="translate(42.876 0)"/>
    <path id="パス_135" data-name="パス 135" d="M91.155,22.069a1.393,1.393,0,0,1-1.393-1.393v-3.01a1.393,1.393,0,0,1,2.787,0v3.01a1.393,1.393,0,0,1-1.393,1.393" transform="translate(42.876 7.773)"/>
    <path id="パス_136" data-name="パス 136" d="M57.675,26.7a1.392,1.392,0,0,1-1.225-.728L47.109,8.746a1.392,1.392,0,0,1,2.448-1.327L58.9,24.639A1.394,1.394,0,0,1,57.675,26.7" transform="translate(22.422 3.195)"/>
    <path id="パス_137" data-name="パス 137" d="M57.979,27.254a1.392,1.392,0,0,1-1.225-.728L55.248,23.75A1.393,1.393,0,1,1,57.7,22.422L59.2,25.2a1.394,1.394,0,0,1-1.223,2.057" transform="translate(26.309 10.362)"/>
    <path id="パス_138" data-name="パス 138" d="M127.506,26.7a1.394,1.394,0,0,1-1.224-2.057l9.34-17.221a1.392,1.392,0,0,1,2.448,1.327l-9.34,17.222a1.391,1.391,0,0,1-1.225.728" transform="translate(60.24 3.195)"/>
    <path id="パス_139" data-name="パス 139" d="M124.67,27.254a1.394,1.394,0,0,1-1.224-2.057l1.506-2.775A1.393,1.393,0,1,1,127.4,23.75l-1.506,2.775a1.393,1.393,0,0,1-1.225.728" transform="translate(58.886 10.362)"/>
    <path id="パス_140" data-name="パス 140" d="M33.436,45.515a1.394,1.394,0,0,1-.823-.269L16.477,33.409a1.393,1.393,0,0,1,1.648-2.248L34.262,43a1.393,1.393,0,0,1-.826,2.516" transform="translate(7.599 14.756)"/>
    <path id="パス_141" data-name="パス 141" d="M33.959,45.9a1.394,1.394,0,0,1-.823-.269l-2.6-1.909a1.394,1.394,0,1,1,1.649-2.248l2.6,1.909a1.393,1.393,0,0,1-.826,2.516" transform="translate(14.314 19.682)"/>
    <path id="パス_142" data-name="パス 142" d="M153.483,45.516A1.393,1.393,0,0,1,152.657,43l16.136-11.838a1.393,1.393,0,1,1,1.648,2.248L154.306,45.247a1.394,1.394,0,0,1-.823.269" transform="translate(72.647 14.755)"/>
    <path id="パス_143" data-name="パス 143" d="M148.584,45.9a1.393,1.393,0,0,1-.826-2.516l2.6-1.909a1.394,1.394,0,1,1,1.649,2.248l-2.6,1.909a1.4,1.4,0,0,1-.823.269" transform="translate(70.307 19.681)"/>
    <path id="パス_144" data-name="パス 144" d="M20.971,76.053a1.375,1.375,0,0,1-.244-.022L1.151,72.579a1.392,1.392,0,0,1,.483-2.743l19.578,3.452a1.393,1.393,0,0,1-.241,2.765" transform="translate(0 33.348)"/>
    <path id="パス_145" data-name="パス 145" d="M21.607,76.165a1.371,1.371,0,0,1-.244-.022l-3.155-.556a1.392,1.392,0,0,1,.483-2.743l3.156.556a1.393,1.393,0,0,1-.241,2.765" transform="translate(8.148 34.784)"/>
    <path id="パス_146" data-name="パス 146" d="M167.668,76.053a1.393,1.393,0,0,1-.241-2.765L187,69.836a1.393,1.393,0,1,1,.485,2.743l-19.578,3.452a1.376,1.376,0,0,1-.244.022" transform="translate(79.424 33.348)"/>
    <path id="パス_147" data-name="パス 147" d="M161.725,76.165a1.393,1.393,0,0,1-.241-2.765l3.155-.556a1.393,1.393,0,1,1,.485,2.743l-3.155.556a1.373,1.373,0,0,1-.244.022" transform="translate(76.586 34.784)"/>
  </g>
</svg>
