<?xml version="1.0" encoding="UTF-8"?>
<svg id="_レイヤー_1" data-name="レイヤー 1" xmlns="http://www.w3.org/2000/svg" viewBox="0 0 423.8 120.9">
  <defs>
    <style>
      .cls-1 {
        fill: none;
      }

      .cls-2 {
        fill: #ffaeab;
      }

      .cls-3 {
        fill: blue;
      }

      .cls-4 {
        fill: #fff;
      }

      .cls-5 {
        fill: #ff0;
      }

      .cls-6 {
        fill: #5cffff;
      }

      .cls-7 {
        fill: #fcd25b;
      }
    </style>
  </defs>
  <rect class="cls-5" x="293.97" y="32.89" width="54.19" height="21.12" rx="10.56" ry="10.56"/>
  <g>
    <path d="M195.2,76.15c0-.32.16-.69.58-1.01.67-.55,1.24-1.36,1.59-2.25.16-.46.51-.64.85-.64.53,0,1.08.44,1.08,1.01,0,.67-1.62,3.84-3.06,3.84-.57,0-1.03-.42-1.03-.94ZM196.73,64.17c-.6,0-.92-.48-.92-.94,0-.48.32-.94.92-.94h3.4s0-1.88,0-1.88c0-.64.55-.96,1.1-.96s1.1.32,1.1.97l-.03,1.89h3.45c.64,0,.96.47.96.95,0,.46-.32.94-.97.94h-9.04ZM202.35,76v.16c0,1.22-.46,2.55-2.62,2.55-1.06,0-1.82-.14-1.82-1.08,0-.51.37-1.06.97-1.06.07,0,.12.02.18.02.23.05.44.07.6.07.44,0,.69-.21.69-.99v-4.09c-2.96,0-3.24-.6-3.23-3.15,0-.44,0-.9.02-1.27.07-.9.78-1.61,1.93-1.65.69-.02,1.43-.04,2.14-.04s1.4.03,2.05.05c1.06.05,1.91.65,2,1.54.02.34.04.76.04,1.17,0,2.21,0,3.36-3.02,3.35l.02,2.62.04,1.79ZM203.35,68.5q0-1.4-2.09-1.41c-.51,0-.99.02-1.47.04-.62.02-.69.37-.69,1.4,0,.28,0,.55.02.83.05.53.44.55,2.11.55,1.77,0,2.02-.02,2.07-.62.02-.25.05-.53.05-.8ZM204.12,75.2c-.3-.62-.71-1.04-1.1-1.47-.14-.16-.21-.34-.21-.53,0-.48.42-.96.94-.96.76,0,2.25,1.7,2.25,2.44,0,.6-.55,1.08-1.08,1.08-.32,0-.62-.16-.8-.55ZM213.89,75.07c0-.64.46-.92.92-.92.53,0,1.08.35,1.08.94v.14c0,3.5-1.39,3.91-3.43,3.9-2.35,0-2.87-.99-2.87-2.65,0-.6.07-3.01.12-4.78-1.36,5.38-4.63,7.72-5.53,7.72-.62,0-1.08-.53-1.08-1.08,0-.32.14-.64.51-.9,3.61-2.48,4.59-6.71,4.8-10.98h-2.09c-.64,0-.96-.51-.96-.99,0-.51.32-.99.97-.99h2.14c0-1.38-.02-2.71-.06-3.98v-.05c0-.64.53-.96,1.06-.96s1.08.35,1.1,1.01c.02.62.02,1.29.02,1.95,0,.64,0,1.33-.03,2.02h3.96c.64,0,.97.49.96,1,0,.48-.32.99-.97.99h-4.05c-.05.84-.12,1.67-.23,2.5.14-.09.32-.14.48-.14.44,0,.97.3.96,1.24,0,1.24-.15,4.94-.15,6.09,0,.09,0,.16,0,.21,0,.6.18.9.94.9,1.08,0,1.43-.27,1.43-2v-.21ZM214.05,63.67c-.23,0-.46-.07-.67-.28-.41-.39-1.22-.99-1.63-1.17-.41-.18-.57-.51-.57-.83,0-.48.39-.99.99-.99.85,0,2.41,1.2,2.62,1.41.25.25.37.53.37.78,0,.58-.55,1.08-1.1,1.08Z"/>
    <path d="M232.57,69.65c1.86.03,2.76.88,2.75,2.76v.07c0,2.12-.49,6.97-5.23,6.96-.9,0-1.93-.16-3.08-.56-.46-.14-.67-.58-.67-1.01,0-.62.39-1.24,1.06-1.24.14,0,.28.02.41.07,1.01.32,1.79.55,2.46.56,2.14,0,2.69-2.64,2.74-4.62,0-.76-.18-1.04-.83-1.04h-.07c-.67.02-2.12.04-3.75.04-.99,3.82-3.37,6.8-8.24,8.22-.14.05-.28.07-.41.07-.76,0-1.24-.65-1.24-1.24,0-.44.25-.87.85-1.01,4.05-1.01,5.89-3.23,6.7-6.04-1.82.02-3.5.04-4.32.06t-.05,0c-.69,0-1.03-.48-1.03-.99,0-.48.35-.99,1.06-1.01.85-.02,2.74-.07,4.74-.06.07-.57.12-1.17.14-1.79.02-.76.58-1.1,1.15-1.1.6,0,1.22.39,1.22,1.13,0,.32-.14,1.52-.16,1.77h3.79ZM221.25,68.71c0,.71-.6,1.1-1.17,1.1-.55,0-1.1-.35-1.12-1.13,0-.3-.02-.67-.02-1.04,0-.39.02-.8.02-1.15.05-1.08.9-2.14,2.67-2.16,2.12-.02,4.28-.04,6.46-.04.8,0,1.59,0,2.39,0,.05-.07.09-.14.16-.21.65-.76,1.75-2.67,2.12-3.61.21-.53.62-.73,1.04-.73.64,0,1.31.49,1.31,1.13,0,.8-2.1,3.19-2.3,3.45.62,0,1.22.02,1.84.03,1.26.02,2.55.99,2.6,2.28.02.32.02.8.02,1.24,0,.85,0,1.98-1.27,1.98-.57,0-1.15-.39-1.15-1.11v-.05c0-2.42,0-2.46-1.42-2.51-1.82-.03-3.91-.05-5.96-.05-1.68,0-3.31.02-4.71.04-1.24.02-1.43.34-1.5,1.15v1.36s0,.02,0,.02ZM223.54,64.07c-.28,0-.55-.14-.76-.46-.46-.76-1.29-1.43-1.93-1.98-.23-.18-.32-.39-.32-.6,0-.53.6-1.01,1.22-1.01.8,0,2.99,2.03,2.98,2.88,0,.62-.6,1.17-1.2,1.17ZM228.43,63.8c-.34,0-.69-.19-.87-.65-.32-.81-1.06-1.59-1.61-2.23-.14-.16-.21-.34-.21-.51,0-.51.58-.94,1.17-.94,1.06,0,2.71,2.44,2.71,3.18,0,.64-.6,1.15-1.2,1.15Z"/>
    <path d="M240.8,78.12c-.51,0-.99-.35-.99-.9,0-.16.05-.34.16-.55.55-1.03,1.06-2.69,1.16-4.02.05-.55.44-.83.85-.83.48,0,.99.37.99,1.04,0,.64-.6,3.54-1.29,4.74-.21.37-.55.53-.87.53ZM243.54,78.61l.1-7.98c-.87.14-2.44.32-2.58.32-.53,0-.83-.48-.83-.94,0-.41.23-.8.71-.83.28-.02.62-.04.99-.07.42-.48.88-1.06,1.31-1.7-.69-.74-2-1.77-2.53-2.14-.3-.21-.41-.48-.41-.76,0-.46.37-.9.88-.9.09,0,.23.02.62.21.62-1.01,1.43-2.71,1.73-3.93.12-.46.48-.64.9-.64.53,0,1.1.37,1.1.92,0,.37-1.15,3.03-2.28,4.73.37.3.71.65,1.01.92.71-1.19,1.34-2.41,1.68-3.31.16-.41.48-.57.83-.57.55,0,1.13.42,1.12,1.01,0,.62-1.84,3.61-3.57,5.93.71-.07,1.4-.16,1.93-.23-.09-.16-.18-.3-.28-.44-.12-.18-.18-.35-.18-.51,0-.39.37-.67.78-.67,1.1,0,2.09,2.56,2.09,3.06,0,.62-.48,1.03-.94,1.03-.37,0-.67-.28-.83-1.04-.37.07-.83.14-1.36.23l.03,8.28c0,.71-.53,1.08-1.04,1.08s-1.01-.35-1.01-1.06v-.02ZM246.71,75.65c-.07-.92-.34-1.86-.71-2.65-.07-.16-.12-.3-.11-.44,0-.44.37-.71.78-.71,1.31,0,1.88,3.15,1.88,3.57,0,.67-.53,1.08-1.04,1.08-.39,0-.76-.25-.8-.85ZM259.59,76.98c.62,0,.92.48.92.97,0,.51-.3.99-.92,1.01-.6.02-1.89.02-3.27.02-1.91,0-4.02,0-4.85-.03-1.63-.03-2.41-.99-2.43-2.42,0-1.1-.02-4.28-.01-7.45,0-3.17.03-6.37.03-7.47.02-.69.51-1.01,1.01-1.01.51,0,.99.32.99.99v.02c-.02,1.4-.03,6.92-.04,10.81.05-.07.09-.12.16-.18,1.04-.99,2.28-2.57,3.13-4.29l-2.02.04h-.02c-.6,0-.87-.44-.87-.9,0-.46.3-.92.9-.92h2.41s-.08-5.4-.08-5.4v-.02c0-.62.51-.92,1.04-.92.53,0,1.03.3,1.03.92v.02s-.05,1.61-.07,3.56c.02-.07.07-.14.14-.21.37-.46,1.01-1.33,1.36-1.95.16-.3.41-.41.69-.41.51,0,1.06.46,1.06.99,0,.6-1.57,2.3-1.73,2.46-.16.16-.37.23-.58.23-.41,0-.8-.25-.94-.58l-.02,1.31h2.53c.58,0,.87.44.87.9,0,.46-.3.92-.85.92h-.02l-2.55-.05v1.43c.11-.05.23-.07.37-.07.6,0,3.01,1.82,3.01,2.81,0,.58-.48,1.06-.99,1.06-.28,0-.53-.12-.73-.44-.41-.67-1.1-1.36-1.65-1.82.02,2.69.11,4.69.11,4.69v.02c0,.6-.53.92-1.06.92-.51,0-1.01-.3-1.01-.9v-.05l.19-5.36c-.62,1.24-1.31,2.39-2.17,3.35-.23.28-.48.37-.76.37-.35,0-.67-.18-.85-.48,0,1.22.02,2.18.02,2.64,0,.53.27.85.83.87.46.02,1.24.03,2.11.03,1.95,0,4.48-.02,5.59-.04h.02ZM252.87,64.83c-.3-.74-.94-1.54-1.17-1.82-.14-.16-.18-.32-.18-.46,0-.44.51-.78.99-.78.87,0,2.07,2,2.07,2.62,0,.57-.48.96-.97.96-.3,0-.58-.16-.74-.53Z"/>
    <path d="M263.73,78.25c-.51,0-1.01-.37-1.01-.9,0-.18.05-.39.18-.6.62-1.01,1.2-2.69,1.34-4.02.07-.55.46-.8.88-.8.51,0,1.01.37,1.01,1.04,0,.62-.69,3.52-1.5,4.78-.23.34-.58.5-.9.5ZM281.2,71.19c0-.28,0-.48,0-.71,0-1.17,0-1.47-1.15-1.5-.87-.02-2.12-.05-3.27-.05-2.94,0-3.13.02-3.2,1.15v1.15s0,.02,0,.02c0,.6-.48.92-.97.92s-.97-.32-.96-.94v-.64c-.16.39-.53.62-.87.62-.25,0-.67-.14-.85-1.04-.34.07-.76.14-1.24.21l.03,8.37c0,.71-.53,1.08-1.06,1.08s-1.03-.35-1.03-1.06v-.02l.08-8.07c-1.1.16-2.51.34-2.71.34-.55,0-.85-.48-.85-.94,0-.41.25-.83.74-.85.28-.02.62-.04,1.01-.07.42-.48.9-1.08,1.36-1.72-.71-.76-2.07-1.77-2.6-2.14-.3-.21-.44-.51-.44-.76,0-.48.39-.92.92-.92.18,0,.35.07.62.21.65-1.03,1.45-2.73,1.78-3.98.12-.46.51-.67.92-.67.55,0,1.15.39,1.15.95,0,.76-1.8,3.98-2.35,4.78.37.3.73.64,1.03.92.74-1.2,1.38-2.44,1.75-3.33.16-.41.51-.57.85-.57.57,0,1.15.42,1.15,1.01,0,.64-1.98,3.79-3.67,6,.69-.07,1.36-.16,1.89-.23-.09-.16-.21-.3-.3-.44-.14-.18-.18-.35-.18-.51,0-.41.39-.69.83-.69,1.01,0,1.88,2.14,2.04,2.62v-.48c.03-1.17.69-1.95,2.21-1.97,1.29-.02,2.71-.02,4.14-.02,1.03,0,2.07,0,3.06.03,1.06.02,2.18.74,2.23,2.14.02.3.02.62.02.92,0,.32,0,.62-.02.9-.02.62-.55.92-1.08.92-.51,0-1.01-.3-1.01-.9v-.02ZM270.29,75.68c-.16-.92-.53-1.84-.99-2.6-.11-.18-.16-.37-.16-.51,0-.44.39-.74.83-.73,1.31,0,2.25,3.04,2.25,3.57,0,.64-.55,1.06-1.06,1.06-.39,0-.78-.23-.87-.78ZM271.02,79.85c-.71,0-1.1-.55-1.1-1.11,0-.46.28-.9.85-1.01,3.15-.59,3.89-2.8,3.9-6.2,0-.28-.02-.55-.02-.85v-.05c0-.69.48-1.01.99-1.01.53,0,1.08.37,1.1,1.08,0,.3.02.58.02.87,0,3.68-.93,7.31-5.39,8.22-.12.02-.23.05-.35.05ZM273.5,66.21c-.62,0-.92-.42-.92-.85,0-.46.32-.92.92-.92h2.67s0-1.21,0-1.21h-3.54c-.64,0-.94-.44-.94-.88,0-.46.32-.94.94-.94h3.54s0-1.38,0-1.38c0-.69.53-1.01,1.04-1.01.55,0,1.08.35,1.08,1.01v1.38s3.98,0,3.98,0c.6,0,.9.46.9.9,0,.46-.3.92-.9.92h-3.98s0,1.21,0,1.21h2.9c.6,0,.87.44.87.88,0,.46-.28.9-.88.9h-7.68ZM281.79,75.33c0-.64.46-.92.94-.92.28,0,1.13.07,1.13,1.11,0,2.53-.65,3.88-3.52,3.88-2.28,0-2.71-1.06-2.71-2.65,0-.92.05-5.57.1-6.28.05-.57.58-.9,1.08-.89.97,0,.96.88.96,1.24,0,1.24-.1,4.3-.1,5.45,0,.94.25,1.1.8,1.11,1.01,0,1.31-.23,1.31-1.79,0-.07,0-.16,0-.23v-.02Z"/>
    <path d="M297.11,64.87l-.03,2.64h2.83c1.36,0,2.16.77,2.16,1.82,0,1.38-2.08,3.93-4.15,5.79,1.86,1.08,4.18,1.75,7.06,1.8.62,0,.96.53.96,1.11,0,.64-.44,1.33-1.38,1.33-3.91,0-6.96-1.74-8.48-2.8-4.37,3.05-8.56,3.3-8.79,3.3-.74,0-1.15-.6-1.15-1.2,0-.55.32-1.06,1.08-1.12,2.78-.25,5.15-1.17,7.06-2.38-1.06-.97-3.03-3.27-3.03-4.19,0-.62.6-1.01,1.15-1.01.35,0,.67.14.85.46.76,1.27,1.67,2.42,2.82,3.41,1.89-1.63,3.16-3.47,3.16-3.95,0-.21-.18-.34-.53-.35-.67,0-1.52,0-2.48,0-1.91,0-4.21,0-6.16.06h-.05c-.67,0-1.01-.48-1.01-.99,0-.53.37-1.08,1.08-1.08h4.76s-.02-2.66-.02-2.66l-7.11.04c-.74,0-1.13-.53-1.13-1.06,0-.53.39-1.06,1.13-1.06l7.11.06-.02-2.39c0-.67.58-.97,1.13-.96.6,0,1.19.32,1.19.97l-.03,2.39,7.22-.04c.74,0,1.1.53,1.1,1.06,0,.53-.37,1.06-1.1,1.06l-7.22-.06Z"/>
    <path d="M320.91,70.56c-.16.44-.3.85-.48,1.26,1.31-.02,3.79-.06,4.16-.06.99,0,1.61.62,1.61,1.43,0,.23-.07.51-.19.76-.44.94-1.06,1.82-1.87,2.62,1.08.51,2.44.9,4.09,1.09.58.07.87.48.87.92,0,.53-.42,1.08-1.22,1.08-1.01,0-3.52-.7-5.31-1.83-2.19,1.45-4.88,2.06-5.31,2.06-.62,0-.94-.48-.94-.94,0-.39.23-.78.74-.87,1.56-.27,2.9-.78,4-1.44-.78-.74-1.4-1.57-1.81-2.42-1.91,3.35-3.99,4.96-4.84,4.96-.53,0-.9-.37-.99-.81-.42.78-1.29,1.29-2.62,1.28-1.36,0-2.09-.3-2.09-1.25,0-.53.32-1.06.9-1.06.07,0,.14,0,.21.02.21.05.48.09.74.09.48,0,.94-.16.94-.76v-4.85c-1.19.62-1.6.85-2.04.85-.67,0-1.1-.55-1.1-1.11,0-.37.21-.74.67-.94.92-.39,1.73-.71,2.48-1.08v-3.47s-1.93,0-1.93,0c-.67,0-1.01-.51-1.01-1.01,0-.51.35-1.01,1.01-1.01h1.93s-.02-3.58-.02-3.58c0-.71.55-1.08,1.11-1.08.53,0,1.06.35,1.06,1.08v3.59s1.42,0,1.42,0c.69,0,1.01.51,1.01,1.01,0,.51-.32,1.01-1.01,1.01h-1.43s0,2.34,0,2.34c.28-.16.53-.32.81-.5.16-.12.32-.16.48-.16.51,0,.92.46.92.94,0,.53-.44.94-2.21,1.95,0,1.52-.03,2.69-.03,3.04,0,.37.06,2.46.09,3.27,0,.18,0,.39-.02.57.07-.07.16-.14.25-.21,2.35-1.38,4.08-4.04,5.05-6.78h-2.41c-.58,0-.87-.44-.87-.88,0-.41.3-.85.88-.85l2.9.03c.09-.44.19-.85.25-1.26h-2.39c-.6,0-.9-.44-.9-.88,0-.44.3-.87.9-.87h.78s-.09-.11-.11-.18c-.3-.71-.5-.9-.76-1.2-.14-.16-.18-.3-.18-.44,0-.44.51-.8.99-.8.71,0,1.63,1.38,1.63,1.91,0,.3-.14.55-.35.74h2.23c-.25-.04-.46-.23-.53-.57-.16-.76-.37-1.04-.55-1.36-.07-.12-.09-.21-.09-.3,0-.41.51-.69.97-.69.97,0,1.42,1.77,1.42,2,0,.48-.42.83-.85.92h1.59c.51-.73,1.01-1.86,1.34-2.8.12-.34.44-.48.76-.48.55,0,1.15.37,1.15.88,0,.51-1.13,2.21-1.25,2.39h1.4c.64,0,.97.44.96.88,0,.44-.32.87-.97.87l-5.2-.03c-.07.41-.16.85-.28,1.29h6.23c.62-.01.94.42.94.86,0,.41-.32.85-.94.85l-6.76-.03ZM316.99,62.97c-.71,0-1.06-.51-1.06-.99,0-.48.32-.94,1.01-.94h.05c.37.02.74.02,1.15.02,2.55,0,5.59-.24,7.91-.77.09-.02.16-.02.25-.02.62,0,1.08.51,1.08,1.01,0,.39-.25.76-.9.9-3.08.71-8.49.79-9.5.79ZM323.94,73.49c0-.21-.21-.23-.34-.23-.14,0-1.68.04-2.94.04.41.81,1.01,1.59,1.86,2.26,1.2-1.15,1.43-2.07,1.43-2.07Z"/>
    <path d="M343.88,78.69c-.3.02-.9.04-1.47.04-2.23,0-4.88-.1-4.96-2.97-.04-.97-.04-2.69-.04-4.55,0-2.81.03-5.93.08-7.4.07-2.88,2.62-2.92,4.58-2.91.51,0,.99.02,1.33.05,3.82.26,5.24,2.28,5.24,4.22,0,1.75-1.16,3.45-2.76,3.67-.23.05-.37.09-.37.14,0,.02.09.07.35.09,2.48.19,3.81,2.17,3.81,4.31,0,2.46-1.8,5.1-5.78,5.33ZM347.01,73.11c0-1.36-.92-2.69-3.03-2.86-.57-.05-1.17-.07-1.75-.07-2.14,0-2.35.07-2.35.53,0,2.88,0,3.93.06,4.55.11.85.34,1.13,2.48,1.13.53,0,1.1-.02,1.54-.04,1.91-.11,3.04-1.7,3.04-3.24ZM341.97,63.26c-1.47,0-1.93.18-2,1.05-.05.55-.03,1.86-.05,3.2,0,.48.32.48,1.84.49.55,0,1.15,0,1.56-.02,1.66-.09,2.72-1.38,2.72-2.59,0-1.08-.85-2.09-2.87-2.1,0,0-.6-.02-1.2-.02Z"/>
    <path d="M359.05,79.33c-.71,0-1.08-.46-1.08-.94,0-.46.37-.94,1.08-.94l7.54.03v-2.09s-5.49.01-5.49.01c-.69,0-1.03-.46-1.03-.92,0-.46.35-.92,1.04-.92l5.47.03v-1.33c-.21.16-.46.23-.73.23-.51,0-1.01-.28-1.01-.88l.03-4.48h-2.23c-.53,3.7-2.65,5.72-3.71,5.72-.6,0-1.01-.42-1.01-.92,0-.25.12-.53.39-.76,1.61-1.4,2.14-2.46,2.35-4.02h-1.82s-.02,0-.02,0c-.69,0-1.01-.46-1.01-.94,0-.46.35-.94,1.01-.94h.02l1.93.03.02-.58c.02-.37.02-.71.02-1.03,0-.34,0-.67-.02-1.01h-1.24s-.02,0-.02,0c-.67,0-1.01-.46-1.01-.92,0-.48.35-.96,1.04-.96h8.48c.62.01.92.5.92.96,0,.48-.3.94-.9.94h-1.22s.02,2.62.02,2.62l1.84-.02h.02c.6,0,.9.46.9.94,0,.46-.3.94-.9.94h-1.86s.02,4.25.02,4.25c.21-.21.53-.32.83-.32.55,0,1.1.37,1.1,1.08v1.43s5.29-.02,5.29-.02c.69,0,1.03.46,1.03.92,0,.46-.35.92-1.04.92l-5.29-.03v2.09s7.4-.01,7.4-.01c.64,0,1.01.51,1.01.99,0,.46-.32.9-1.01.9l-17.15-.03ZM364.87,62.65h-2.05c0,.78-.02,1.51-.03,2.13v.51s2.07,0,2.07,0v-2.64ZM370.18,61.94c0-.67.51-.99.99-.99.53,0,1.03.35,1.03.99v6.76c-.01.62-.52.92-1.02.92-.51,0-1.01-.3-1.01-.92v-6.76ZM376.66,69.7v.05c0,1.33-.79,2.83-3.11,2.82-1.49,0-2.35-.35-2.34-1.22,0-.55.37-1.1.99-1.1.09,0,.21.02.3.05.34.09.74.18,1.06.19.53,0,.94-.23.97-1.15,0-.94.03-4.83.03-7.13,0-.57,0-1.06,0-1.38,0-.67.51-.99,1.04-.99.51,0,1.03.32,1.03.99v6.28s.03,2.6.03,2.6Z"/>
    <path d="M388.14,65.14l-2.9-.05c-.05.69-.09,1.4-.14,2.12.28-.02.55-.02.83-.02,1.38,0,2.6.14,2.6,2.05,0,.05,0,.09,0,.14-.15,4.74-.36,9.82-3.85,9.81-.34,0-2.02-.07-2.02-1.31,0-.05,0-.09,0-.14-.65,1.13-1.08,1.79-1.8,1.79-.6,0-1.17-.46-1.17-1.01,0-.21.07-.39.23-.6,2.51-3.12,3.05-8.27,3.28-12.8l-1.61.02h-.02c-.67,0-1.01-.51-1.01-1.01,0-.51.35-1.01,1.01-1.01h.02l2.21.05-.02-2.58c0-.71.55-1.06,1.13-1.06.55,0,1.13.35,1.12,1.06v2.58s2.13-.04,2.13-.04h.02c.67,0,.96.48.96.99,0,.51-.35,1.03-.99,1.03h-.02ZM384.94,69.05c-.3,2.83-.84,5.68-1.92,7.98.12-.09.3-.16.51-.16.12,0,.28.02.41.09.25.12.46.16.67.16.44,0,1.79-.04,1.9-7.33,0-.48-.25-.71-.62-.74h-.94ZM391.73,64.69c-1.2,2.09-1.68,2.73-2.42,2.73-.55,0-1.08-.42-1.08-.97,0-.21.09-.46.28-.69,1.36-1.68,2.26-3.56,2.95-5.47.16-.46.55-.67.94-.67.58,0,1.13.39,1.13.99,0,.44-.69,1.91-.78,2.09l6.65-.04c.67,0,.99.51.99,1.01,0,.51-.32,1.01-.99,1.01h-7.66ZM395.86,75.5c0,.55-.48.83-.97.83-.51,0-.99-.28-.99-.83v-5.15c-.52.28-1.05.55-1.56.8,0,1.96,0,3.93.02,5.27,0,.99.55,1.04,2.53,1.04,2.87,0,3.98,0,3.98-2.06,0-.67.46-.97.94-.96.32,0,1.1.14,1.1,1.13,0,2.18-1.09,3.56-3.34,3.81-.53.04-1.38.07-2.25.07-3.31,0-4.9-.08-4.94-2.51-.02-1.52-.02-3.15-.02-4.78l-.55.28c-.16.07-.3.11-.44.11-.51,0-.87-.48-.87-.97,0-.3.14-.6.51-.78l1.38-.69c0-.85.03-1.66.03-2.46,0-.64.51-.94.99-.94.48,0,.97.3.96.9v.02c0,.48-.02,1.01-.02,1.54l1.56-.73v-2.25c0-.6.49-.9.99-.9.48,0,.97.3.96.9v1.31s.67-.32.67-.32c.35-.18.74-.25,1.1-.25,1.89,0,1.93,1.73,1.93,2.51,0,.92-.1,2.02-.17,2.88-.21,2.16-1.04,2.9-2.46,2.89-.64,0-.83-.05-1.08-.25v.58ZM395.86,73.32c.12-.09.23-.14.39-.14.05,0,.14,0,.21.02.14.05.25.07.37.07.23,0,.78-.11.79-3.26,0-1.15-.11-1.22-.34-1.22-.07,0-.14.02-.23.07-.3.14-.69.32-1.17.55v3.91Z"/>
    <path d="M404,65.26c-.67,0-1.01-.48-1.01-.97,0-.48.35-.97,1.01-.96h6.81c.69.01,1.01.5,1.01.98,0,.48-.32.96-1.01.96h-6.81ZM412.41,70.65c-.55,0-.83-.46-.83-.94,0-.46.28-.94.81-.94.9-.02,2.07-.02,3.29-.02,1.22,0,2.46,0,3.5.03,1.47.03,2.02.85,2.02,1.75,0,1.31-1.41,3.52-2.74,5.05,1.19.88,2.69,1.52,4.48,1.89.6.12.87.58.87,1.04,0,.6-.44,1.2-1.27,1.19-.99,0-3.61-1.02-5.56-2.65-2.97,2.59-5.66,2.91-5.75,2.91-.6,0-1.06-.53-1.12-1.06-.58.3-1.2.32-2.83.32-.64,0-1.31-.03-1.77-.05-1.08-.07-1.75-.81-1.77-1.82-.02-.51-.02-.97-.02-1.43,0-.64,0-1.24.03-1.82.02-.87.58-1.68,1.73-1.75.53-.02,1.13-.04,1.72-.04.74,0,1.45.02,2,.05.9.05,1.88.65,1.91,1.64.02.53.02,1.1.02,1.68,0,.57,0,1.15-.03,1.66,0,.18-.05.37-.09.53,1.73-.37,3.27-1.21,4.51-2.27-1.29-1.52-2.06-3.15-2.06-3.52,0-.57.58-.96,1.1-.96.35,0,.69.16.85.55.41.92.92,1.75,1.54,2.49,1.15-1.38,1.77-2.89,1.78-3.24,0-.28-.34-.3-.51-.3-.44,0-.94,0-1.47,0-1.43,0-3.04.02-4.3.04h-.02ZM404.95,62.11c-.69,0-1.06-.48-1.06-.94,0-.48.37-.94,1.06-.94h4.78c.64,0,.96.47.96.95,0,.46-.32.94-.97.94h-4.78ZM404.98,71.21c-.67,0-1.01-.48-1.01-.94,0-.48.35-.94,1.01-.94h4.78c.64,0,.97.47.96.95,0,.46-.32.94-.97.94h-4.78ZM404.99,68.25c-.67,0-.99-.48-.99-.94,0-.48.32-.94.99-.94h4.78c.64,0,.97.47.96.95,0,.46-.32.94-.97.94h-4.78ZM409.09,75.75c0-.37,0-.74-.02-1.06-.04-.6-.55-.62-1.72-.62-.32,0-.64,0-.99.02-.67.05-.67.44-.67,1.66,0,.37.02.74.02,1.08.02.48.46.55,1.63.55,1.31,0,1.7-.13,1.73-.57.02-.32.02-.69.02-1.06ZM421.43,64.36c0-.55.46-.78.94-.78.53,0,1.1.3,1.1.81v.16c0,2.81-1.27,3.33-3.02,3.33-2.46,0-2.71-.92-2.71-2.67,0-.85.03-1.84.03-2.53,0-.64-.53-.67-.96-.67-.83,0-1.38,0-1.38.71,0,2.14-.24,3.82-2.08,5.24-.25.21-.53.28-.78.28-.67,0-1.2-.55-1.19-1.08,0-.25.12-.51.39-.69,1.33-.87,1.59-1.79,1.59-3.45,0-.28-.02-.58-.02-.9v-.05c0-1.82,1.84-1.91,3.08-1.9,2.74,0,3.45.28,3.45,2.76,0,.74-.05,1.33-.05,1.98,0,.09,0,.21,0,.32,0,.46.21.76.73.76.78,0,.87-.6.88-1.4v-.23Z"/>
  </g>
  <g>
    <path d="M197.26,46.03c-.13-2.74,1.35-4.75,1.93-5.79.06-.09.14-.21.02-.18-.23.06-.61.11-1.14.14-1.2.06-1.13-1.6.08-1.57,1.23.03,2.24-.19,2.9-.58.98-.56,1.77.87.67,1.42-1.07.53-3.37,3.56-3.04,6.57.26,2.3,2.33,2.5,3.92,1.03,1.94-1.8,1.88-5.29,1.46-6.26-.09-.2-.24-.56-.4-.82-.62-1.08.92-1.87,1.56-.62.58,1.14,1.34,1.98,2.95,2.87,1.05.58.13,2.06-.92,1.4-.65-.41-1.26-1.04-1.64-1.53-.09-.12-.14-.15-.09,0,.35,1.39-.02,4.27-1.98,6.2-2.17,2.15-6.07,1.88-6.26-2.26Z"/>
    <path d="M213.52,39.5c-.79-.98.7-1.8,1.31-.93.65.93,1.34,2.29,1.78,3.55.82-.58,1.69-1.12,2.69-1.67,1.04-.58,1.83.89.65,1.48-1.56.79-3.13,1.67-4.33,2.69-1.51,1.28-1.56,2.42-.37,3,1.07.54,3.25.14,4.16-.19,1.28-.49,1.74,1.27.38,1.65-1.2.33-3.75.63-5.26-.13-2.19-1.12-2.1-3.58.37-5.55.15-.12.29-.24.44-.35-.4-1.21-1.12-2.7-1.82-3.55Z"/>
    <path d="M228.99,48.68c2.36-1.54,3.71-4.83,2.66-8.01-.5-1.53-1.95-.96-2.39-.02-.44.93-.48,1.55-.4,2.88.07,1.48-1.57,1.46-1.66.36-.09-1.21.17-2.67.36-3.52.17-.78.46-1.78.58-2.71.12-.96,1.6-.78,1.52.14-.05.52-.23,1.05-.4,1.42-.2.41-.05.21.11.02,1.12-1.43,3.1-.8,3.72.92,1.11,3.08.55,7.09-3.03,9.72-1.24.91-2.35-.35-1.06-1.19Z"/>
    <path d="M239.65,46.09c-.13-2.74,1.35-4.75,1.93-5.79.06-.09.14-.21.02-.18-.23.06-.61.11-1.14.13-1.2.06-1.13-1.6.08-1.57,1.23.03,2.24-.2,2.9-.58.98-.56,1.77.87.67,1.42-1.07.53-3.37,3.56-3.04,6.57.26,2.3,2.33,2.5,3.92,1.03,1.94-1.8,1.88-5.29,1.46-6.26-.09-.2-.24-.56-.4-.82-.62-1.08.92-1.87,1.56-.62.58,1.14,1.34,1.98,2.95,2.87,1.05.58.13,2.06-.92,1.4-.65-.41-1.26-1.04-1.64-1.53-.09-.12-.14-.15-.09,0,.35,1.39-.02,4.27-1.98,6.2-2.17,2.15-6.07,1.88-6.26-2.26Z"/>
    <path d="M255.9,39.56c-.79-.98.7-1.8,1.31-.93.65.93,1.34,2.29,1.78,3.55.82-.58,1.69-1.12,2.69-1.67,1.04-.58,1.83.89.65,1.48-1.56.79-3.13,1.67-4.33,2.69-1.51,1.28-1.56,2.42-.37,3,1.07.54,3.25.14,4.16-.19,1.28-.49,1.74,1.27.38,1.65-1.2.33-3.75.63-5.26-.13-2.19-1.12-2.1-3.58.37-5.55.15-.12.29-.24.44-.35-.4-1.21-1.12-2.7-1.82-3.55Z"/>
    <path d="M271.37,48.74c2.36-1.54,3.71-4.83,2.66-8.01-.5-1.53-1.95-.96-2.39-.02-.44.93-.48,1.55-.4,2.88.07,1.48-1.57,1.46-1.66.36-.09-1.21.17-2.67.36-3.52.17-.78.46-1.78.58-2.71.12-.96,1.6-.78,1.52.14-.05.52-.23,1.05-.4,1.42-.2.41-.05.21.11.02,1.12-1.43,3.1-.8,3.72.92,1.11,3.08.55,7.09-3.03,9.72-1.24.91-2.35-.35-1.06-1.19Z"/>
    <path d="M288.22,41.31c-.25,1.94-1.62,4.81-3.09,6.17-1.18,1.08-2.46.48-3.12-.83-.96-1.89.07-4.72,2.11-6.14,1.88-1.29,4.67-1.5,6.59-.34,2.36,1.42,2.74,4.23,1.41,6.4-.72,1.17-2.21,2.12-3.72,2.51-1.34.35-1.81-1.19-.5-1.5,1.16-.26,2.33-.91,2.84-1.7,1.08-1.71.68-3.7-.83-4.67-.59-.38-1.23-.57-1.89-.61.17.15.26.4.21.7ZM284.84,41.6c-1.42,1.09-2.18,3.12-1.55,4.3.23.44.62.67,1.01.34,1.14-1,2.21-3.43,2.37-5.07.02-.18.06-.35.14-.47-.7.15-1.39.47-1.97.91Z"/>
    <path d="M308.78,47.79v.03c0,1.07-.77,2.3-3.17,2.3-1.49,0-2.1-.23-2.1-.89,0-.37.28-.72.75-.72.05,0,.12,0,.18.02.43.08.84.12,1.2.12.93,0,1.57-.29,1.57-1.08,0-1.51.04-5.96.04-8.28h-8.8c-.47-.01-.7-.36-.7-.7,0-.35.23-.69.7-.68l11.69.02c.49,0,.73.35.73.69,0,.35-.25.69-.73.68h-1.4c0,1.83,0,5.32,0,6.34l.03,2.15ZM303.72,46.44c-.44.01-.91.03-1.37.03-.47,0-.93-.02-1.36-.03-.85-.05-1.54-.6-1.57-1.45-.01-.44-.01-.91-.01-1.4,0-.47,0-.96.02-1.42.03-.7.52-1.28,1.39-1.32.38-.01.84-.03,1.31-.03.58,0,1.17.02,1.66.03.78.03,1.48.44,1.52,1.24.03.52.04,1.08.04,1.65,0,.43-.02.85-.05,1.25-.08.82-.67,1.42-1.59,1.46ZM303.89,43.81c0-.43-.01-.85-.03-1.22-.01-.44-.15-.47-1.51-.47-.35,0-.7,0-.95.01-.56.03-.56.29-.57,1.51,0,.33,0,.67.01.99.01.49.36.52,1.61.52,1.23,0,1.36-.11,1.39-.47.03-.26.03-.56.03-.87Z"/>
    <path d="M314.57,41.46c-.46,0-.69-.32-.69-.64s.23-.66.67-.65c.21,0,.44-.01.69-.03.35-.66.93-1.98,1.15-2.77.09-.32.34-.46.61-.46.38,0,.79.28.79.69,0,.08-.09.69-1.13,2.44.67-.06,1.34-.15,1.95-.24-.08-.08-.17-.14-.24-.2-.17-.12-.23-.26-.23-.4,0-.29.32-.56.67-.56.44,0,1.93,1.33,1.93,2.03,0,.4-.32.7-.66.7-.29,0-.41-.12-.68-.58-1.81.39-4.07.68-4.83.68ZM316.12,47.28c0,.85.01,1.68.03,2.29v.02c0,.43-.32.62-.63.62-.34,0-.66-.21-.67-.64,0-.82-.01-1.97-.01-3.09,0-1.14.02-2.29.02-3.12.03-1.33.75-1.36,2.52-1.35.47,0,.96.02,1.25.03.87.05,1.28.52,1.29,1.34,0,.23.01,2.59.03,3.09.02.26.01.66.01,1.04,0,.37,0,.73,0,.96v.06c0,.96-.64,1.58-1.68,1.58-.69,0-1.28-.15-1.28-.78,0-.3.18-.59.53-.59.05,0,.09,0,.15.02.2.05.37.08.5.08.32,0,.5-.15.52-.66,0-.24.02-.55.02-.88h-2.61ZM316.12,45.26v.98s2.61,0,2.61,0c0-.32-.01-.66-.01-.98h-2.59ZM318.7,44.19c0-.2-.01-.38-.01-.55,0-.46-.11-.49-1.29-.49-1.1,0-1.2.03-1.24.49,0,.17-.02.35-.02.55h2.56ZM322.47,47.9c0,.69.58.72,1.43.72,1.11,0,1.78-.21,1.79-1.13,0-.43.34-.62.69-.62.08,0,.82.02.82.78,0,1.66-1.18,2.25-3.34,2.25-1.28,0-2.81-.08-2.8-1.77,0-.93.02-3.16.04-3.96,0-.44.35-.66.7-.66.37,0,.72.21.72.64v.02c0,.37-.02.9-.02,1.48.96-.35,2.04-.81,2.81-1.22.11-.06.23-.09.34-.09.4,0,.72.37.72.75,0,.24-.12.49-.47.64-.9.41-2.33.88-3.4,1.15v1.02ZM322.48,41.2c0,.72.64.72,1.42.72,1.43,0,1.72-.42,1.72-1.11,0-.43.32-.61.67-.61.09,0,.81.02.81.76,0,1.68-1.19,2.21-3.25,2.21-2.07,0-2.79-.54-2.79-1.74,0-.9.02-2.97.04-3.77,0-.43.37-.64.72-.64.35,0,.7.21.7.63h0c0,.4-.03.95-.03,1.51.96-.32,2.09-.76,2.85-1.15.11-.06.21-.08.32-.08.4,0,.72.35.72.72,0,.24-.14.49-.49.64-.9.38-2.33.82-3.4,1.08v.84Z"/>
    <path d="M330.28,43.17c0-.15.05-.32.15-.5.38-.62.58-1.42.58-2.19,0-.43.29-.61.61-.61.3,0,.72.2.72.69,0,.59-.39,3.28-1.41,3.28-.35,0-.65-.28-.65-.66ZM332.64,37.52c0-.47.37-.7.73-.7.37,0,.75.24.75.7v1.97c.12-.08.26-.12.39-.12.41,0,1.42,1.02,1.42,1.54,0,.38-.37.69-.7.68-.17,0-.34-.09-.44-.29-.2-.41-.47-.76-.67-.99v9.31c-.01.44-.38.65-.76.65-.37,0-.73-.21-.73-.66l.02-12.1ZM335.64,49.69c-.49,0-.72-.32-.72-.64,0-.33.26-.69.72-.68l3.35.02v-2.88s-1.99.01-1.99.01c-.49,0-.72-.31-.72-.63,0-.34.26-.69.72-.69l2,.02v-2.45s-1.67.01-1.67.01c-.32.76-.72,1.48-1.19,2.18-.21.3-.46.41-.7.41-.35,0-.67-.29-.67-.66,0-.14.05-.3.17-.46.81-1.1,1.56-2.67,1.84-4.65.06-.47.38-.67.7-.67.38,0,.76.28.76.72,0,.23-.2,1.07-.43,1.81l1.2.02v-2.91c0-.47.37-.7.75-.7.37,0,.73.23.73.7v2.91s2.56-.01,2.56-.01c.49,0,.73.34.73.66,0,.33-.24.66-.73.65l-2.56-.02v2.45s1.99-.01,1.99-.01c.49,0,.73.34.73.66,0,.33-.24.66-.73.65l-2-.02v2.88s3.07,0,3.07,0c.46,0,.69.34.69.67,0,.34-.23.66-.69.66h-7.91Z"/>
    <path d="M353.86,38.96c.24-.09.47-.18.64-.27.84-.5,1.66.76.53,1.33-.38.18-1.04.36-1.68.5-.2.49-.46,1.04-.73,1.54,1.05-.18,2.06.2,2.56,1.33.63-.32,1.27-.64,1.86-.9.37-.15.78-.33,1.19-.56,1.14-.64,1.83.89.85,1.37-.49.24-.84.32-1.65.62-.64.24-1.33.55-1.94.84.04.5.06,1.13.03,1.68-.03.61-.43.93-.81.94s-.73-.28-.68-.87c.02-.32.03-.67.03-.99-.14.08-.27.15-.4.23-1.89,1.22-1.66,2.13-.81,2.56.81.41,2.3.11,3.02-.12,1.34-.41,1.77,1.24.36,1.6-.9.23-2.97.45-4.16-.22-2.06-1.16-1.69-3.22,1.07-5.03.21-.14.46-.3.75-.47-.41-1.28-1.58-1.13-2.58.01-.02.01-.05.04-.06.06-.14.17-.24.3-.35.4-.84.75-1.95-.12-1.04-.95.4-.37.92-.91,1.24-1.43.26-.43.5-.88.72-1.35-.82.12-1.4.07-1.89-.17-1.1-.55-.35-1.98.72-1.26.29.2.9.12,1.43.03.06-.01.15-.01.23-.03.11-.44.14-.75.17-1.28.06-.91,1.5-.82,1.52-.07.02.3-.05.59-.12.88l-.03.06Z"/>
    <path d="M375.02,46.18l-2.85-.03c-.02.98-.02,1.8-.02,2,.03.56.52.62,1.26.63.98,0,1.45-.24,1.45-1.14,0-.47.34-.69.7-.69.31,0,.82.15.82.84,0,1.8-1.02,2.35-3.1,2.34-.82,0-2.56-.02-2.56-1.77,0-.2,0-1.14.02-2.23l-1.65-.02c-.28,1.86-1.25,3.58-4.29,4.2-.09.01-.18.03-.26.03-.53,0-.79-.38-.79-.76,0-.3.18-.62.55-.67,2.3-.32,3.08-1.4,3.33-2.79l-2.42.04h-.02c-.49,0-.7-.32-.7-.66,0-.37.25-.73.72-.73l2.53.02v-1.78s-.18,0-.18,0c-.33,0-.53-.15-.64-.35-1.19.88-2.41,1.46-2.75,1.46-.41,0-.7-.37-.7-.75,0-.26.14-.52.46-.65,3.17-1.34,4.88-3.88,4.88-4.05,0-.11-.09-.15-.24-.15-.56.01-1.28.03-2.15.03-.43,0-.64-.32-.64-.64,0-.33.21-.66.64-.65h.61c.52,0,1.01,0,1.54,0,.98,0,1.75.02,1.95.86.15,0,.29.08.41.21.2.23.4.46.61.69.44-.43.9-.96,1.13-1.33.14-.21.32-.29.5-.29.4,0,.79.37.79.76,0,.52-1.18,1.51-1.5,1.77.24.23.47.43.73.64.52-.41,1.1-.99,1.4-1.4.14-.18.31-.26.49-.26.38,0,.79.38.79.78,0,.33-.5.87-1.6,1.67.64.43,1.31.79,2.03,1.09.34.14.49.4.49.64,0,.4-.35.79-.85.79-.62,0-1.83-.79-2.79-1.56v.03c0,.34-.23.67-.72.67h-.24c0,.46-.02,1.1-.02,1.78h2.83c.49-.01.73.34.73.69s-.23.69-.72.68h-.02ZM365.73,40.74c-.43-.47-1.08-.92-1.32-1.05-.21-.12-.3-.29-.3-.46,0-.33.34-.67.76-.67.61,0,1.87,1.08,1.92,1.13.14.15.2.32.2.47,0,.43-.4.79-.79.79-.17,0-.32-.06-.46-.21ZM372.4,41.68c-.85-.76-1.64-1.59-2.25-2.32-.55.75-1.24,1.55-2.06,2.31h4.31ZM370.77,44.8c0-.69,0-1.33.02-1.78h-1.6s0,1.43,0,1.43c0,.12.02.23.01.35h1.57Z"/>
    <path d="M380.72,50.38c-.49,0-.78-.37-.78-.72,0-.32.21-.62.69-.68,1.98-.27,3.25-1.03,3.86-2.33.15-.34.43-.46.69-.46.4,0,.81.32.81.72,0,.11-.03.2-.08.3-1.36,2.86-5.19,3.16-5.19,3.16ZM384.23,45.9c-1.1-.03-1.75-.66-1.78-1.53-.03-.67-.04-1.77-.04-2.83,0-1.08.02-2.13.05-2.73.03-.72.49-1.45,1.68-1.49.7-.03,1.62-.03,2.56-.03.93,0,1.89,0,2.67.03.91.03,1.55.72,1.58,1.39.03.67.04,1.65.04,2.65,0,1.11-.02,2.24-.05,2.99-.03.82-.67,1.52-1.66,1.55-.26,0-.52.03-.78.03-.02.61-.03,1.33-.03,1.81,0,.84.18,1.04,1.49,1.04,1.17,0,1.91-.18,1.91-1.55,0-.49.35-.72.72-.72.26,0,.81.12.81.83,0,2.62-1.77,2.82-3.51,2.81-1.54,0-2.87-.16-2.86-1.85,0-.41,0-1.55.02-2.38-.95,0-1.92-.02-2.8-.04ZM389.57,41.02h-5.78s0,1.18,0,1.18h5.78s0-1.18,0-1.18ZM383.8,43.37c0,.23.01.43.01.61.01.49.29.66.73.67.7.03,1.46.05,2.24.05.69,0,1.37-.01,2.03-.04.73-.03.73-.59.73-1.28h-5.75ZM389.56,39.85c0-.23-.03-.44-.03-.61-.02-.4-.21-.62-.72-.66-.5-.02-1.17-.03-1.89-.03-.85,0-1.74.01-2.38.03-.47.01-.7.35-.72.67,0,.17-.02.37-.02.59h5.75Z"/>
    <path d="M400.12,45.55c-.53-1.48.29-2.58,1.22-2.86.44-.14.9-.2,1.31-.14-.01-.33-.03-.79-.04-1.24-1.28.12-2.55.3-3.34.42-1.1.17-1.81.36-2.27.44-1.02.18-1.32-1.34-.12-1.54.61-.11,1.6-.21,2.24-.32.76-.12,2.13-.29,3.48-.41,0-.09,0-.2,0-.27.02-.95-.07-1.01-.07-1.49,0-1.11,1.54-1,1.6-.04.01.35-.03,1.05-.06,1.46,0,.08-.02.15-.02.23.44-.03.84-.04,1.17-.04.75,0,1.28-.01,2.32,0,1.28.03,1.22,1.65,0,1.55-1.08-.09-1.45-.09-2.39-.11-.35,0-.72.01-1.11.03.01.49.03.96.03,1.4,0,.21.03.53.04.87,1.35,2.14-.27,5.37-1.88,6.66-1.02.81-2.35-.28-1.02-1.22.73-.52,1.37-1.37,1.74-2.24-1.01.52-2.33.22-2.82-1.15ZM402.68,43.95c-.21-.18-.66-.21-.98-.06-.37.17-.61.64-.44,1.16.27.82,1.6.83,1.75-.26.05-.32,0-.46-.09-.58-.08-.09-.15-.18-.24-.26Z"/>
    <path d="M419.34,47.74c1.11-.99,1.07-2.44.2-3.02-.79-.53-2.44-.64-3.98.25-.61.35-.93.62-1.28,1.14-.55.81-2.07-.1-1.13-1.02,1.68-1.66,2.92-2.83,4.61-4.92.17-.21.02-.15-.11-.09-.43.23-1.43.53-2.56.77-1.2.26-1.43-1.25-.39-1.37,1.02-.12,2.49-.48,3.35-.74,1.22-.35,2.22.74,1.46,1.59-.49.55-1.1,1.14-1.71,1.71-.61.56-1.22,1.11-1.77,1.64,1.34-.71,3.16-.71,4.28-.04,2.19,1.31,1.47,4-.13,5.15-1.51,1.08-3.89,1.14-5.05.37-1.61-1.05-.9-2.94.9-3,1.22-.04,2.36.69,2.41,2.06.29-.06.61-.24.89-.49ZM416.09,47.28c-.67.06-.7.69-.21.95.35.18.85.25,1.28.23.02-.7-.39-1.24-1.06-1.18Z"/>
  </g>
  <g>
    <path d="M155.53,87.53c-.06,0-.12,0-.17-.02-.51-.09-.85-.59-.75-1.1.49-2.64.74-5.35.74-8.05,0-29.26-28.99-53.06-64.63-53.06S26.07,49.11,26.07,78.37c0,2.7.25,5.4.74,8.05.09.51-.24,1-.75,1.1-.51.1-1-.24-1.1-.75-.51-2.76-.77-5.58-.77-8.39,0-30.3,29.84-54.94,66.52-54.94s66.52,24.65,66.52,54.94c0,2.81-.26,5.63-.77,8.39-.08.45-.48.77-.93.77Z"/>
    <g>
      <path class="cls-7" d="M147.03,86.59c.43-2.33.66-4.71.66-7.14,0-25.91-25.51-46.92-56.98-46.92s-56.98,21.01-56.98,46.92c0,2.43.22,4.81.66,7.14"/>
      <path d="M147.03,87.53c-.06,0-.12,0-.17-.02-.51-.09-.85-.59-.75-1.1.43-2.29.64-4.64.64-6.97,0-25.35-25.14-45.98-56.04-45.98s-56.04,20.63-56.04,45.98c0,2.34.22,4.68.64,6.97.09.51-.24,1-.75,1.1-.51.1-1-.24-1.1-.75-.45-2.4-.67-4.86-.67-7.31,0-26.39,25.99-47.87,57.93-47.87s57.93,21.47,57.93,47.87c0,2.45-.23,4.91-.67,7.31-.08.45-.48.77-.93.77Z"/>
    </g>
    <g>
      <path class="cls-2" d="M82.63,33.92c0-2.34-1.9-4.24-4.24-4.24h-18.71c-2.34,0-4.24,1.9-4.24,4.24,0,.83.25,1.61.67,2.26h-1.61c-2.59,0-4.68,2.1-4.68,4.68s2.1,4.68,4.68,4.68h20.68c2.59,0,4.68-2.1,4.68-4.68,0-1.04-.35-1.99-.92-2.76,2.08-.27,3.69-2.03,3.69-4.18Z"/>
      <path d="M75.18,46.49h-20.68c-3.1,0-5.62-2.52-5.62-5.62s2.52-5.62,5.62-5.62h.17c-.12-.43-.17-.87-.17-1.32,0-2.86,2.32-5.18,5.18-5.18h18.71c2.86,0,5.18,2.32,5.18,5.18,0,2.12-1.31,3.99-3.21,4.77.29.69.45,1.42.45,2.17,0,3.1-2.52,5.62-5.62,5.62ZM54.5,37.12c-2.06,0-3.74,1.68-3.74,3.74s1.68,3.74,3.74,3.74h20.68c2.06,0,3.74-1.68,3.74-3.74,0-.79-.25-1.55-.74-2.21l-.95-1.29,1.58-.21c1.63-.21,2.87-1.61,2.87-3.25,0-1.82-1.48-3.29-3.29-3.29h-18.71c-1.82,0-3.29,1.48-3.29,3.29,0,.61.18,1.22.52,1.76l.92,1.45h-3.32Z"/>
    </g>
    <g>
      <path class="cls-6" d="M127.37,36.18h-1.61c.42-.66.67-1.43.67-2.26,0-2.34-1.9-4.24-4.24-4.24h-18.71c-2.34,0-4.24,1.9-4.24,4.24,0,2.15,1.61,3.91,3.69,4.18-.57.78-.92,1.73-.92,2.76,0,2.59,2.1,4.68,4.68,4.68h20.68c2.59,0,4.68-2.1,4.68-4.68s-2.1-4.68-4.68-4.68Z"/>
      <path d="M127.37,46.49h-20.68c-3.1,0-5.62-2.52-5.62-5.62,0-.75.15-1.49.45-2.17-1.9-.78-3.21-2.65-3.21-4.77,0-2.86,2.32-5.18,5.18-5.18h18.71c2.86,0,5.18,2.32,5.18,5.18,0,.45-.06.89-.17,1.32h.18c3.1,0,5.62,2.52,5.62,5.62s-2.52,5.62-5.62,5.62ZM103.48,30.62c-1.82,0-3.29,1.48-3.29,3.29,0,1.64,1.23,3.03,2.87,3.25l1.58.21-.95,1.29c-.48.65-.74,1.42-.74,2.21,0,2.06,1.68,3.74,3.74,3.74h20.68c2.06,0,3.74-1.68,3.74-3.74s-1.68-3.74-3.74-3.74h-3.33l.92-1.45c.34-.53.52-1.14.52-1.76,0-1.82-1.48-3.29-3.29-3.29h-18.71Z"/>
    </g>
    <path class="cls-4" d="M80.77,58.06c0,.26.1.54.09.79s-.14.52-.18.78-.28.48-.33.73.14.57.07.82-.16.51-.24.75-.23.48-.33.72-.24.47-.36.7-.36.4-.49.62-.09.57-.24.78-.39.37-.55.57-.41.34-.59.53-.49.23-.68.41-.35.37-.55.54-.39.33-.6.48-.38.36-.6.49-.46.23-.69.35-.4.37-.64.48-.44.31-.69.4-.54.05-.79.12-.56-.14-.82-.08-.47.31-.72.35-.51.18-.77.19-.53-.06-.79-.06-.52-.13-.77-.14-.54.15-.8.12-.54-.02-.79-.07-.52-.11-.77-.17-.4-.48-.64-.56-.54-.03-.78-.13-.47-.23-.7-.35-.49-.19-.71-.33-.3-.48-.52-.63-.61-.06-.81-.22-.18-.58-.37-.76-.34-.37-.52-.56-.62-.15-.78-.35-.11-.57-.26-.78-.57-.25-.7-.47.08-.64-.04-.87-.25-.44-.35-.68-.47-.37-.56-.61.14-.59.07-.84-.22-.47-.27-.73-.02-.51-.06-.77-.1-.5-.12-.76-.34-.51-.34-.77.06-.53.07-.79.28-.5.31-.75-.18-.56-.13-.82.23-.49.3-.74-.02-.56.07-.81.38-.42.49-.65.09-.54.21-.77.33-.42.46-.64.32-.42.46-.63.41-.34.58-.54.37-.35.55-.54.34-.38.53-.55.16-.61.36-.78.43-.32.64-.47.51-.18.73-.32.4-.37.63-.49.55-.06.79-.16.47-.21.72-.3.48-.19.74-.26.54.03.79-.02.46-.39.72-.43.54.19.8.17.51-.16.77-.16.51.23.77.25.53-.12.79-.09.52.03.78.09.54,0,.79.06.5.19.74.27.37.48.61.58.47.19.7.31.65-.09.87.04.44.31.65.46.25.54.45.71.48.24.67.42.47.27.65.46.17.54.34.74.4.35.55.56.24.46.37.69.47.34.59.57.14.52.25.75-.03.57.05.81.41.41.48.66.11.51.16.77.04.52.08.78.07.51.09.78.1.52.1.78Z"/>
    <g>
      <path d="M28.06,94.34h1.53v8.05c0,2.28,1.85,4.15,4.13,4.15s4.13-1.87,4.13-4.15v-8.05h1.53v8.09c0,3.13-2.53,5.64-5.66,5.64s-5.66-2.55-5.66-5.68v-8.05Z"/>
      <path d="M65.67,107.97h-1.53v-5.54c0-2.28-1.85-4.15-4.13-4.15s-4.13,1.87-4.13,4.15v5.54h-1.53v-5.58c0-3.13,2.53-5.64,5.66-5.64s5.66,2.55,5.66,5.68v5.54Z"/>
      <path d="M82.16,96.85v11.12h-1.53v-11.12h1.53Z"/>
      <path d="M106.87,103.15h1.56c-.45,3.34-3.8,5.75-7.39,4.65-1.72-.53-3.13-1.93-3.65-3.65-1.18-3.89,1.71-7.42,5.42-7.42,2.86,0,5.25,2.14,5.62,4.89h-1.56c-.44-2.24-2.68-3.86-5.15-3.22-1.41.36-2.57,1.51-2.93,2.91-.7,2.74,1.38,5.22,4.01,5.22,2.01,0,3.69-1.45,4.07-3.38Z"/>
      <path d="M129.05,96.7v1.54c-2.28.02-4.13,1.87-4.13,4.15v5.58h-1.53v-5.58c0-3.13,2.53-5.66,5.66-5.68Z"/>
      <path d="M155.35,107.97h-1.54v-1.68c-1.04,1.1-2.51,1.78-4.13,1.78-3.13,0-5.68-2.55-5.68-5.68s2.55-5.66,5.68-5.66,5.66,2.53,5.66,5.66v5.58ZM153.82,102.39c0-2.28-1.85-4.13-4.13-4.13s-4.15,1.85-4.15,4.13,1.87,4.15,4.15,4.15,4.13-1.87,4.13-4.15Z"/>
    </g>
    <g>
      <path d="M69.68,119.27c0,.11-.04.2-.11.28s-.17.13-.29.13c-.24.01-.55.02-.94.03-.39,0-.82.02-1.3.03-.48,0-.96.02-1.46.02-.5,0-.97,0-1.43,0-.29,0-.56,0-.82,0-.25,0-.49,0-.69-.01-.12,0-.22-.05-.3-.13s-.12-.18-.12-.3.05-.23.14-.31c.09-.08.2-.12.32-.12.17,0,.37,0,.59,0h.73c.43,0,.88,0,1.37,0s.96,0,1.42-.01c.04,0,.07-.02.09-.08.02-.22.05-.47.08-.73.03-.26.05-.52.07-.77s.03-.45.03-.62-.02-.3-.07-.39c-.05-.09-.16-.14-.34-.14h-.07s-.05,0-.08,0c-.13.01-.32.03-.6.04-.27.01-.58.03-.91.04-.33.01-.65.01-.95.01h-.26c-.08,0-.17,0-.24,0-.12,0-.22-.05-.29-.13-.08-.08-.11-.18-.11-.29,0-.13.05-.23.14-.32.09-.09.2-.13.33-.12.09,0,.19,0,.3,0h.32c.28,0,.56,0,.85-.01s.55-.02.79-.04c.24-.02.42-.03.56-.03.03,0,.06,0,.1,0,.03,0,.06,0,.09,0,.88,0,1.32.44,1.32,1.33,0,.17-.01.45-.04.81s-.07.81-.13,1.33v.02c0,.05.03.08.08.08.28,0,.54-.01.78-.02.24,0,.44-.01.6-.02.13,0,.23.03.33.12.09.08.14.19.14.32Z"/>
      <path d="M79.46,120.16c-.11-.01-.2-.06-.26-.15s-.1-.18-.1-.3c0-.13.05-.23.15-.31s.21-.12.34-.1c.21.02.46.04.75.05.29,0,.6.01.94.01.37,0,.76,0,1.16-.01s.8-.02,1.18-.03.75-.03,1.08-.04c.34-.01.63-.02.87-.03.13,0,.23.05.32.14.09.09.14.2.14.33s-.04.22-.13.3c-.09.08-.19.12-.31.12-.99,0-1.88,0-2.66.04s-1.48.05-2.08.05c-.26,0-.51,0-.74-.01s-.45-.03-.65-.05ZM80.25,116.12c-.11-.01-.2-.06-.26-.14s-.1-.17-.1-.27c0-.13.05-.23.14-.32s.2-.13.32-.11c.32.02.67.03,1.06.03s.76,0,1.16-.02c.4-.01.78-.03,1.14-.04.36-.01.68-.02.96-.02.12,0,.22.04.3.12.08.08.12.18.12.3s-.04.22-.13.3c-.08.08-.18.12-.3.13-.27,0-.59,0-.95.02s-.75.03-1.15.04c-.4.01-.79.02-1.17.02-.21,0-.41,0-.59,0-.19,0-.36-.02-.53-.03Z"/>
      <path d="M99.42,114.62s0,.03,0,.05c0,.04.02.06.08.06h1.13c.48,0,.83.11,1.03.34s.3.5.3.83-.08.65-.24,1c-.4.89-.92,1.66-1.56,2.31s-1.42,1.21-2.34,1.66c-.05.02-.11.04-.19.04-.08,0-.16-.02-.23-.06-.07-.04-.12-.1-.15-.18-.02-.05-.04-.11-.04-.17,0-.19.08-.32.25-.41.68-.33,1.24-.69,1.7-1.09.45-.4.82-.81,1.1-1.22s.5-.82.66-1.21c.11-.28.17-.5.17-.64,0-.13-.04-.22-.12-.27-.08-.05-.2-.08-.37-.08h-1.64s-.07.02-.1.06c-.27.45-.57.87-.89,1.28-.32.41-.64.75-.96,1.03-.07.06-.16.09-.26.09-.14,0-.25-.05-.35-.16-.06-.08-.09-.17-.09-.26,0-.14.05-.25.16-.35.28-.25.54-.52.8-.84.25-.31.49-.63.71-.97.22-.34.42-.67.58-.99.17-.32.3-.62.41-.89.03-.08.08-.15.16-.2.07-.05.15-.08.23-.08.02,0,.05,0,.07,0,.03,0,.05.02.08.03.09.04.16.09.21.17.05.08.08.16.08.24,0,.05-.01.1-.03.15-.04.12-.09.24-.15.36-.06.12-.12.24-.18.37Z"/>
      <path d="M114.46,120.82s-.05,0-.08,0c-.11,0-.2-.04-.29-.12-.08-.08-.13-.18-.13-.3,0-.11.03-.2.1-.28.07-.08.15-.13.25-.15.79-.17,1.46-.47,2.03-.89.57-.43,1.01-.96,1.31-1.6.07-.15.12-.28.17-.38.04-.1.06-.19.06-.25,0-.1-.05-.15-.14-.18-.09-.02-.25-.04-.45-.04-.24,0-.57.02-.98.06-.41.04-.86.08-1.34.11-.49.04-.98.06-1.47.06-.06,0-.13,0-.19,0-.06,0-.13,0-.2,0-.12,0-.22-.05-.3-.13s-.12-.18-.12-.3.05-.23.14-.31c.09-.08.2-.12.32-.1.13,0,.25.01.37.01.12,0,.24,0,.36,0,.72,0,1.38-.03,1.98-.09s1.12-.09,1.54-.09c.5,0,.85.08,1.04.25.19.17.29.38.29.65,0,.17-.03.35-.09.55-.06.2-.14.4-.25.61-.36.76-.88,1.39-1.55,1.88s-1.47.84-2.4,1.04ZM117.69,114.86h-4c-.12,0-.22-.04-.3-.12-.08-.08-.12-.18-.12-.29,0-.12.04-.22.12-.3.08-.08.18-.12.29-.12h4c.12,0,.22.04.3.12.08.08.12.18.12.29s-.04.22-.12.3c-.08.08-.18.12-.29.12Z"/>
    </g>
    <g>
      <path class="cls-3" d="M70.21,72.16h-11.56c-2.32,0-4.2,1.88-4.2,4.2h0c0,.97.34,1.85.89,2.56h-2.23c-2.32,0-4.2,1.88-4.2,4.2s1.88,4.2,4.2,4.2h15.03c2.32,0,4.2-1.88,4.2-4.2,0-1.04-.39-1.99-1.02-2.72,1.78-.49,3.1-2.1,3.1-4.03h0c0-2.32-1.88-4.2-4.2-4.2Z"/>
      <path d="M68.14,88.25h-15.03c-2.83,0-5.14-2.31-5.14-5.14s2.31-5.14,5.14-5.14h.66c-.17-.52-.27-1.06-.27-1.61,0-2.84,2.31-5.14,5.14-5.14h11.56c2.84,0,5.14,2.31,5.14,5.14,0,1.87-1.03,3.57-2.62,4.46.36.71.55,1.49.55,2.29,0,2.84-2.31,5.14-5.14,5.14ZM53.11,79.85c-1.8,0-3.26,1.46-3.26,3.26s1.46,3.26,3.26,3.26h15.03c1.8,0,3.26-1.46,3.26-3.26,0-.97-.43-1.68-.8-2.11l-.97-1.13,1.44-.39c1.41-.39,2.4-1.67,2.4-3.12,0-1.8-1.46-3.26-3.26-3.26h-11.56c-1.8,0-3.26,1.46-3.26,3.26,0,.71.24,1.39.69,1.98l1.17,1.52h-4.15Z"/>
    </g>
    <g>
      <path class="cls-5" d="M128.3,78.91h-2.23c.55-.71.89-1.59.89-2.55h0c0-2.32-1.88-4.2-4.2-4.2h-11.56c-2.32,0-4.2,1.88-4.2,4.2h0c0,1.93,1.32,3.55,3.1,4.03-.63.73-1.02,1.68-1.02,2.72,0,2.32,1.88,4.2,4.2,4.2h15.03c2.32,0,4.2-1.88,4.2-4.2s-1.88-4.2-4.2-4.2Z"/>
      <path d="M128.3,88.25h-15.03c-2.84,0-5.14-2.31-5.14-5.14,0-.79.19-1.58.55-2.29-1.59-.89-2.63-2.59-2.63-4.46,0-2.84,2.31-5.14,5.14-5.14h11.56c2.84,0,5.14,2.31,5.14,5.14,0,.55-.09,1.1-.27,1.61h.66c2.84,0,5.14,2.31,5.14,5.14s-2.31,5.14-5.14,5.14ZM111.2,73.1c-1.8,0-3.26,1.46-3.26,3.26,0,1.45.99,2.74,2.4,3.12l1.44.39-.97,1.13c-.36.43-.8,1.14-.8,2.11,0,1.8,1.46,3.26,3.26,3.26h15.03c1.8,0,3.26-1.46,3.26-3.26s-1.46-3.26-3.26-3.26h-4.15l1.17-1.52c.45-.59.69-1.27.69-1.98,0-1.8-1.46-3.26-3.26-3.26h-11.56Z"/>
    </g>
    <g>
      <path class="cls-4" d="M76.71,58.54c0,.28.23.56.2.83s-.28.51-.34.77-.03.56-.13.82-.21.51-.33.75-.3.46-.45.69-.41.37-.59.57-.37.38-.58.57-.33.46-.55.61-.52.19-.76.32-.41.43-.66.52-.56.05-.83.12-.54.03-.82.06-.53.09-.81.09-.55.08-.82.05-.57-.01-.83-.08-.46-.37-.71-.46-.55-.09-.79-.22-.47-.28-.7-.43-.37-.4-.58-.58-.5-.27-.68-.47-.33-.44-.48-.67-.39-.41-.51-.66-.05-.58-.14-.83-.34-.46-.4-.73-.1-.54-.13-.82.01-.55.01-.82.04-.55.07-.81-.04-.57.02-.83.21-.52.31-.77.26-.49.38-.73.31-.45.46-.67.23-.52.41-.72.38-.41.58-.59.53-.2.75-.36.34-.49.58-.62.51-.22.77-.32.57.02.84-.05.5-.26.77-.3.55-.06.82-.06.56,0,.83.03.52.23.78.29.53.12.78.21.54.13.78.26.46.3.68.45.45.31.66.49.38.4.56.6.27.48.42.7.41.38.54.63.17.52.27.77.32.47.38.74-.07.57-.04.84.01.53.01.81Z"/>
      <path d="M69.63,66.2c-.42,0-.85-.01-1.3-.12-.48-.11-.87-.32-1.21-.51-.12-.07-.24-.13-.36-.19-.14-.06-.28-.12-.42-.17-.36-.13-.76-.29-1.14-.59-.37-.3-.63-.66-.85-.98-.08-.12-.17-.24-.26-.35-.09-.11-.18-.21-.27-.32-.26-.29-.56-.62-.77-1.06-.21-.43-.29-.88-.36-1.27-.02-.14-.05-.27-.08-.41-.03-.14-.08-.28-.13-.43-.12-.37-.26-.78-.26-1.27,0-.61.06-1.21.19-1.74.11-.47.33-.85.53-1.18.08-.13.15-.26.22-.39l.16-.35c.16-.37.35-.79.66-1.18.33-.42.73-.73,1.09-1.01l.2-.15c.1-.08.21-.17.31-.26.3-.27.64-.57,1.08-.78.49-.24,1.02-.35,1.48-.46l.46-.1c.83-.2,2-.2,2.73.04.14.05.29.1.43.13.15.03.3.05.46.07.38.05.81.11,1.24.31.43.21.74.52,1.01.79.11.11.22.22.33.31.35.28.81.67,1.22,1.18l.17.21c.28.34.59.72.82,1.19l.13.27c.2.39.42.84.53,1.34.1.46.07.89.04,1.27-.01.15-.03.31-.03.46,0,.59-.06,1.14-.19,1.7-.03.14-.06.29-.08.43-.06.39-.13.82-.34,1.25-.3.62-.59,1.1-.91,1.49-.38.47-.83.85-1.27,1.2-.39.31-.83.51-1.22.69l-.3.14c-.55.26-1.11.4-1.63.52-.6.14-1.12.23-1.7.23h-.2c-.07,0-.14,0-.21,0ZM70.05,52.6c-.31,0-.66.08-1.02.17l-.49.11c-.4.09-.77.17-1.07.31-.21.1-.43.29-.66.5-.13.11-.25.22-.38.32l-.21.17c-.3.23-.58.45-.78.7-.15.19-.28.47-.41.76l-.19.41c-.09.18-.19.36-.3.54-.14.23-.27.45-.31.63-.09.4-.14.86-.14,1.32,0,.19.08.43.16.69.06.2.13.4.17.59.04.16.07.33.1.49.05.3.1.58.2.78.09.2.28.4.48.62.12.13.24.26.35.4.12.15.22.3.33.45.16.23.32.46.48.58.14.11.38.2.63.3.19.07.39.15.57.24.15.07.3.16.45.24.27.15.5.28.72.33.31.07.69.07,1.09.07h.21c.4,0,.8-.07,1.28-.18.44-.1.86-.2,1.23-.38l.34-.16c.31-.14.61-.28.82-.45.37-.29.72-.58.97-.9.23-.28.45-.65.68-1.14.09-.18.13-.45.18-.73.03-.19.06-.37.1-.55.09-.42.14-.84.14-1.28,0-.21.02-.42.03-.62.02-.27.04-.52,0-.7-.07-.29-.22-.59-.38-.92l-.14-.29c-.13-.27-.35-.53-.58-.81l-.19-.23c-.23-.29-.51-.55-.93-.89-.17-.14-.33-.29-.49-.45-.18-.18-.35-.35-.5-.43-.16-.08-.41-.11-.67-.14-.21-.03-.42-.06-.63-.1-.2-.05-.41-.11-.62-.19-.25-.08-.48-.16-.66-.16Z"/>
    </g>
    <path class="cls-4" d="M123.17,58.06c0,.26-.08.51-.1.77s.27.56.24.81-.38.47-.44.72-.04.52-.11.77-.14.5-.22.75-.28.44-.38.68-.28.43-.4.66-.11.53-.25.75-.07.58-.22.79-.48.3-.64.5-.17.55-.35.74-.39.37-.58.54-.42.33-.62.49-.56.13-.77.28-.27.55-.49.68-.59.03-.82.15-.52.09-.76.2-.38.42-.63.51-.49.17-.75.24-.51.08-.77.13-.51.06-.77.09-.51.03-.77.05-.51.1-.77.1-.51-.18-.77-.2-.52.03-.77,0-.55.14-.81.09-.44-.39-.69-.46-.58.12-.83.03-.53-.1-.77-.2-.46-.27-.69-.39-.44-.3-.66-.43-.27-.53-.48-.68-.67.03-.88-.14-.19-.58-.38-.76-.29-.43-.47-.62-.57-.19-.73-.39-.26-.46-.41-.67-.21-.48-.34-.7-.47-.33-.59-.56.02-.58-.09-.82-.35-.42-.43-.66-.02-.53-.09-.78-.04-.51-.1-.77-.11-.49-.14-.75-.41-.48-.42-.74.21-.53.21-.79-.24-.53-.22-.79.23-.51.26-.76-.05-.54,0-.79.3-.46.37-.71.13-.5.22-.74-.04-.58.06-.82.3-.44.42-.67.18-.5.32-.72.57-.24.72-.46.09-.58.25-.78.51-.24.68-.43.09-.64.28-.82.49-.24.69-.41.33-.45.54-.6.51-.19.73-.33.46-.25.69-.37.58.03.82-.07.41-.35.65-.44.53-.02.78-.09.43-.39.69-.45.51-.13.77-.17.52-.13.78-.14.53-.01.79-.01.53.04.79.05.49.36.74.39.51.04.76.1.48.17.73.23.49.14.73.22.57-.04.81.07.46.24.69.36.46.24.68.38.36.39.57.54.59.09.79.26.25.5.44.68.58.17.75.36.23.5.39.7.16.53.31.74.32.4.46.62.25.45.37.68.39.39.49.63.23.47.31.72.19.49.26.74.23.49.28.74-.3.58-.27.84.04.5.06.76.21.5.21.76Z"/>
    <g>
      <path class="cls-4" d="M117.05,58.54c0,.28-.06.55-.09.82s-.19.51-.26.78.03.58-.07.83-.35.44-.48.68-.28.46-.43.68-.15.58-.33.78-.53.25-.73.43-.43.32-.65.47-.39.39-.63.51-.44.37-.69.47-.55.1-.81.16-.54.11-.81.14-.54.07-.82.07-.54-.15-.81-.18-.57.09-.84.02-.48-.29-.74-.39-.48-.24-.72-.37-.48-.25-.7-.4-.46-.29-.66-.47-.33-.43-.51-.64-.44-.33-.6-.56-.35-.43-.48-.67-.22-.5-.32-.76-.23-.51-.29-.77.03-.56,0-.83.01-.53.01-.81-.2-.56-.16-.83.1-.55.16-.81.33-.47.42-.72.16-.52.29-.76.33-.43.48-.65.2-.53.38-.73.44-.32.65-.5.38-.39.6-.54.45-.31.69-.44.5-.21.76-.31.48-.28.75-.34.53-.18.8-.21.56.03.83.03.54.17.8.2.58-.1.84-.04.52.18.78.28.44.34.69.46.47.26.69.42.54.2.74.38.39.39.57.59.2.53.36.75.44.36.57.61.26.49.36.74.14.53.2.8.15.53.18.8.03.55.03.82Z"/>
      <path d="M110.24,66.37c-.61,0-1.19-.12-1.73-.24-.5-.11-.92-.33-1.3-.52l-.3-.15c-.55-.26-.99-.6-1.43-.95-.42-.33-.86-.71-1.23-1.18l-.13-.16c-.29-.36-.62-.76-.85-1.25-.21-.43-.28-.87-.35-1.25-.02-.14-.05-.28-.08-.41-.03-.14-.08-.28-.13-.42-.12-.36-.25-.78-.25-1.27s.13-.91.24-1.29c.04-.14.08-.27.11-.41.03-.14.05-.28.08-.42.07-.39.14-.83.35-1.26.21-.44.51-.78.77-1.07.09-.1.18-.2.27-.31.09-.12.18-.24.26-.37.21-.32.45-.69.83-.98.47-.38.98-.7,1.48-.94.43-.21.86-.27,1.24-.32.15-.02.31-.04.45-.07l.36-.09c.81-.21,1.96-.2,2.8,0l.65.14c.4.07.85.15,1.28.36.49.24.9.57,1.27.87l.37.3c.36.28.76.59,1.09,1,.3.37.44.78.57,1.14.05.15.1.29.17.43.06.14.14.26.22.39.2.33.42.7.53,1.17.15.66.22,1.22.22,1.74,0,.49-.14.91-.25,1.28-.05.14-.09.28-.12.42-.15.64-.32,1.16-.54,1.63-.22.46-.51.91-.94,1.44-.33.41-.72.79-1.22,1.19-.46.37-.93.66-1.45.91-.13.06-.25.13-.38.2-.34.19-.73.41-1.2.52-.67.15-1.22.22-1.73.22ZM110.24,52.67c-.25,0-.55.08-.85.16l-.43.11c-.2.05-.41.08-.61.1-.27.04-.52.07-.68.15-.37.18-.75.43-1.12.72-.14.11-.28.32-.43.55-.12.17-.23.35-.36.51-.1.13-.21.25-.32.38-.2.23-.39.44-.49.65-.09.19-.14.46-.19.75-.03.17-.06.35-.1.52-.04.18-.09.36-.15.53-.08.27-.16.53-.16.74,0,.19.08.43.16.68.06.2.13.39.17.59.04.17.07.34.1.51.05.3.1.56.19.76.14.3.38.58.62.89l.14.17c.25.31.55.58.94.88.36.29.7.55,1.07.73l.34.17c.3.16.59.3.86.36.87.2,1.51.27,2.63.02.2-.05.44-.18.69-.32.16-.09.32-.18.49-.26.38-.19.74-.41,1.09-.69.39-.31.69-.6.93-.9.33-.42.55-.75.71-1.08.16-.34.29-.73.4-1.23.04-.19.1-.39.17-.58.08-.26.16-.51.16-.7,0-.37-.06-.8-.17-1.32-.04-.17-.17-.39-.31-.62-.11-.18-.22-.36-.31-.55-.09-.19-.17-.4-.25-.61-.09-.24-.17-.48-.27-.6-.19-.24-.47-.46-.77-.69l-.4-.32c-.31-.25-.61-.49-.9-.63-.2-.1-.49-.15-.8-.21-.16-.03-.33-.06-.49-.1l-.27-.06c-.36-.09-.71-.17-1.02-.17Z"/>
    </g>
    <path d="M111.38,71.45c-7.11,0-12.9-5.79-12.9-12.9s5.79-12.9,12.9-12.9c5.2,0,9.86,3.09,11.89,7.88.3.72-.03,1.55-.75,1.85-.72.3-1.55-.03-1.85-.75-1.58-3.74-5.22-6.15-9.28-6.15-5.56,0-10.08,4.52-10.08,10.07s4.52,10.08,10.08,10.08c4.06,0,7.7-2.42,9.28-6.15.3-.72,1.14-1.05,1.85-.75.72.3,1.06,1.13.75,1.85-2.02,4.79-6.69,7.88-11.89,7.88Z"/>
    <path d="M69.24,71.47c-.1,0-.2,0-.3,0-4.62-.12-8.96-2.86-11.06-6.98-2.58-5.05-1.46-11.12-.64-15.55.14-.77.88-1.28,1.65-1.13.77.14,1.28.88,1.13,1.65-.97,5.23-1.6,9.87.38,13.75,1.61,3.16,5.08,5.35,8.62,5.44,3.51.09,7.11-1.92,8.86-5,1.03-1.82,1.56-4.09,1.57-6.75,0-2.47-.42-4.99-.84-7.44-.13-.77.39-1.5,1.16-1.63.76-.13,1.5.39,1.63,1.16.44,2.56.88,5.21.88,7.92-.01,3.16-.66,5.9-1.94,8.14-2.2,3.87-6.63,6.43-11.1,6.43Z"/>
    <path d="M108.99,64.48c-.94,0-1.89-.43-2.63-1.18-.61-.63-1.08-1.48-1.4-2.54-.1-.33-.17-.66-.22-.98-.13-.33-.21-.66-.23-1-.02-.27,0-.54.05-.81-.25-.82-.38-1.8.1-2.68.16-.3.39-.58.71-.86.13-.11.27-.22.41-.32.55-.61,1.33-.88,1.88-1.03.21-.06.71-.2,1.21-.09,1.23-.15,2.43.02,3.44.48.93.43,1.7,1.12,2.2,1.94.49.44.9.95,1.17,1.5.53,1.06.59,2.29.18,3.31-.11.26-.25.53-.44.82-.55.84-1.31,1.54-2.17,2.06-.21.2-.43.37-.68.51-.63.37-1.39.56-2.13.52-.44.21-.89.33-1.33.35-.04,0-.09,0-.13,0ZM109.58,63.04c.29.05.57.06.85.03.21-.14.42-.3.62-.5.07-.07.14-.14.21-.22-.36.09-.72.14-1.07.14-.14.02-.28.04-.42.06-.43.04-.85.03-1.27-.03.06.04.13.09.19.13.28.17.58.3.88.39ZM112.87,61.64c-.16.31-.34.61-.54.89.12-.06.23-.12.35-.18.29-.3.54-.67.71-1.09-.16.13-.33.26-.51.38ZM109.83,61.53c.09.01.19.02.28.02.78-.15,1.55-.51,2.2-1.03.1-.29.17-.58.22-.89-.38.7-.88,1.22-1.46,1.54-.37.2-.79.32-1.24.36ZM107.18,61.1s.08.04.12.06c-.08-.08-.16-.17-.24-.27.04.07.08.14.12.2ZM114.6,59.78c0,.31-.03.61-.08.9.04-.06.08-.12.12-.17.16-.24.27-.45.36-.65.21-.53.25-1.14.13-1.74-.07.57-.24,1.14-.52,1.66ZM108.14,60.27c.09.04.17.08.26.11-.03-.03-.06-.05-.08-.08-.06,0-.12-.02-.18-.03ZM113.56,58.78c0,.08,0,.17,0,.25.01-.03.03-.06.04-.1,0-.05-.02-.1-.03-.15ZM110.48,57.4s-.03,0-.05,0c-.29.02-.57.21-.65.46-.07.22.05.51.24.58.06.03.13.03.25.03.2,0,.39-.07.56-.18-.04-.21.03-.43.17-.59-.02-.05-.05-.1-.08-.14-.1-.1-.26-.16-.44-.16ZM107.76,56.25c-.01.05-.02.1-.03.16-.09.45-.12.86-.07,1.24.09-.55.29-1.11.61-1.61-.17.06-.34.13-.5.21ZM109.55,55.91c-.12.12-.24.27-.35.42-.17.23-.3.48-.41.73.14-.14.3-.27.48-.38.53-.32,1.1-.43,1.6-.3-.12-.08-.25-.16-.39-.22-.29-.14-.61-.22-.93-.25ZM106.42,54.81c-.08.1-.15.21-.21.34.28-.24.61-.46.97-.65.43-.23.86-.4,1.29-.5-.09.02-.17.04-.26.06-.69.17-1.29.42-1.79.75ZM109.45,53.89c.2,0,.39.01.59.04.13,0,.26-.01.39-.01-.34-.04-.7-.05-1.05-.03h.07Z"/>
    <path d="M69.52,64.48c-.94,0-1.89-.43-2.63-1.18-.61-.63-1.08-1.48-1.4-2.54-.1-.33-.17-.66-.22-.98-.13-.32-.21-.66-.23-1-.02-.27,0-.54.05-.81-.25-.82-.38-1.8.1-2.68.16-.3.39-.58.71-.86.13-.12.27-.22.41-.33.55-.61,1.33-.88,1.88-1.03.21-.06.71-.2,1.21-.09,1.23-.15,2.43.02,3.44.48.93.43,1.7,1.12,2.2,1.94.49.44.9.95,1.17,1.5.53,1.06.59,2.29.18,3.31-.1.26-.25.53-.44.82-.55.84-1.31,1.55-2.17,2.06-.21.2-.43.37-.68.51-.63.37-1.38.56-2.13.52-.44.21-.89.33-1.33.35-.04,0-.09,0-.13,0ZM70.11,63.04c.29.05.57.06.85.03.21-.14.42-.3.62-.5.07-.07.14-.14.21-.22-.36.09-.72.14-1.07.14-.14.02-.28.04-.42.06-.43.04-.85.03-1.27-.03.06.04.13.09.19.13.28.17.58.3.88.39ZM73.4,61.64c-.16.31-.34.61-.54.89.12-.06.23-.12.35-.18.3-.3.54-.67.71-1.09-.16.13-.33.26-.51.38ZM70.37,61.53c.09.01.19.02.28.02.78-.15,1.55-.51,2.2-1.03.1-.29.17-.59.22-.89-.38.7-.88,1.23-1.46,1.54-.37.2-.79.32-1.24.36ZM67.72,61.1s.08.04.12.06c-.08-.09-.16-.18-.24-.27.04.07.08.14.12.21ZM75.14,59.79c0,.31-.03.61-.08.9.04-.06.08-.12.12-.18.16-.24.27-.45.35-.65.21-.53.25-1.14.13-1.74-.07.57-.24,1.14-.52,1.66ZM68.67,60.27c.09.04.17.08.26.11-.03-.03-.06-.05-.08-.08-.06,0-.12-.02-.18-.03ZM74.09,58.78c0,.08,0,.16-.01.25.01-.03.03-.06.04-.09,0-.05-.02-.1-.03-.15ZM71.01,57.4s-.03,0-.05,0c-.29.02-.57.21-.65.46-.07.22.05.51.24.58.06.02.14.03.25.03.2,0,.39-.07.56-.18-.04-.21.03-.43.17-.59-.02-.05-.05-.1-.09-.14-.1-.1-.26-.16-.44-.16ZM68.29,56.25c-.01.05-.02.1-.03.16-.09.45-.12.87-.07,1.25.09-.55.29-1.11.61-1.61-.17.06-.34.13-.5.21ZM70.08,55.91c-.12.12-.24.26-.35.42-.17.23-.3.48-.41.73.14-.14.3-.27.48-.38.53-.32,1.09-.43,1.6-.3-.12-.08-.25-.16-.39-.22-.29-.14-.61-.22-.93-.25ZM66.95,54.81c-.08.1-.15.21-.21.34.28-.24.61-.46.97-.65.43-.23.86-.4,1.29-.5-.08.02-.17.04-.25.06-.69.17-1.29.42-1.79.75ZM69.99,53.89c.2,0,.39.01.59.04.13,0,.26-.01.39-.01-.34-.04-.69-.05-1.05-.03h.07Z"/>
    <path d="M102.28,104.88c-.45,0-.89-.2-1.24-.55-.27-.28-.48-.65-.62-1.11-.04-.13-.07-.26-.09-.39-.06-.15-.09-.3-.1-.45,0-.11,0-.21.01-.32-.09-.33-.15-.79.08-1.2.08-.15.19-.29.34-.42.05-.04.1-.09.16-.13.26-.28.61-.4.85-.47.21-.06.39-.08.56-.05.52-.05,1.03.02,1.46.22.4.18.74.48.96.83.21.19.38.41.5.65.24.49.27,1.06.08,1.53-.05.13-.12.25-.2.37-.23.35-.55.65-.91.88-.09.08-.19.16-.29.22-.28.16-.59.24-.92.24-.19.08-.38.13-.57.14-.02,0-.04,0-.06,0Z"/>
    <path d="M81.21,95.58c-.24,0-.49-.11-.67-.29-.14-.14-.24-.32-.3-.54-.02-.05-.03-.1-.04-.15-.02-.07-.04-.15-.05-.23,0-.04,0-.08,0-.12-.05-.23-.03-.43.07-.61.05-.09.11-.17.19-.24.02-.02.04-.03.06-.05.11-.11.25-.18.43-.23.11-.03.21-.04.29-.03.23-.02.46.02.66.11.19.09.36.23.47.39.09.09.16.19.22.3.13.26.14.56.04.81-.03.07-.06.13-.1.19-.11.16-.25.3-.41.41-.04.04-.09.07-.14.1-.13.08-.28.12-.43.13-.08.03-.17.05-.26.05-.01,0-.02,0-.04,0Z"/>
    <path d="M149.19,104.95c-.44,0-.89-.2-1.23-.55-.28-.28-.48-.66-.62-1.11-.04-.13-.07-.26-.09-.39-.06-.14-.09-.3-.1-.45,0-.1,0-.21.01-.32-.09-.33-.15-.79.08-1.2.08-.15.19-.28.34-.42.05-.05.1-.09.16-.13.26-.28.61-.4.85-.47.21-.06.4-.07.56-.05.51-.05,1.02.02,1.46.22.4.18.74.48.96.83.21.19.38.41.49.65.24.49.27,1.06.08,1.53-.05.13-.12.25-.2.37-.24.36-.55.66-.92.88-.09.08-.19.16-.29.22-.28.16-.59.24-.92.24-.19.08-.38.13-.57.13-.02,0-.04,0-.07,0Z"/>
    <g>
      <path d="M90.71,14.53c-.52,0-.94-.42-.94-.94V.94c0-.52.42-.94.94-.94s.94.42.94.94v12.64c0,.52-.42.94-.94.94Z"/>
      <path d="M90.71,20.2c-.52,0-.94-.42-.94-.94v-2.04c0-.52.42-.94.94-.94s.94.42.94.94v2.04c0,.52-.42.94-.94.94Z"/>
    </g>
    <g>
      <line class="cls-1" x1="47.88" y1="7.63" x2="90.71" y2="86.59"/>
      <path d="M54.21,20.23c-.34,0-.66-.18-.83-.49l-6.32-11.65c-.25-.46-.08-1.03.38-1.28s1.03-.08,1.28.38l6.32,11.65c.25.46.08,1.03-.38,1.28-.14.08-.3.11-.45.11Z"/>
      <path d="M57.04,25.46c-.34,0-.66-.18-.83-.49l-1.02-1.88c-.25-.46-.08-1.03.38-1.28s1.03-.08,1.28.38l1.02,1.88c.25.46.08,1.03-.38,1.28-.14.08-.3.11-.45.11Z"/>
    </g>
    <g>
      <line class="cls-1" x1="133.38" y1="7.63" x2="90.56" y2="86.59"/>
      <path d="M127.06,20.23c-.15,0-.31-.04-.45-.11-.46-.25-.63-.82-.38-1.28l6.32-11.65c.25-.46.82-.63,1.28-.38s.63.82.38,1.28l-6.32,11.65c-.17.31-.49.49-.83.49Z"/>
      <path d="M124.22,25.46c-.15,0-.31-.04-.45-.11-.46-.25-.63-.82-.38-1.28l1.02-1.88c.25-.46.82-.63,1.28-.38.46.25.63.82.38,1.28l-1.02,1.88c-.17.31-.5.49-.83.49Z"/>
    </g>
    <g>
      <line class="cls-1" x1="16.85" y1="31.84" x2="90.83" y2="86.11"/>
      <path d="M27.77,40.79c-.19,0-.39-.06-.56-.18l-10.92-8.01c-.42-.31-.51-.9-.2-1.32.31-.42.9-.51,1.32-.2l10.92,8.01c.42.31.51.9.2,1.32-.19.25-.47.38-.76.38Z"/>
      <path d="M32.67,44.38c-.19,0-.39-.06-.56-.18l-1.76-1.29c-.42-.31-.51-.9-.2-1.32.31-.42.9-.51,1.32-.2l1.76,1.29c.42.31.51.9.2,1.32-.19.25-.47.38-.76.38Z"/>
    </g>
    <g>
      <line class="cls-1" x1="163.95" y1="31.84" x2="89.97" y2="86.11"/>
      <path d="M153.03,40.79c-.29,0-.58-.13-.76-.38-.31-.42-.22-1.01.2-1.32l10.92-8.01c.42-.31,1.01-.22,1.32.2.31.42.22,1.01-.2,1.32l-10.92,8.01c-.17.12-.36.18-.56.18Z"/>
      <path d="M148.13,44.38c-.29,0-.58-.13-.76-.38-.31-.42-.22-1.01.2-1.32l1.76-1.29c.42-.31,1.01-.22,1.32.2.31.42.22,1.01-.2,1.32l-1.76,1.29c-.17.12-.36.18-.56.18Z"/>
    </g>
    <g>
      <line class="cls-1" x1=".94" y1="70.76" x2="90.71" y2="86.59"/>
      <path d="M14.19,74.04c-.05,0-.11,0-.16-.01l-13.25-2.34c-.51-.09-.86-.58-.76-1.09.09-.51.58-.86,1.09-.76l13.25,2.34c.51.09.86.58.76,1.09-.08.46-.48.78-.93.78Z"/>
      <path d="M20.14,75.08c-.05,0-.11,0-.16-.01l-2.14-.38c-.51-.09-.86-.58-.76-1.09.09-.51.57-.86,1.09-.76l2.14.38c.51.09.86.58.76,1.09-.08.46-.48.78-.93.78Z"/>
    </g>
    <g>
      <line class="cls-1" x1="180.47" y1="70.76" x2="90.71" y2="86.59"/>
      <path d="M167.22,74.04c-.45,0-.85-.32-.93-.78-.09-.51.25-1,.76-1.09l13.25-2.34c.51-.09,1,.25,1.09.76.09.51-.25,1-.76,1.09l-13.25,2.34c-.06.01-.11.01-.16.01Z"/>
      <path d="M161.28,75.08c-.45,0-.85-.32-.93-.78-.09-.51.25-1,.76-1.09l2.13-.38c.51-.1,1,.25,1.09.76.09.51-.25,1-.76,1.09l-2.13.38c-.06.01-.11.01-.16.01Z"/>
    </g>
  </g>
</svg>