<?xml version="1.0" encoding="UTF-8"?>
<svg id="_グループ_28" data-name="グループ_28" xmlns="http://www.w3.org/2000/svg" version="1.1" viewBox="0 0 268.1 178.6">
  <!-- Generator: Adobe Illustrator 29.1.0, SVG Export Plug-In . SVG Version: 2.1.0 Build 142)  -->
  <defs>
    <style>
      .st0 {
        fill: #ffaeab;
      }

      .st1 {
        fill: blue;
      }

      .st2 {
        fill: #fff;
      }

      .st3 {
        fill: #ff0;
      }

      .st4 {
        fill: #5cffff;
      }

      .st5 {
        fill: #fcd25b;
      }
    </style>
  </defs>
  <g id="_グループ_16" data-name="グループ_16">
    <path id="_パス_101" data-name="パス_101" class="st2" d="M229.8,129.3c0,0-.2,0-.3,0-.8-.1-1.3-.9-1.1-1.6.7-3.9,1.1-7.9,1.1-11.9,0-43.2-42.8-78.4-95.5-78.4S38.5,72.6,38.5,115.8c0,4,.4,8,1.1,11.9.1.8-.4,1.5-1.1,1.6-.8.1-1.5-.4-1.6-1.1-.8-4.1-1.1-8.2-1.1-12.4,0-44.8,44.1-81.2,98.3-81.2s98.3,36.4,98.3,81.2c0,4.2-.4,8.3-1.1,12.4-.1.7-.7,1.1-1.4,1.1"/>
    <path id="_パス_102" data-name="パス_102" class="st5" d="M217.3,127.9c.6-3.5,1-7,1-10.6,0-38.3-37.7-69.3-84.2-69.3s-84.2,31-84.2,69.3c0,3.5.3,7.1,1,10.6"/>
    <path id="_パス_103" data-name="パス_103" class="st2" d="M217.3,129.3c0,0-.2,0-.3,0-.8-.1-1.3-.9-1.1-1.6,0,0,0,0,0,0,.6-3.4.9-6.8.9-10.3,0-37.5-37.1-67.9-82.8-67.9s-82.8,30.5-82.8,67.9c0,3.5.3,6.9.9,10.3.1.8-.4,1.5-1.1,1.6-.8.1-1.5-.4-1.6-1.1h0c-.7-3.6-1-7.2-1-10.8,0-39,38.4-70.7,85.6-70.7s85.6,31.7,85.6,70.7c0,3.6-.3,7.2-1,10.8-.1.7-.7,1.1-1.4,1.1"/>
    <path id="_パス_104" data-name="パス_104" class="st0" d="M122.1,50.1c0-3.5-2.8-6.3-6.3-6.3h-27.6c-3.4,0-6.3,2.8-6.3,6.2,0,1.2.3,2.4,1,3.4h-2.4c-3.8,0-6.9,3.1-6.9,6.9s3.1,6.9,6.9,6.9h30.6c3.8,0,6.9-3.1,6.9-6.9,0-1.5-.5-2.9-1.4-4.1,3.1-.4,5.4-3,5.4-6.2"/>
    <path id="_パス_105" data-name="パス_105" class="st2" d="M111.1,68.7h-30.6c-4.6,0-8.3-3.7-8.3-8.3,0-4.6,3.7-8.3,8.3-8.3h.3c-.2-.6-.3-1.3-.3-2,0-4.2,3.4-7.6,7.7-7.7h27.6c4.2,0,7.6,3.4,7.6,7.6,0,3.1-1.9,5.9-4.7,7.1.4,1,.7,2.1.7,3.2,0,4.6-3.7,8.3-8.3,8.3M80.5,54.9c-3.1,0-5.5,2.5-5.5,5.6,0,3,2.5,5.4,5.5,5.5h30.6c3.1,0,5.5-2.5,5.5-5.5,0-1.2-.4-2.3-1.1-3.3l-1.4-1.9,2.3-.3c2.7-.3,4.5-2.8,4.2-5.4-.3-2.4-2.4-4.2-4.8-4.2h-27.6c-2.7,0-4.9,2.2-4.9,4.8,0,.9.3,1.9.8,2.6l1.4,2.1h-4.9Z"/>
    <path id="_パス_106" data-name="パス_106" class="st4" d="M188.2,53.5h-2.4c1.9-2.9,1-6.8-1.9-8.6-1-.6-2.2-1-3.4-1h-27.6c-3.4,0-6.3,2.8-6.3,6.2,0,3.1,2.3,5.8,5.4,6.2-2.3,3.1-1.6,7.4,1.4,9.6,1.2.9,2.6,1.4,4.1,1.4h30.6c3.8,0,6.9-3.1,6.9-6.9s-3.1-6.9-6.9-6.9"/>
    <path id="_パス_107" data-name="パス_107" class="st2" d="M188.2,68.7h-30.6c-4.6,0-8.3-3.7-8.3-8.3,0-1.1.2-2.2.7-3.2-3.9-1.6-5.8-6.1-4.2-10,1.2-2.9,4-4.7,7.1-4.7h27.6c4.2,0,7.6,3.4,7.7,7.7,0,.7,0,1.3-.3,1.9h.3c4.6,0,8.3,3.7,8.3,8.3,0,4.6-3.7,8.3-8.3,8.3h0M152.9,45.3c-2.7,0-4.9,2.2-4.9,4.8,0,2.4,1.8,4.5,4.2,4.8l2.3.3-1.4,1.9c-.7.9-1.1,2.1-1.1,3.3,0,3.1,2.5,5.5,5.5,5.5h30.6c3.1,0,5.5-2.5,5.5-5.5,0-3-2.5-5.5-5.5-5.5h-4.9l1.4-2.1c1.4-2.3.8-5.3-1.5-6.7-.8-.5-1.7-.8-2.6-.8h-27.6Z"/>
    <path id="_パス_108" data-name="パス_108" class="st2" d="M119,85.8c0,.4,0,.8,0,1.1s.3.8.3,1.2,0,.8-.1,1.2-.3.7-.4,1.1-.5.7-.6,1-.4.7-.5,1-.2.7-.4,1.1-.2.8-.4,1.1-.7.4-.9.8,0,.9-.3,1.2-.8.3-1.1.6-.3.8-.5,1.1-.8.2-1.1.5-.3.9-.6,1.1-.6.5-1,.7-.9,0-1.2.2-.6.6-.9.8-.8,0-1.2.2-.6.6-1,.7-.8,0-1.2,0-.7.4-1.1.4-.8-.4-1.2-.4-.7.5-1.1.5-.8-.5-1.1-.6-.8,0-1.1,0-.8.1-1.2,0-.8,0-1.2,0-.6-.7-.9-.8-.8-.1-1.1-.3-.8-.1-1.1-.3-.6-.5-.9-.7-.8-.2-1.1-.4-.4-.7-.7-.9-.5-.6-.8-.9-.7-.4-1-.7-.6-.5-.8-.8-.2-.8-.4-1.1-.7-.4-.9-.8-.4-.7-.5-1-.4-.7-.5-1,0-.8-.1-1.2-.4-.7-.5-1-.3-.7-.3-1.1.1-.8,0-1.2-.3-.7-.3-1.1-.2-.8-.2-1.1.3-.8.4-1.1,0-.8,0-1.1-.1-.8,0-1.2,0-.8.2-1.2.1-.8.2-1.1.3-.7.5-1.1.3-.7.5-1,.4-.7.6-1,.6-.6.8-.9.2-.8.4-1.1.9-.3,1.1-.5.3-.7.6-1,.8-.3,1.1-.5c.3-.2.5-.7.8-.9s.5-.7.8-.9.6-.5,1-.7.8-.1,1.2-.3.7-.4,1-.5.8,0,1.2,0,.7-.3,1.1-.3.7-.2,1.1-.3.8,0,1.2,0,.8,0,1.2,0,.8.3,1.1.4.8-.1,1.2,0,.8-.3,1.2-.2.8.1,1.2.2.7.3,1.1.5.7.4,1,.6.7.4,1,.5.8.2,1.1.4.4.8.7,1,.7.3,1,.6.7.3,1,.6.6.5.9.8.3.8.5,1.1.6.5.8.8.3.7.5,1,.8.4,1,.8.3.7.5,1.1,0,.8.2,1.2.3.7.4,1.1,0,.8.1,1.2,0,.8,0,1.2.3.7.3,1.1-.1.8-.1,1.2"/>
    <path id="_パス_109" data-name="パス_109" class="st2" d="M41.5,139.4h2.3v11.9c0,3.4,2.7,6.1,6.1,6.1s6.1-2.7,6.1-6.1v-11.9h2.3v12c0,4.6-3.8,8.4-8.4,8.3s-8.4-3.8-8.3-8.4v-11.9Z"/>
    <path id="_パス_110" data-name="パス_110" class="st2" d="M97,159.5h-2.3v-8.2c0-3.4-2.7-6.1-6.1-6.1s-6.1,2.7-6.1,6.1v8.2h-2.3v-8.2c0-4.6,3.8-8.4,8.4-8.3,4.6,0,8.4,3.8,8.3,8.4v8.2Z"/>
    <rect id="_長方形_18" data-name="長方形_18" class="st2" x="119.1" y="143.1" width="2.3" height="16.4"/>
    <path id="_パス_111" data-name="パス_111" class="st2" d="M157.9,152.4h2.3c-.6,4.6-4.9,7.8-9.5,7.2-.5,0-1-.2-1.4-.3-2.6-.8-4.6-2.8-5.4-5.4-1.4-4.4,1-9.2,5.4-10.6,4.4-1.4,9.2,1,10.6,5.4.2.5.3,1,.3,1.5h-2.3c-.6-3.3-3.8-5.5-7.2-4.9-3.3.6-5.5,3.8-4.9,7.2s3.8,5.5,7.2,4.9c2.5-.5,4.4-2.4,4.9-4.9"/>
    <path id="_パス_112" data-name="パス_112" class="st2" d="M190.7,142.9v2.3c-3.4,0-6.1,2.8-6.1,6.1v8.2h-2.3v-8.2c0-4.6,3.7-8.4,8.4-8.4"/>
    <path id="_パス_113" data-name="パス_113" class="st2" d="M229.6,159.5h-2.3v-2.5c-3.2,3.4-8.5,3.6-11.9.4-3.4-3.2-3.6-8.5-.4-11.9,3.2-3.4,8.5-3.6,11.9-.4,1.7,1.6,2.6,3.8,2.7,6.1v8.2ZM227.3,151.3c0-3.4-2.8-6.1-6.1-6.1s-6.1,2.8-6.1,6.1,2.8,6.1,6.1,6.1h0c3.4,0,6.1-2.7,6.1-6.1,0,0,0,0,0,0"/>
    <path id="_パス_114" data-name="パス_114" class="st2" d="M103,176.2c0,.2,0,.3-.2.4-.1.1-.3.2-.4.2-.4,0-.8,0-1.4,0s-1.2,0-1.9,0-1.4,0-2.2,0-1.4,0-2.1,0-.8,0-1.2,0c-.4,0-.7,0-1,0-.2,0-.3,0-.4-.2-.1-.1-.2-.3-.2-.4,0-.2,0-.3.2-.5.1-.1.3-.2.5-.2.3,0,.5,0,.9,0h1.1c.6,0,1.3,0,2,0,.7,0,1.4,0,2.1,0,0,0,.1,0,.1-.1,0-.3,0-.7.1-1.1s0-.8.1-1.1,0-.7,0-.9c0-.2,0-.4,0-.6,0-.1-.2-.2-.5-.2h0s0,0-.1,0c-.2,0-.5,0-.9,0s-.9,0-1.3,0-1,0-1.4,0h-.4c-.1,0-.2,0-.4,0-.2,0-.3,0-.4-.2-.1-.1-.2-.3-.2-.4,0-.2,0-.4.2-.5.1-.1.3-.2.5-.2.1,0,.3,0,.4,0h.5c.4,0,.8,0,1.3,0,.4,0,.8,0,1.2,0,.4,0,.6,0,.8,0,0,0,0,0,.1,0,0,0,0,0,.1,0,.9-.1,1.8.5,2,1.5,0,.2,0,.3,0,.5,0,.3,0,.7,0,1.2,0,.5,0,1.2-.2,2h0c0,.1,0,.1.1.1h1.2c.4,0,.7,0,.9,0,.4,0,.7.2.7.6,0,0,0,0,0,0"/>
    <path id="_パス_115" data-name="パス_115" class="st2" d="M117.4,177.6c-.2,0-.3,0-.4-.2-.1-.1-.2-.3-.2-.4,0-.2,0-.4.2-.5.1-.1.3-.2.5-.2.3,0,.7,0,1.1,0s.9,0,1.4,0,1.1,0,1.7,0,1.2,0,1.7,0,1.1,0,1.6,0,.9,0,1.3,0c.4,0,.7.3.7.7,0,.2,0,.3-.2.4-.1.1-.3.2-.5.2-1.5,0-2.8,0-3.9,0-1.2,0-2.2,0-3.1,0s-.8,0-1.1,0-.7,0-1,0M118.6,171.6c-.3,0-.5-.3-.5-.6,0-.2,0-.4.2-.5.1-.1.3-.2.5-.2.5,0,1,0,1.6,0s1.1,0,1.7,0h1.7c.5,0,1,0,1.4,0,.2,0,.3,0,.4.2.1.1.2.3.2.4,0,.2,0,.3-.2.4-.1.1-.3.2-.4.2-.4,0-.9,0-1.4,0s-1.1,0-1.7,0-1.2,0-1.7,0-.6,0-.9,0-.5,0-.8,0"/>
    <path id="_パス_116" data-name="パス_116" class="st2" d="M146.9,169.4s0,0,0,0c0,0,0,0,.1,0h1.7c.6,0,1.1.1,1.5.5.3.3.5.8.4,1.2,0,.5-.1,1-.3,1.5-.6,1.3-1.3,2.4-2.3,3.4-1,1-2.2,1.8-3.5,2.4-.2,0-.4,0-.6,0-.1,0-.2-.2-.2-.3,0,0,0-.2,0-.2,0-.3.1-.5.4-.6.9-.4,1.7-1,2.5-1.6.6-.5,1.2-1.1,1.6-1.8.4-.6.7-1.2,1-1.8.1-.3.2-.6.2-.9,0-.2,0-.3-.2-.4-.2,0-.4-.1-.5-.1h-2.4c0,0-.1,0-.2,0-.4.7-.8,1.3-1.3,1.9-.4.5-.9,1.1-1.4,1.5-.1,0-.2.1-.4.1-.2,0-.4,0-.5-.2,0-.1-.1-.2-.1-.4,0-.2,0-.4.2-.5.4-.4.8-.8,1.2-1.2.4-.5.7-.9,1.1-1.4.3-.5.6-1,.9-1.5.2-.4.4-.9.6-1.3,0-.1.1-.2.2-.3,0,0,.2-.1.3-.1,0,0,0,0,.1,0,0,0,0,0,.1,0,.1,0,.2.1.3.3,0,.1.1.2.1.4,0,0,0,.2,0,.2,0,.2-.1.4-.2.5s-.2.4-.3.5"/>
    <path id="_パス_117" data-name="パス_117" class="st2" d="M169.1,178.5s0,0-.1,0c-.2,0-.3,0-.4-.2-.1-.1-.2-.3-.2-.4,0-.2,0-.3.2-.4,0-.1.2-.2.4-.2,1.1-.2,2.1-.7,3-1.3.8-.6,1.5-1.4,1.9-2.4,0-.2.2-.4.2-.6,0-.1,0-.2,0-.4,0-.1,0-.2-.2-.3-.2,0-.4,0-.7,0-.4,0-.8,0-1.4,0s-1.3.1-2,.2-1.4,0-2.2,0-.2,0-.3,0c0,0-.2,0-.3,0-.2,0-.3,0-.4-.2-.1-.1-.2-.3-.2-.4,0-.2,0-.3.2-.5.1-.1.3-.2.5-.2.2,0,.4,0,.6,0s.4,0,.5,0c1,0,2,0,2.9-.1.9,0,1.7-.1,2.3-.1.5,0,1.1,0,1.5.4.3.2.4.6.4,1,0,.3,0,.6-.1.8-.1.3-.2.6-.4.9-.5,1.1-1.3,2.1-2.3,2.8-1.1.8-2.3,1.3-3.5,1.5M173.9,169.7h-5.9c-.2,0-.3,0-.4-.2-.1-.1-.2-.3-.2-.4,0-.2,0-.3.2-.4.1-.1.3-.2.4-.2h5.9c.2,0,.3,0,.4.2.1.1.2.3.2.4,0,.2,0,.3-.2.4-.1.1-.3.2-.4.2"/>
    <path id="_パス_118" data-name="パス_118" class="st1" d="M103.7,106.6h-17.1c-3.4,0-6.2,2.7-6.2,6.1,0,1.4.5,2.7,1.3,3.8h-3.3c-3.4,0-6.2,2.8-6.2,6.2s2.8,6.2,6.2,6.2h22.2c3.4,0,6.2-2.7,6.2-6.1,0-1.5-.5-3-1.5-4.1,3.3-.9,5.3-4.3,4.4-7.6-.7-2.7-3.2-4.6-6-4.6"/>
    <path id="_パス_119" data-name="パス_119" class="st2" d="M100.7,130.4h-22.2c-4.2-.1-7.5-3.6-7.3-7.8.1-4,3.3-7.2,7.3-7.3h1c-.3-.8-.4-1.6-.4-2.4,0-4.2,3.4-7.6,7.6-7.6h17.1c4.2,0,7.6,3.4,7.6,7.6,0,2.7-1.5,5.3-3.9,6.6.5,1,.8,2.2.8,3.4,0,4.2-3.4,7.6-7.6,7.6M78.5,118c-2.7,0-4.8,2.2-4.7,4.9,0,2.6,2.1,4.7,4.7,4.7h22.2c2.7,0,4.8-2.2,4.8-4.8,0-1.1-.4-2.2-1.2-3.1l-1.4-1.7,2.1-.6c2.6-.7,4.1-3.4,3.3-5.9-.6-2.1-2.5-3.5-4.6-3.5h-17.1c-2.7,0-4.8,2.2-4.8,4.8,0,1.1.4,2.1,1,2.9l1.7,2.2h-6.1Z"/>
    <path id="_パス_120" data-name="パス_120" class="st3" d="M189.6,116.6h-3.3c2.1-2.7,1.6-6.6-1.1-8.7-1.1-.9-2.4-1.3-3.8-1.3h-17.1c-3.4,0-6.2,2.8-6.2,6.2,0,2.8,1.9,5.3,4.6,6-2.2,2.6-2,6.5.6,8.7,1.1,1,2.6,1.5,4.1,1.5h22.2c3.4,0,6.2-2.8,6.2-6.2s-2.8-6.2-6.2-6.2"/>
    <path id="_パス_121" data-name="パス_121" class="st2" d="M189.6,130.4h-22.2c-4.2,0-7.6-3.4-7.6-7.6,0-1.2.3-2.3.8-3.4-3.7-2-5-6.7-2.9-10.3,1.3-2.4,3.9-3.9,6.6-3.9h17.1c4.2,0,7.6,3.4,7.6,7.6h0c0,.8-.1,1.6-.4,2.4h1c4.2-.1,7.7,3.2,7.8,7.3.1,4.2-3.2,7.7-7.3,7.8-.2,0-.3,0-.5,0M164.3,108c-2.7,0-4.8,2.2-4.8,4.8,0,2.2,1.4,4,3.5,4.6l2.1.6-1.4,1.7c-.8.9-1.2,2-1.2,3.1,0,2.7,2.2,4.8,4.8,4.8h22.2c2.7,0,4.8-2.1,4.9-4.7,0-2.7-2.1-4.8-4.7-4.9,0,0,0,0-.1,0h-6.1l1.7-2.2c.7-.8,1-1.9,1-2.9,0-2.7-2.2-4.8-4.8-4.8h-17.1Z"/>
    <path id="_パス_122" data-name="パス_122" class="st2" d="M113.4,86.5c0,.4,0,.8,0,1.2,0,.4,0,.8,0,1.2,0,.4-.2.8-.3,1.2-.2.4-.4.7-.6,1.1-.2.3-.5.6-.8.9-.2.3-.5.6-.8.9-.3.3-.5.6-.8.9-.3.3-.6.6-.9.8-.4.2-.7.3-1.1.4-.4.2-.6.6-1,.7-.4,0-.8.1-1.2.1-.4.2-.8.3-1.1.4-.4,0-.8,0-1.2-.1-.4,0-.8.3-1.2.2-.4,0-.8-.1-1.2-.2-.4,0-.7-.5-1.1-.6-.4,0-.8-.2-1.2-.3-.3-.2-.7-.5-1-.7-.4-.2-.7-.4-1.1-.6-.3-.3-.5-.6-.8-.9-.3-.3-.6-.6-.9-.9-.2-.3-.2-.8-.4-1.2s-.6-.6-.8-1,0-.8,0-1.2c-.1-.4-.2-.8-.3-1.2,0-.4-.2-.8-.2-1.2,0-.4,0-.8,0-1.2,0-.4.4-.7.5-1.1,0-.4.2-.8.3-1.2.1-.4.2-.8.4-1.2.2-.3.5-.7.7-1,.2-.4.4-.7.6-1,.3-.3.6-.5,1-.7.3-.2.6-.5,1-.7.6-.5,1.3-1,2-1.3.4,0,.8-.1,1.2-.2.4-.2.8-.3,1.1-.4.8,0,1.6,0,2.4,0,.4.1.8.2,1.2.4.8.1,1.6.4,2.3.7.3.2.6.5.9.8.4.2.7.4,1,.6.3.2.6.5.9.8.2.3.4.7.6,1.1.2.3.5.6.7,1,.2.3.4.7.6,1,.3.7.6,1.5.7,2.3,0,.4-.1.8-.2,1.2"/>
    <path id="_パス_123" data-name="パス_123" d="M102.9,97.8c-.6,0-1.3,0-1.9-.2-.6-.2-1.2-.4-1.8-.8-.2,0-.4-.2-.5-.3-.2,0-.4-.2-.6-.3-.6-.2-1.2-.5-1.7-.9-.5-.4-.9-.9-1.3-1.4-.1-.2-.2-.4-.4-.5s-.3-.3-.4-.5c-.5-.5-.8-1-1.1-1.6-.3-.6-.4-1.2-.5-1.9,0-.2,0-.4-.1-.6s-.1-.4-.2-.6c-.2-.6-.4-1.2-.4-1.9,0-.9,0-1.7.3-2.6.2-.6.4-1.2.8-1.7.1-.2.2-.4.3-.6l.2-.5c.2-.6.6-1.2,1-1.7.5-.6,1-1.1,1.6-1.5l.3-.2c.2-.1.3-.3.5-.4.5-.5,1-.8,1.6-1.2.7-.3,1.4-.5,2.2-.7l.7-.2c1.3-.3,2.7-.3,4,0,.2,0,.4.1.6.2.2,0,.4,0,.7.1.6,0,1.2.2,1.8.5.6.3,1.1.7,1.5,1.2.2.2.3.3.5.5.7.5,1.3,1.1,1.8,1.7l.3.3c.5.5.9,1.1,1.2,1.8l.2.4c.3.6.6,1.3.8,2,.1.6.1,1.3,0,1.9,0,.2,0,.5,0,.7,0,.8,0,1.7-.3,2.5,0,.2,0,.4-.1.6,0,.6-.2,1.3-.5,1.8-.4.8-.8,1.5-1.3,2.2-.6.7-1.2,1.3-1.9,1.8-.6.4-1.2.8-1.8,1l-.5.2c-.8.3-1.6.6-2.4.8-.8.2-1.7.3-2.5.3h-.6M103.5,77.7c-.5,0-1,.1-1.5.3l-.7.2c-.5,0-1.1.3-1.6.5-.4.2-.7.4-1,.7-.2.2-.4.3-.6.5l-.3.2c-.4.3-.8.6-1.1,1-.2.3-.4.7-.6,1.1l-.3.6c-.1.3-.3.5-.4.8-.2.3-.4.6-.5.9-.1.6-.2,1.3-.2,2,0,.3.1.7.2,1,0,.3.2.6.3.9,0,.2,0,.5.1.7,0,.4.2.8.3,1.2.2.3.4.6.7.9.2.2.3.4.5.6s.3.4.5.7c.2.3.4.6.7.9.3.2.6.3.9.4.3.1.6.2.8.4.2.1.4.2.7.4.3.2.7.4,1.1.5.5,0,1.1.1,1.6,0h.3c.6,0,1.3-.1,1.9-.3.6-.1,1.2-.3,1.8-.6l.5-.2c.4-.2.8-.4,1.2-.7.5-.4,1-.8,1.4-1.3.4-.5.7-1.1,1-1.7.1-.3.2-.7.3-1.1,0-.3,0-.5.2-.8.1-.6.2-1.3.2-1.9,0-.3,0-.6,0-.9,0-.3,0-.7,0-1-.1-.5-.3-.9-.6-1.4l-.2-.4c-.2-.4-.5-.8-.9-1.2l-.3-.3c-.4-.5-.9-.9-1.4-1.3-.3-.2-.5-.4-.7-.7-.2-.2-.5-.5-.7-.6-.3-.1-.7-.2-1-.2-.3,0-.6,0-.9-.2-.3,0-.6-.2-.9-.3-.3-.1-.6-.2-1-.2"/>
    <path id="_パス_124" data-name="パス_124" class="st2" d="M181.9,85.8c0,.4,0,.8,0,1.1s.3.8.3,1.2,0,.8-.1,1.2-.3.7-.4,1.1-.5.7-.6,1-.4.7-.5,1-.2.7-.4,1.1-.2.8-.4,1.1-.7.4-.9.8,0,.9-.3,1.2-.8.3-1.1.6-.3.8-.5,1.1-.8.2-1.1.5-.3.9-.6,1.1-.6.5-1,.7-.9,0-1.2.2-.6.6-.9.8-.8,0-1.2.2-.6.6-1,.7-.8,0-1.2,0-.7.4-1.1.4-.8-.4-1.2-.4-.7.5-1.1.5-.8-.5-1.1-.6-.8,0-1.1,0-.8.1-1.2,0-.8,0-1.2,0-.6-.7-.9-.8-.8-.1-1.1-.3-.8-.1-1.1-.3-.6-.5-.9-.7-.8-.2-1.1-.4-.4-.7-.7-.9-.5-.6-.8-.9-.7-.4-1-.7-.6-.5-.8-.8-.2-.8-.4-1.1-.7-.4-.9-.8-.4-.7-.5-1-.4-.7-.5-1,0-.8-.1-1.2-.4-.7-.5-1-.3-.7-.3-1.1.1-.8,0-1.2-.3-.7-.3-1.1-.2-.8-.2-1.1.3-.8.4-1.1,0-.8,0-1.1-.1-.8,0-1.2,0-.8.2-1.2.1-.8.2-1.1.3-.7.5-1.1.3-.7.5-1,.4-.7.6-1,.6-.6.8-.9.2-.8.4-1.1.9-.3,1.1-.5.3-.7.6-1,.8-.3,1.1-.5.5-.7.8-.9.5-.7.8-.9.6-.5,1-.7.8-.1,1.2-.3.7-.4,1-.5.8,0,1.2,0,.7-.3,1.1-.3.7-.2,1.1-.3.8,0,1.2,0,.8,0,1.2,0,.8.3,1.1.4.8-.1,1.2,0,.8-.3,1.2-.2.8.1,1.2.2.7.3,1.1.5.7.4,1,.6.7.4,1,.5.8.2,1.1.4.4.8.7,1,.7.3,1,.6c.3.2.7.3,1,.6s.6.5.9.8.3.8.5,1.1.6.5.8.8.3.7.5,1,.8.4,1,.8.3.7.5,1.1,0,.8.2,1.2.3.7.4,1.1,0,.8.1,1.2,0,.8,0,1.2.3.7.3,1.1-.1.8-.1,1.2"/>
    <path id="_パス_125" data-name="パス_125" class="st2" d="M173.1,86.5c0,.4-.3.8-.3,1.2-.1,1.2-.5,2.4-1.1,3.4-.2.4-.4.7-.6,1-.2.3-.3.8-.6,1.1-.3.3-.5.6-.8.9-.3.3-.7.5-1,.7-.4.2-.7.3-1.1.5-.7.3-1.5.6-2.2.8-.4.1-.8.2-1.2.3-.4,0-.8,0-1.2-.1-.4,0-.8.3-1.2.2-.4-.1-.8-.3-1.1-.5-.4,0-.8,0-1.2-.1-.4-.2-.7-.4-1-.7-.4-.2-.9-.2-1.2-.4-.3-.2-.7-.5-1-.7-.3-.3-.4-.8-.7-1.1-.3-.3-.6-.5-.9-.8-.2-.4-.4-.7-.5-1.1-.2-.3-.5-.7-.7-1-.1-.4-.2-.8-.2-1.2-.1-.4-.3-.8-.4-1.2,0-.4.2-.8.2-1.2s-.3-.8-.2-1.2.4-.7.5-1.1c0-.4.2-.8.3-1.1.1-.4.2-.8.4-1.2.1-.4.3-.8.5-1.1.2-.3.7-.5,1-.8.2-.3.5-.6.8-.9.3-.3.6-.6.9-.9.4-.2.7-.4,1.1-.5.3-.2.7-.4,1-.6.4,0,.8-.1,1.2-.2.4,0,.8-.1,1.2-.1.4,0,.8-.2,1.2-.2.4,0,.8,0,1.2,0,.4.1.8.2,1.1.4.4,0,.8,0,1.2.2.7.3,1.5.7,2.1,1.1.3.3.6.6.8.9.6.5,1.2,1.1,1.7,1.7.2.4.3.7.5,1.1.2.3.4.7.6,1,.2.4.3.7.4,1.1,0,.4,0,.8,0,1.2,0,.4.4.8.4,1.2"/>
    <path id="_パス_126" data-name="パス_126" d="M162.9,98.1c-.9,0-1.7-.1-2.6-.4-.7-.2-1.3-.4-1.9-.8l-.4-.2c-.8-.4-1.5-.9-2.1-1.4-.7-.5-1.3-1.1-1.8-1.7l-.2-.2c-.5-.6-.9-1.2-1.3-1.9-.3-.6-.4-1.2-.5-1.9,0-.2,0-.4-.1-.6s-.1-.4-.2-.6c-.2-.6-.4-1.2-.4-1.9,0-.6.1-1.3.4-1.9,0-.2.1-.4.2-.6s0-.4.1-.6c0-.6.3-1.3.5-1.9.3-.6.7-1.1,1.1-1.6.1-.2.3-.3.4-.5.1-.2.3-.4.4-.6.3-.5.7-1,1.2-1.5.7-.5,1.4-1,2.2-1.4.6-.3,1.2-.4,1.8-.5.2,0,.5,0,.7-.1h.5c1.4-.4,2.8-.4,4.1-.1l1,.2c.7,0,1.3.3,1.9.5.7.4,1.3.8,1.9,1.3l.6.4c.6.4,1.1.9,1.6,1.5.4.5.7,1.1.8,1.7,0,.2.2.4.3.6,0,.2.2.4.3.6.4.5.6,1.1.8,1.7.2.8.3,1.7.3,2.6,0,.6-.2,1.3-.4,1.9,0,.2-.1.4-.2.6-.3,1.7-1.1,3.2-2.2,4.5-1.1,1.3-2.4,2.4-3.9,3.1-.2,0-.4.2-.6.3-.6.3-1.2.6-1.8.8-.8.2-1.7.3-2.6.3M162.9,77.8c-.4,0-.9.1-1.3.2l-.6.2c-.3,0-.6.1-.9.2-.3,0-.7.1-1,.2-.6.3-1.1.6-1.7,1.1-.2.2-.5.5-.6.8-.2.3-.3.5-.5.8-.2.2-.3.4-.5.6-.3.3-.5.6-.7,1-.1.4-.2.7-.3,1.1,0,.3,0,.5-.1.8s-.1.5-.2.8c-.1.4-.2.7-.2,1.1,0,.3.1.7.2,1,0,.3.2.6.3.9,0,.2,0,.5.1.8,0,.4.1.8.3,1.1.3.5.6.9.9,1.3l.2.3c.4.5.9.9,1.4,1.3.5.4,1,.8,1.6,1.1l.5.3c.4.2.8.4,1.3.5,1.3.3,2.6.4,3.9,0,.4-.1.7-.3,1-.5.2-.1.5-.3.7-.4,2.4-1.1,4.1-3.2,4.6-5.8,0-.3.2-.6.2-.9.1-.3.2-.7.2-1,0-.7,0-1.3-.3-2-.1-.3-.3-.6-.5-.9-.2-.3-.3-.5-.5-.8s-.3-.6-.4-.9c0-.3-.2-.6-.4-.9-.3-.4-.7-.7-1.1-1l-.6-.5c-.4-.4-.9-.7-1.3-.9-.4-.1-.8-.2-1.2-.3-.2,0-.5,0-.7-.1h-.4c-.5-.2-1-.3-1.5-.3"/>
    <path id="_パス_127" data-name="パス_127" d="M164.6,105.6c-10.5,0-19.1-8.5-19.1-19.1,0-10.5,8.5-19.1,19.1-19.1,7.7,0,14.6,4.6,17.6,11.6.4,1.1-.1,2.3-1.2,2.7-1,.4-2.2,0-2.7-1.1-3.2-7.6-11.9-11.1-19.5-7.9s-11.1,11.9-7.9,19.5c3.2,7.6,11.9,11.1,19.5,7.9,3.6-1.5,6.4-4.3,7.9-7.9.5-1.1,1.7-1.5,2.8-1,1,.5,1.5,1.6,1.1,2.7-3,7.1-9.9,11.7-17.6,11.6"/>
    <path id="_パス_128" data-name="パス_128" d="M102.3,105.6c-.1,0-.3,0-.4,0-6.9-.2-13.2-4.2-16.3-10.3-3.8-7.5-2.2-16.4-.9-23,.2-1.1,1.3-1.9,2.5-1.6,1.1.2,1.8,1.3,1.7,2.4-1.4,7.7-2.4,14.6.6,20.3,3.7,7.2,12.5,10.1,19.7,6.4,2.6-1.3,4.7-3.3,6.1-5.8,1.6-3.1,2.4-6.5,2.3-10-.1-3.7-.5-7.4-1.2-11-.2-1.1.6-2.2,1.7-2.4,1.1-.2,2.2.6,2.4,1.7h0c.8,3.9,1.2,7.8,1.3,11.7.1,4.2-.9,8.3-2.9,12-3.4,5.8-9.6,9.4-16.4,9.5"/>
    <path id="_パス_129" data-name="パス_129" d="M161,95.3c-1.5,0-2.9-.7-3.9-1.7-1-1.1-1.7-2.4-2.1-3.8-.1-.5-.3-1-.3-1.4-.2-.5-.3-1-.3-1.5,0-.4,0-.8,0-1.2-.5-1.3-.4-2.7.1-4,.3-.5.6-.9,1.1-1.3.2-.2.4-.3.6-.5.8-.8,1.7-1.3,2.8-1.5.6-.2,1.2-.2,1.8-.1,1.7-.2,3.5,0,5.1.7,1.3.6,2.5,1.6,3.3,2.9.7.6,1.3,1.4,1.7,2.2.8,1.5.9,3.3.3,4.9-.2.4-.4.8-.7,1.2-.8,1.2-1.9,2.3-3.2,3.1-.3.3-.6.5-1,.8-1,.6-2,.8-3.1.8-.6.3-1.3.5-2,.5h-.2M161.9,93.1c.4,0,.8,0,1.2,0,.3-.2.6-.5.9-.7.1,0,.2-.2.3-.3-.5.1-1,.2-1.6.2-.2,0-.4,0-.6,0-.6,0-1.3,0-1.9,0,0,0,.2.1.3.2.4.2.8.4,1.3.6M166.8,91.1c-.2.5-.5.9-.8,1.3.2,0,.3-.2.5-.3.4-.5.8-1,1-1.6-.2.2-.5.4-.8.6M162.3,90.9c.1,0,.3,0,.4,0,1.2-.2,2.3-.8,3.3-1.5.1-.4.3-.9.3-1.3-.5,1-1.2,1.7-2.2,2.3-.6.3-1.2.5-1.8.5M158.4,90.3c0,0,.1,0,.2,0-.1-.1-.2-.3-.4-.4,0,0,.1.2.2.3M169.3,88.3c0,.4,0,.9-.1,1.3,0,0,.1-.2.2-.3.2-.3.4-.6.5-1,.3-.8.4-1.7.2-2.6-.1.9-.4,1.7-.8,2.5M159.8,89.1c.1,0,.3.1.4.2,0,0,0,0-.1-.1,0,0-.2,0-.3,0M167.8,86.9c0,.1,0,.2,0,.4,0,0,0,0,0-.1,0,0,0-.2,0-.2M163.2,84.8h0c-.4,0-.8.3-1,.7,0,.3,0,.7.4.9.1,0,.2,0,.4,0,.3,0,.6-.1.8-.3,0-.3,0-.6.2-.9,0,0,0-.1-.1-.2-.2-.2-.4-.3-.6-.2M159.2,83.1c0,0,0,.2,0,.2-.1.6-.2,1.2-.1,1.8.1-.8.4-1.7.9-2.4-.3,0-.5.2-.7.3M161.9,82.6c-.2.2-.4.4-.5.6-.2.3-.4.7-.6,1.1.2-.2.5-.4.7-.6.7-.5,1.6-.6,2.4-.4-.2-.1-.4-.2-.6-.3-.4-.2-.9-.3-1.4-.4M157.3,81c-.1.2-.2.3-.3.5,1-.8,2.1-1.4,3.3-1.7-.1,0-.3,0-.4,0-.9.2-1.8.6-2.6,1.1M161.7,79.6c.3,0,.6,0,.9,0,.2,0,.4,0,.6,0-.5,0-1,0-1.6,0h.1Z"/>
    <path id="_パス_130" data-name="パス_130" d="M102.7,95.3c-1.5,0-2.9-.7-3.9-1.7-1-1.1-1.7-2.4-2.1-3.8-.1-.5-.3-1-.3-1.5-.2-.5-.3-1-.3-1.5,0-.4,0-.8,0-1.2-.5-1.3-.4-2.7.1-4,.3-.5.6-.9,1.1-1.3.2-.2.4-.3.6-.5.8-.8,1.7-1.3,2.8-1.5.6-.2,1.2-.2,1.8-.1,1.7-.2,3.5,0,5.1.7,1.3.6,2.5,1.6,3.3,2.9.7.6,1.3,1.4,1.7,2.2.8,1.5.9,3.3.3,4.9-.2.4-.4.8-.7,1.2-.8,1.2-1.9,2.3-3.2,3.1-.3.3-.6.5-1,.8-1,.6-2,.8-3.1.8-.6.3-1.3.5-2,.5h-.2M103.6,93.1c.4,0,.8,0,1.2,0,.3-.2.6-.5.9-.7.1,0,.2-.2.3-.3-.5.1-1,.2-1.6.2-.2,0-.4,0-.6,0-.6,0-1.3,0-1.9,0,0,0,.2.1.3.2.4.2.8.4,1.3.6M108.5,91.1c-.2.5-.5.9-.8,1.3.2,0,.3-.2.5-.3.4-.5.8-1,1-1.6-.2.2-.5.4-.8.6M104,90.9c.1,0,.3,0,.4,0,1.2-.2,2.3-.8,3.3-1.5.1-.4.3-.9.3-1.3-.5,1-1.2,1.7-2.2,2.3-.6.3-1.2.5-1.8.5M100.1,90.3c0,0,.1,0,.2,0-.1-.1-.2-.3-.4-.4,0,0,.1.2.2.3M111,88.3c0,.4,0,.9-.1,1.3,0,0,.1-.2.2-.3.2-.3.4-.6.5-1,.3-.8.4-1.7.2-2.6-.1.9-.4,1.7-.8,2.5M101.5,89.1c.1,0,.3.1.4.2,0,0,0,0-.1-.1,0,0-.2,0-.3,0M109.5,86.9c0,.1,0,.2,0,.4,0,0,0,0,0-.1,0,0,0-.1,0-.2M104.9,84.8h0c-.4,0-.8.3-1,.7,0,.3,0,.7.4.9.1,0,.2,0,.4,0,.3,0,.6-.1.8-.3,0-.3,0-.6.3-.9,0,0,0-.1-.1-.2-.2-.2-.4-.3-.6-.2M100.9,83.1c0,0,0,.2,0,.2-.1.6-.2,1.2-.1,1.8.1-.8.4-1.7.9-2.4-.3,0-.5.2-.7.3M103.6,82.6c-.2.2-.4.4-.5.6-.2.3-.4.7-.6,1.1.2-.2.5-.4.7-.6.7-.5,1.6-.6,2.4-.4-.2-.1-.4-.2-.6-.3-.4-.2-.9-.3-1.4-.4M98.9,81c-.1.2-.2.3-.3.5.4-.4.9-.7,1.4-1,.6-.3,1.2-.6,1.9-.7-.1,0-.2,0-.4,0-.9.2-1.8.6-2.6,1.1M103.4,79.6c.3,0,.6,0,.9,0,.2,0,.4,0,.6,0-.5,0-1,0-1.6,0h.1Z"/>
    <path id="_パス_131" data-name="パス_131" class="st2" d="M151.1,155c-.7,0-1.4-.3-1.8-.8-.4-.5-.7-1-.9-1.6,0-.2-.1-.4-.1-.6,0-.2-.1-.4-.1-.7,0-.2,0-.3,0-.5-.2-.6-.1-1.2.1-1.8.1-.2.3-.4.5-.6,0,0,.2-.1.2-.2.3-.3.8-.6,1.3-.7.3,0,.5-.1.8,0,.7,0,1.5,0,2.2.3.6.3,1.1.7,1.4,1.2.3.3.5.6.7,1,.4.7.4,1.5.1,2.3,0,.2-.2.4-.3.6-.4.5-.8,1-1.3,1.3-.1.1-.3.2-.4.3-.4.2-.9.4-1.4.4-.3.1-.6.2-.8.2h0"/>
    <path id="_パス_132" data-name="パス_132" class="st2" d="M120,141.2c-.4,0-.7-.2-1-.4-.2-.2-.4-.5-.4-.8,0,0,0-.1,0-.2,0-.1,0-.2,0-.3,0,0,0-.1,0-.2,0-.3,0-.6,0-.9,0-.1.2-.3.3-.4,0,0,0,0,0,0,.2-.2.4-.3.6-.3.1,0,.3,0,.4,0,.3,0,.7,0,1,.2.3.1.5.3.7.6.1.1.2.3.3.4.2.4.2.8,0,1.2,0,0,0,.2-.1.3-.2.2-.4.4-.6.6,0,0-.1.1-.2.1-.2.1-.4.2-.6.2-.1,0-.3,0-.4,0h0"/>
    <path id="_パス_133" data-name="パス_133" class="st2" d="M220.4,155.1c-.7,0-1.3-.3-1.8-.8-.4-.5-.7-1-.9-1.6,0-.2-.1-.4-.1-.6,0-.2-.1-.4-.1-.7,0-.2,0-.3,0-.5-.2-.6-.1-1.2.1-1.8.1-.2.3-.4.5-.6,0,0,.2-.1.2-.2.3-.3.8-.6,1.3-.7.3,0,.6-.1.8,0,.7,0,1.5,0,2.1.3.6.3,1.1.7,1.4,1.2.3.3.5.6.7,1,.4.7.4,1.5.1,2.3,0,.2-.2.4-.3.5-.4.5-.8,1-1.4,1.3-.1.1-.3.2-.4.3-.4.2-.9.4-1.4.4-.3.1-.6.2-.8.2h-.1"/>
    <path id="_パス_134" data-name="パス_134" class="st2" d="M134,21.5c-.8,0-1.4-.6-1.4-1.4V1.4C132.6.6,133.3,0,134,0s1.4.6,1.4,1.4v18.7c0,.8-.6,1.4-1.4,1.4"/>
    <path id="_パス_135" data-name="パス_135" class="st2" d="M134,29.8c-.8,0-1.4-.6-1.4-1.4v-3c0-.8.6-1.4,1.4-1.4s1.4.6,1.4,1.4h0v3c0,.8-.6,1.4-1.4,1.4"/>
    <path id="_パス_136" data-name="パス_136" class="st2" d="M80.1,29.9c-.5,0-1-.3-1.2-.7l-9.3-17.2c-.4-.7-.1-1.5.6-1.9.7-.4,1.5-.1,1.9.6l9.3,17.2c.4.7.1,1.5-.6,1.9-.2.1-.4.2-.7.2"/>
    <path id="_パス_137" data-name="パス_137" class="st2" d="M84.3,37.6c-.5,0-1-.3-1.2-.7l-1.5-2.8c-.4-.7-.1-1.5.6-1.9s1.5-.1,1.9.6h0l1.5,2.8c.4.7.1,1.5-.6,1.9-.2.1-.4.2-.7.2"/>
    <path id="_パス_138" data-name="パス_138" class="st2" d="M187.7,29.9c-.8,0-1.4-.6-1.4-1.4,0-.2,0-.5.2-.7l9.3-17.2c.4-.7,1.2-.9,1.9-.6s.9,1.2.6,1.9h0l-9.3,17.2c-.2.4-.7.7-1.2.7"/>
    <path id="_パス_139" data-name="パス_139" class="st2" d="M183.6,37.6c-.8,0-1.4-.6-1.4-1.4,0-.2,0-.5.2-.7l1.5-2.8c.3-.7,1.2-1,1.9-.6.7.3,1,1.2.6,1.9,0,0,0,0,0,0l-1.5,2.8c-.2.4-.7.7-1.2.7"/>
    <path id="_パス_140" data-name="パス_140" class="st2" d="M41,60.3c-.3,0-.6,0-.8-.3l-16.1-11.8c-.6-.5-.8-1.3-.3-1.9.5-.6,1.3-.8,1.9-.3l16.1,11.8c.6.5.8,1.3.3,1.9-.3.4-.7.6-1.1.6"/>
    <path id="_パス_141" data-name="パス_141" class="st2" d="M48.3,65.6c-.3,0-.6,0-.8-.3l-2.6-1.9c-.6-.5-.8-1.3-.3-1.9.5-.6,1.3-.8,1.9-.3,0,0,0,0,0,0l2.6,1.9c.6.5.8,1.3.3,1.9-.3.4-.7.6-1.1.6"/>
    <path id="_パス_142" data-name="パス_142" class="st2" d="M226.1,60.3c-.8,0-1.4-.6-1.4-1.4,0-.4.2-.9.6-1.1l16.1-11.8c.6-.5,1.5-.3,1.9.3.5.6.3,1.5-.3,1.9l-16.1,11.8c-.2.2-.5.3-.8.3"/>
    <path id="_パス_143" data-name="パス_143" class="st2" d="M218.9,65.6c-.8,0-1.4-.6-1.4-1.4,0-.4.2-.9.6-1.1l2.6-1.9c.6-.5,1.5-.3,2,.3.5.6.3,1.5-.3,2,0,0,0,0,0,0l-2.6,1.9c-.2.2-.5.3-.8.3"/>
    <path id="_パス_144" data-name="パス_144" class="st2" d="M21,109.4c0,0-.2,0-.2,0l-19.6-3.5c-.8-.1-1.3-.9-1.1-1.6.1-.8.9-1.3,1.6-1.1l19.6,3.5c.8.1,1.3.9,1.1,1.6-.1.7-.7,1.2-1.4,1.2"/>
    <path id="_パス_145" data-name="パス_145" class="st2" d="M29.8,111c0,0-.2,0-.2,0l-3.2-.6c-.8-.1-1.3-.9-1.1-1.6.1-.8.9-1.3,1.6-1.1h0l3.2.6c.8.1,1.3.9,1.1,1.6-.1.7-.7,1.2-1.4,1.2"/>
    <path id="_パス_146" data-name="パス_146" class="st2" d="M247.1,109.4c-.8,0-1.4-.6-1.4-1.4,0-.7.5-1.3,1.2-1.4l19.6-3.5c.8-.1,1.5.3,1.6,1.1.1.8-.3,1.5-1.1,1.6,0,0,0,0,0,0l-19.6,3.5c0,0-.2,0-.2,0"/>
    <path id="_パス_147" data-name="パス_147" class="st2" d="M238.3,111c-.8,0-1.4-.6-1.4-1.4,0-.7.5-1.3,1.2-1.4l3.2-.6c.8-.1,1.5.3,1.6,1.1.1.8-.3,1.5-1.1,1.6,0,0,0,0,0,0l-3.2.6c0,0-.2,0-.2,0"/>
  </g>
</svg>