<?xml version="1.0" encoding="UTF-8"?>
<svg id="_レイヤー_1" data-name="レイヤー_1" xmlns="http://www.w3.org/2000/svg" xmlns:xlink="http://www.w3.org/1999/xlink" version="1.1" viewBox="0 0 352 162">
  <!-- Generator: Adobe Illustrator 29.6.1, SVG Export Plug-In . SVG Version: 2.1.1 Build 9)  -->
  <defs>
    <style>
      .st0 {
        filter: url(#_いつもの料理を_もっとおいしく);
      }

      .st1 {
        filter: url(#_毎日の料理を特別な体験に);
      }

      .st2 {
        isolation: isolate;
      }

      .st3 {
        fill: #fff;
      }
    </style>
    <filter id="_いつもの料理を_もっとおいしく" data-name="いつもの料理を_もっとおいしく" x="0" y="0" width="352" height="120">
      <feOffset/>
      <feGaussianBlur result="blur" stdDeviation="4"/>
      <feFlood flood-opacity="0.769"/>
      <feComposite in2="blur" operator="in"/>
      <feComposite in="SourceGraphic"/>
    </filter>
    <filter id="_毎日の料理を特別な体験に" data-name="毎日の料理を特別な体験に" x="8" y="116" width="337" height="46">
      <feOffset/>
      <feGaussianBlur result="blur-2" stdDeviation="4"/>
      <feFlood flood-opacity="0.769"/>
      <feComposite in2="blur-2" operator="in"/>
      <feComposite in="SourceGraphic"/>
    </filter>
  </defs>
  <g id="_グループ_32" data-name="グループ_32">
    <g class="st0">
      <g id="_いつもの料理を_もっとおいしく-2" data-name="いつもの料理を_もっとおいしく-2" class="st2">
        <g class="st2">
          <path class="st3" d="M23.1182,18.8049c-.7998,2.3994-1.1196,3.7598-1.3198,4.8389-.48,2.5596-.7998,5.2393-.7998,7.8789,0,3.9199,1.0796,8.7588,2.0796,8.7588.8398,0,1.9995-3.8398,2.3198-4.959.9995,1.2393,2.3994,2.3994,3.959,3.2393-2.7993,8.5186-5.7188,8.5986-6.1987,8.5986-2.7993,0-7.1187-5.8389-7.1187-16.6377,0-5.5586.8398-9.7979,1.5596-13.1172l5.519,1.3994ZM39.9155,19.2053c5.1592,6.998,7.1987,14.1172,8.3984,20.6758l-5.3193,1.4004c-.6396-4.6396-1.9194-8.8389-2.5195-10.5186-.3999-1.3594-1.9595-5.3594-4.7588-9.5986l4.1992-1.959Z"/>
          <path class="st3" d="M60.7202,22.5646c2.4395-.3604,13.3975-2.1201,15.6772-2.4395,1.1597-.1602,3.2393-.4004,5.439-.4004,3.1196,0,7.9585.3604,10.6782,5.0391.6797,1.2002,1.5996,3.4395,1.5996,6.3994,0,13.6777-16.1172,15.7568-24.5156,15.7969-.2002-1.7998-.6001-3.7598-1.48-5.2793,3.4795.0801,11.0381.2803,16.2773-2.959,2.9194-1.8398,4.3994-4.3594,4.3994-7.6387,0-6.5596-5.2793-6.5596-7.0391-6.5596-5.2388,0-12.5176,1.8398-19.9165,3.6396l-1.1196-5.5986Z"/>
          <path class="st3" d="M122.9976,15.2453c-.6401,2.0801-1.2798,5.3594-1.3999,6.0791,1.7197,0,3.5195-.0801,5.2393-.3203l-.04,4.7598c-2.2397.3594-4.3193.3594-6.1592.4395-.3198,1.6396-.6797,3.6797-.8799,5.2793,1.6001-.04,3.8794-.2402,5.7993-.4795l.0801,4.7188c-1.9199.2002-4.2793.4004-6.3989.4004-.1201.8799-.1201,1.5596-.1201,2.1592,0,2.8799.9199,4.5195,2.3994,5.4395.7603.4795,2,1,3.8394,1,4.8394,0,6.6792-3.2402,6.6792-6.4395,0-2.9189-1.6396-5.4385-4.7593-8.0381,1.0796-.7207,2.2793-1.6396,3.2393-2.8799,4.5596,3.5195,6.7588,7.9189,6.7588,11.6377,0,6.2393-5.1592,10.1982-12.1577,10.1982-2.9194,0-5.9189-.8398-7.8789-2.4395-1.5996-1.2793-3.1592-3.4395-3.1592-8.1582,0-.7598.04-1.6396.1597-2.7197-3.2393-.3604-6.2788-.7197-6.2788-4.5195,0-.96.2798-2.2393.6797-3.8789l4.1597.8799c-.4399,1.4395-.48,1.5996-.48,1.7598,0,.5996.5996,1.1592,2.3594,1.1592.2002-1.5195.52-3.5986.7603-5.1982-3.9194-.3604-5.4795-.6006-7.7188-1.2002l1.1196-4.7988c1.8799.5596,2.7993.7598,3.7993.8799.9199.1191,1.9199.1592,3.6396.3594.1597-.8398.7998-4.7588,1.0396-6.9189l5.6792.8398Z"/>
          <path class="st3" d="M165.438,43.7209c10.8784-1.3604,12.9976-7.7588,12.9976-11.958,0-2.4395-.8398-4.959-2.1191-6.4795-1.5601-1.999-3.9995-3.1191-7.2388-3.5986-2.9194,16.5166-8.8784,23.6758-12.8379,23.6758-4.3193,0-6.6787-6.2793-6.6787-11.1582,0-8.958,7.0386-16.7168,18.0767-16.7168,10.5186,0,16.1572,6.0781,16.1572,14.4775,0,3.959-1,9.3584-7.2388,13.3174-1.8794,1.1602-4.3193,2.3193-8.9185,3.3594-.4399-1.7998-1.2397-3.5596-2.1997-4.9189ZM156.2397,27.2834c-1,1.5195-1.7998,3.7998-1.7998,6.3594,0,2.4795.96,6.0791,2.4795,6.0791,1.2397,0,2.0796-1.7998,2.3599-2.2803,3.1992-6.6387,4.1992-11.8779,4.8389-15.4375-1.7197.4404-5.439,1.4404-7.8784,5.2793Z"/>
          <path class="st3" d="M214.3574,19.2053c-.999,1.959-2.1592,4.1992-3.3184,6.2383-.9199-.5195-2.3203-1.2793-3.2002-1.6797v2.1602h5.1992v4.2393h-5.1992v1.4795c1.6807,1.5996,3.8398,3.1592,5.6787,4.2393-.8398,1.3193-1.5195,2.6396-2.2793,3.999-1.1191-.7598-2.3594-1.7197-3.3994-2.6797v12.1982h-4.5596v-11.5176c-1.1191,2.0391-2.3184,3.999-4.8789,6.5586-.5596-1.5996-1.5996-2.999-2.7598-4.0391,3.9199-3.96,5.6797-7.3594,7-10.2383h-5.4795v-4.2393h6.1182v-11.8379h4.5596v9.1982c1-1.96,1.96-4.2793,2.5996-5.999l3.9189,1.9199ZM199.3604,25.2043c-.6797-1.8799-1.6797-3.8799-2.7588-5.9199l3.5586-1.7197c.8008,1.5605,1.7598,3.2402,2.8799,5.8799l-3.6797,1.7598ZM228.9961,14.0861v19.916l3.2793-.5596.6396,4.4795-3.9189.6396v10.8379h-4.7197v-10.1982l-9.6787,1.4795-.5596-4.5586,10.2383-1.4805V14.0861h4.7197ZM220.0771,33.5627c-1.6797-1.2803-3.4795-2.5596-5.4795-3.6797l2.4004-3.5195c1.8789,1,3.8789,2.2803,5.5986,3.7197l-2.5195,3.4795ZM220.7568,24.1242c-1.5996-1.5596-3.3193-3.0801-5.1191-4.5596l2.8799-3.1191c1.6797,1.3994,3.4785,2.7598,5.0791,4.5986l-2.8398,3.0801Z"/>
          <path class="st3" d="M257.6387,16.5656v4.3193h-4.2393v5.9189h3.5596v4.2393h-3.5596v6.7988c1.3193-.3604,2.999-.8398,4.3994-1.2002l.0801,4.4395c-2,.6396-10.7578,3.2793-12.5176,3.7988l-1.3604-4.9189c1.5596-.3594,3.2803-.7998,4.8799-1.1592v-7.7588h-3.6797v-4.2393h3.6797v-5.9189h-4.0801v-4.3193h12.8379ZM278.5156,14.8058v19.0361h-7.959v3.0801h7.8789v4.0391h-7.8789v3.6797h9.7988v4.1592h-24.3164v-4.1592h9.998v-3.6797h-7.2783v-4.0391h7.2783v-3.0801h-7.5186V14.8058h19.9971ZM262.5586,18.8449v3.6797h3.4785v-3.6797h-3.4785ZM262.5586,26.4035v3.4395h3.4785v-3.4395h-3.4785ZM270.5566,18.8449v3.6797h3.3193v-3.6797h-3.3193ZM270.5566,26.4035v3.4395h3.3193v-3.4395h-3.3193Z"/>
          <path class="st3" d="M312.4375,15.7658c-.7197,1.1992-1.5195,2.5195-2.2393,3.6387,4.4795-.5996,5.6787-.7998,8.6387-1.5996l.1602,4.8789c-5.1191.7607-6.5596.9199-11.7178,1.2803-.6406.9199-1.3604,2.04-1.9609,2.96,1.3203-.5205,2.1201-.6006,2.7598-.6006,4.2793,0,4.9199,2.8799,5.2393,4.2793,2.2803-.8398,9.6787-3.3594,10.3984-3.6396l1.5195,4.96c-3.3594.7197-6.7988,1.6797-11.6377,3.3193v5.4385h-4.999c.04-.999.04-2.3994.04-3.6787-3,1.3994-5.4395,2.5996-5.4395,4.3594,0,2.8389,5.3594,2.8389,8.1592,2.8389,4.3584,0,6.6387-.1992,10.5176-.7998l.04,5.1191c-3.6797.3604-5.6387.4805-8.6387.4805s-8.918,0-12.3574-2.4004c-1.4805-1.0391-2.5996-2.5986-2.5996-4.7188,0-4.8389,5.7188-7.4785,10.3184-9.5186,0-1.1201-.4805-2.1992-1.9199-2.1992-2,0-4.1592,1.0791-5.6797,2.4795-.9199.8799-4.6787,4.999-5.4385,5.7988l-3.5195-3.5596c4.2793-3.5195,6.7588-6.3984,9.7588-10.6377-1.5195.0801-2.3203.0801-3.5195.0801-.6797,0-1.4395-.04-2.5996-.1602v-4.7197c3.5195.2803,4.3984.3203,5.9189.3203.7197,0,1.6396,0,2.9189-.0801,1.041-2.04,1.2803-2.5596,2.5996-5.9189l5.2793,2Z"/>
        </g>
        <g class="st2">
          <path class="st3" d="M29.7969,71.2453c-.6401,2.0801-1.2798,5.3594-1.3999,6.0791,1.7197,0,3.5195-.0801,5.2393-.3203l-.04,4.7598c-2.2397.3594-4.3193.3594-6.1592.4395-.3198,1.6396-.6797,3.6797-.8799,5.2793,1.6001-.04,3.8794-.2402,5.7993-.4795l.0801,4.7188c-1.9199.2002-4.2793.4004-6.3989.4004-.1201.8799-.1201,1.5596-.1201,2.1592,0,2.8799.9199,4.5195,2.3994,5.4395.7603.4795,2,1,3.8394,1,4.8394,0,6.6792-3.2402,6.6792-6.4395,0-2.9189-1.6401-5.4385-4.7593-8.0381,1.0796-.7207,2.2793-1.6396,3.2393-2.8799,4.5596,3.5195,6.7588,7.9189,6.7588,11.6377,0,6.2393-5.1592,10.1982-12.1577,10.1982-2.9194,0-5.9189-.8398-7.8789-2.4395-1.5996-1.2793-3.1592-3.4395-3.1592-8.1582,0-.7598.04-1.6396.1597-2.7197-3.2393-.3604-6.2788-.7197-6.2788-4.5195,0-.96.2798-2.2393.6802-3.8789l4.1592.8799c-.4399,1.4395-.48,1.5996-.48,1.7598,0,.5996.5996,1.1592,2.3594,1.1592.2002-1.5195.52-3.5986.7603-5.1982-3.9194-.3604-5.4795-.6006-7.7188-1.2002l1.1196-4.7988c1.8799.5596,2.7993.7598,3.7993.8799.9199.1191,1.9199.1592,3.6396.3594.1597-.8398.7998-4.7588,1.0396-6.9189l5.6792.8398Z"/>
          <path class="st3" d="M55.6797,84.2834c3.6792-.4004,5.6787-.7598,7.3984-1.0801,4.6396-.8398,6.959-1.2793,9.5586-1.2793,8.8384,0,9.9985,6.7588,9.9985,9.5186,0,11.8779-15.6377,12.7578-19.7568,12.917-.2002-1.6797-.5601-3.3193-1.3599-4.8389,6.1592,0,15.9575-.96,15.9575-7.959,0-2.6396-1.8398-4.959-6.1592-4.959-2.6797,0-4.0791.3203-14.5576,2.6396l-1.0796-4.959Z"/>
          <path class="st3" d="M110.6377,70.5656c-.2803,4.3193-.3203,7.4785-.3203,7.999,0,1.5195.0801,2.8389.48,5.4785,3.0796-1.0801,3.9595-1.3193,12.2378-3.5996l1.6401,5.2393c-7.5991,1.5205-16.7173,3.3594-21.2368,7.2393-.5195.4395-1.7993,1.5596-1.7993,3.1992,0,4.0791,7.6787,4.0791,10.5181,4.0791,3.5195,0,7.8389-.1992,12.478-.7998l.2397,5.2393c-4.1191.4004-6.479.5596-10.0381.5596-3.8794,0-9.4785-.2393-12.918-1.6396-4.1992-1.7197-5.3193-4.959-5.3193-7.0781,0-5.959,6.439-9.0391,9.7188-10.6787-1.1201-4.0391-1.1201-4.7988-1.1201-15.1572l5.4395-.0801Z"/>
          <path class="st3" d="M152.0381,70.4455c-.2402,2.8799-.3604,3.999-.4399,6.4795,1.9595-.3203,2.8394-.6006,5.8389-1.5205l.1201,5.1191c-2.7197.7207-3.0796.7998-6.1992,1.4805,0,1.5195-.04,3.4395-.04,4.959,2.5596-.8398,6.1992-1.8799,9.8784-1.8799,9.0386,0,10.1182,7.1592,10.1182,9.7188,0,5.959-4.479,9.3184-9.3984,9.3184-3.3994,0-6.2388-1.6396-8.6382-4.8799,1.4395-.6797,3.0396-1.7598,4.0791-2.999,1.4399,2.3594,3.1597,2.999,4.5591,2.999,2.9199,0,4.1997-2.8389,4.1997-4.5586,0-2-.96-5.2393-5.8794-5.2393-1.6396,0-4.999.5596-8.8784,1.96.04,2.999.0801,7.2783.0801,9.5176,0,1.4805-.48,4.1201-3.6792,4.1201-3.8394,0-10.0386-3.9199-10.0386-7.7988,0-1.8799,1.6396-5.0791,8.8384-8.5586,0-1.5195-.0396-4.1592-.0396-6.1191-1.9199.0801-2.7998.1201-3.7197.1201-.8799,0-1.7993-.04-3.4395-.1201l.1602-4.999c2.1196.1201,2.8394.1602,4.1592.1602.8398,0,1.7598-.0801,2.9995-.1602,0-1.0801.04-6.0791.04-7.1191h5.3193ZM146.6787,93.5217c-2.1196,1.2002-4.3193,2.5596-4.3193,3.7598,0,1.2393,2.7197,2.8789,3.4395,2.8789.3203,0,.8799,0,.8799-1.1992v-5.4395ZM168.835,83.923c-2.7993-2.2793-4.5991-3.4395-8.9585-5.4385l2.4795-3.8398c3.9595,1.4004,6.999,3.2393,9.5586,5.1992l-3.0796,4.0791Z"/>
          <path class="st3" d="M193.5195,74.8049c-.7998,2.3994-1.1191,3.7598-1.3203,4.8389-.4795,2.5596-.7988,5.2393-.7988,7.8789,0,3.9199,1.0791,8.7588,2.0791,8.7588.8398,0,1.999-3.8398,2.3193-4.959,1,1.2393,2.4004,2.3994,3.959,3.2393-2.7988,8.5186-5.7188,8.5986-6.1982,8.5986-2.7998,0-7.1182-5.8389-7.1182-16.6377,0-5.5586.8398-9.7979,1.5586-13.1172l5.5195,1.3994ZM210.3164,75.2053c5.1602,6.998,7.1992,14.1172,8.3984,20.6758l-5.3184,1.4004c-.6406-4.6396-1.9199-8.8389-2.5195-10.5186-.4004-1.3594-1.96-5.3594-4.7598-9.5986l4.1992-1.959Z"/>
          <path class="st3" d="M240.7588,71.965c-.7598,6.9189-1.2393,16.8379-1.2393,20.1172,0,2.7998.0801,4.2393.5996,5.2793.3594.7197,1.4395,2.2393,4.3594,2.2393,7.0391,0,11.6777-7.2783,13.918-11.7979,1.2393,1.3594,2.8389,2.5596,4.4395,3.2393-2.3604,4.0391-8.1992,13.4375-18.4775,13.4375-5.7988,0-7.8789-2.999-8.4385-3.9189-1.4004-2.4395-1.4004-5.4395-1.4004-9.5186,0-2.7598.2803-16.2373.2803-19.2764l5.959.1992Z"/>
          <path class="st3" d="M298.6777,75.1652c-8.0791,6.0791-12.7578,8.7178-14.7578,9.7979-2.4004,1.3203-2.6797,1.4795-2.6797,1.96,0,.5195.4805.8398,1.4795,1.5195,7.6787,5.1592,11.8389,9.3584,16.3174,13.8779l-4.5195,3.7588c-5.7188-6.6787-11.4775-11.5176-15.4766-14.5176-4.0391-3.1191-4.2793-3.2793-4.2793-4.7188,0-1.8799.959-2.4795,4.6387-4.7197,4.8398-2.9189,9.7188-6.3984,15.4775-11.2773l3.7998,4.3193Z"/>
        </g>
      </g>
    </g>
    <g class="st1">
      <g id="_毎日の料理を特別な体験に-2" data-name="毎日の料理を特別な体験に-2" class="st2">
        <g class="st2">
          <path class="st3" d="M40.0229,130.8723v1.7822h-14.3901c-.814,1.2754-1.4521,2.2217-3.3223,4.4219-.374-.5938-.8804-1.0781-1.4082-1.4736,1.2979-1.4307,3.0581-3.5869,4.6206-7.1514l2.0239.8799c-.3521.5508-.5938.9902-.9238,1.541h13.3999ZM40.5508,139.1887v1.6943h-2.5742c-.0659,1.0127-.1099,2.1787-.1758,3.0811h2.2661v1.8701h-2.4644c-.1318,1.9365-.5723,2.6846-3.7188,3.1025-.1538-.792-.418-1.2988-.9019-1.959h1.8042c.5723,0,.5942-.3291.6602-1.1436h-9.8574c-.0879.4844-.1543.9902-.2202,1.4521l-2.002-.2861c.3521-2.0459.6377-4.0488.8579-6.1172h-3.0366v-1.6943h3.3008c.1538-1.5615.3301-3.3662.4839-4.7744h13.2021c-.022,1.6504-.0884,3.4551-.1104,4.7744h2.4863ZM26.2051,140.883c-.1104,1.0566-.2422,2.0908-.3965,3.0811h3.939c.0879-.9463.1978-2.0908.3081-3.0811h-3.8506ZM26.7988,136.1525c-.1099,1.0127-.2197,2.0908-.3521,3.0361h3.7627c.0879-.9453.1763-2.0898.2422-3.0361h-3.6528ZM31.5957,143.9641h4.0483c.0664-.9023.1543-1.9805.1982-3.0811h-3.9604l-.2861,3.0811ZM32.2998,136.1525c-.0879,1.0127-.1982,2.1123-.2861,3.0361h3.9165c.0439-.9678.0884-2.1123.0884-3.0361h-3.7188Z"/>
          <path class="st3" d="M63.2988,130.2775v17.4043h-2.2441v-1.1221h-8.6255v1.4746h-2.1343v-17.7568h13.0039ZM52.4292,132.1916v5.1494h8.6255v-5.1494h-8.6255ZM52.4292,139.2111v5.4785h8.6255v-5.4785h-8.6255Z"/>
          <path class="st3" d="M82.0854,145.8342c5.1709-.8799,7.3052-3.4102,7.3052-7.0635,0-3.8281-2.2222-5.875-6.0288-6.1602-1.144,7.1504-3.6309,11.3096-4.8628,12.585-.6382.6602-1.2764.793-1.6943.793-2.1343,0-3.6963-2.9707-3.6963-6.1172,0-5.2373,4.1582-8.9336,9.9673-8.9336,2.2661,0,5.0825.9238,6.5347,2.3984,1.3862,1.4307,2.0244,3.4102,2.0244,5.3691,0,6.3145-5.2368,8.2285-8.647,9.0654-.2202-.7705-.5283-1.3867-.9023-1.9365ZM75.0884,139.8273c0,2.2002.8584,3.916,1.8262,3.916.7261,0,1.4302-1.5615,1.8047-2.332,1.144-2.5303,2.2881-5.8965,2.5962-8.6689-3.3887.6602-6.2271,3.0586-6.2271,7.085Z"/>
          <path class="st3" d="M105.0088,128.8918v6.7764h3.0586v1.7822h-3.0586v1.2109c.9023.9238,2.1343,1.8477,3.2568,2.4424-.4404.5713-.7925,1.1875-1.1226,1.7598-.7261-.4844-1.4961-1.0996-2.1343-1.6943v7.1514h-1.936v-7.3047c-.8364,1.6279-1.7603,2.9922-3.0146,4.3125-.2197-.6387-.7261-1.2549-1.2983-1.6289,1.7163-1.8262,3.0146-3.6963,3.939-6.249h-3.2568v-1.7822h3.6309v-6.7764h1.936ZM100.6963,134.8107c-.396-.9688-.8799-2.0684-1.4521-3.1465l1.584-.7041c.5063,1.0117,1.0562,2.1123,1.4966,3.1465l-1.6284.7041ZM108.5952,131.6203c-.4839,1.0781-1.1001,2.376-1.6499,3.4541-.4624-.3076-.9243-.5938-1.4521-.8799.5059-1.0781.9238-2.2666,1.3418-3.4551l1.7603.8809ZM116.7148,128.8693v11.2441l2.0239-.374.2642,1.9355-2.2881.3965v6.1611h-2.1123v-5.8311l-5.6108.8584-.3081-1.9365,5.9189-.8799v-11.5742h2.1123ZM112.0718,139.4094c-.9458-.7041-1.936-1.3867-2.9043-1.959l1.166-1.584c.9463.5723,2.0024,1.2764,2.9487,1.9805l-1.2104,1.5625ZM112.292,134.1281c-.748-.7695-1.6284-1.6064-2.5303-2.376l1.3203-1.2988c.9238.749,1.8262,1.6289,2.5083,2.4648l-1.2983,1.21Z"/>
          <path class="st3" d="M132.6636,130.4094v1.8486h-2.5522v3.6523h2.1123v1.8486h-2.1123v4.4229c.6816-.1982,1.8042-.5068,2.6401-.7705l.0439,1.8701c-1.5181.4844-2.4644.8145-3.3662,1.1006-1.0781.3301-2.1343.6602-3.4546,1.0996l-.7041-2.1123c.8579-.2197,1.958-.4834,2.9263-.7041v-4.9062h-2.3325v-1.8486h2.3325v-3.6523h-2.5962v-1.8486h7.063ZM143.8633,129.4855v10.0332h-4.3789v2.1787h4.6206v1.6943h-4.6206v2.5967h5.501v1.8037h-13.2681v-1.8037h5.897v-2.5967h-4.2905v-1.6943h4.2905v-2.1787h-4.3789v-10.0332h10.6279ZM135.0176,131.2463v2.5742h2.5967v-2.5742h-2.5967ZM135.0176,135.383v2.3975h2.5967v-2.3975h-2.5967ZM139.4844,131.2463v2.5742h2.3545v-2.5742h-2.3545ZM139.4844,135.383v2.3975h2.3545v-2.3975h-2.3545Z"/>
          <path class="st3" d="M162.166,129.9035c-.4839.792-1.0562,1.7607-1.4741,2.377,2.4863-.2207,3.8066-.4844,5.2808-.8809l.1099,1.959c-3.1465.4395-4.0923.5498-6.4468.6816-.418.6602-.9902,1.4746-1.3203,2.0244.6821-.1758,1.1001-.2422,1.4521-.2422,2.7285,0,2.8828,2.0244,2.9268,2.5967,2.002-.7705,4.0264-1.5186,6.0508-2.2441l.7041,2.1338c-2.5303.4844-4.7969,1.2764-6.7109,1.958.022.9463.022,2.377.0439,3.2129h-2.0024v-2.4863c-1.8262.792-3.8286,1.6943-3.8286,3.0361,0,1.8701,3.7188,1.8701,4.9067,1.8701,1.4741,0,3.1685-.0439,5.8311-.4395v2.1123c-2.5967.2197-4.4888.2637-5.1929.2637-1.6284,0-4.5986-.0654-6.1826-1.3203-.8804-.6602-1.2764-1.5176-1.2764-2.3545,0-2.5078,3.2124-3.8945,5.7427-5.0166,0-.748-.022-1.7158-1.3643-1.7158-2.0464,0-3.0142,1.0342-6.1826,4.709l-1.5405-1.4971c3.3667-2.9697,4.8628-5.2363,5.6768-6.4463-1.0337.0654-2.6621.1094-2.9482.1094-.3081,0-.6382-.0215-.9902-.0439l-.0659-1.8916c.8584.0654,1.7822.0879,2.9707.0879.4839,0,1.0781,0,2.0903-.0664.6377-1.2314,1.0337-2.1777,1.5181-3.3662l2.2222.8799Z"/>
          <path class="st3" d="M181.5469,128.9133v4.4893h2.0029v1.6719h-2.0029v3.9824c.6387-.2197,1.2988-.4834,1.959-.7256v1.9355c-.5938.2207-1.3203.4629-1.959.6602v7.5254h-1.9805v-6.8428c-.9893.2861-2.1562.6816-3.1899,1.0342l-.6157-2.0244,3.8057-.9902v-4.5547h-1.5391c-.1768,1.0342-.418,2.1562-.748,3.2783-.5288-.4395-1.1226-.792-1.7607-.9902.792-2.6396.9019-3.4766,1.3423-6.8643l1.8696.3955c-.1309.8145-.2852,1.7607-.3955,2.5088h1.2314v-4.4893h1.9805ZM190.5684,128.9133v2.7725h4.2246v1.7168h-4.2246v2.3545h5.127v1.6279h-2.3105v2.3105h2.0469v1.6943h-2.0469v5.4785c0,.9678-.1973,1.6064-3.3887,1.6064-.1094-.7041-.418-1.4746-.8574-2.0244h1.958c.2197,0,.3076-.1543.3076-.3525v-4.708h-7.2607v-1.6943h7.2607v-2.3105h-7.7441v-1.6279h4.8848v-2.3545h-4.0273v-1.7168h4.0273v-2.7725h2.0234ZM186.542,141.9396c.8799.8799,1.7158,1.9141,2.5088,2.9707l-1.541,1.0996c-.7256-.9678-1.54-2.002-2.3984-2.9268l1.4307-1.1436Z"/>
          <path class="st3" d="M212.6777,129.5959v7.5029h-4.8848c0,.7256-.0439,1.5625-.1094,2.2881h5.0156c-.043,3.2129-.2637,6.2275-.5059,7.085-.3301,1.2549-1.2754,1.6289-3.7842,2.0908-.0439-.8584-.1758-1.4746-.4619-2.2227h1.7822c.3076,0,.4619-.0664.5283-.374.0879-.3516.3076-2.1787.3516-4.8408h-3.168c-.5508,2.6406-1.1885,4.7305-4.0273,7.2168-.4609-.748-.791-1.166-1.3418-1.6279,3.0801-2.5527,3.6523-5.0166,3.7402-9.6152h-2.1562v-7.5029h9.0215ZM205.5273,131.3342v4.1367h5.127v-4.1367h-5.127ZM216.8359,131.1359v12.2334h-1.9141v-12.2334h1.9141ZM220.9727,129.0236v16.9648c0,1.6494-.9238,1.9355-3.6523,2.1777-.0879-.5723-.2422-1.0996-.6377-1.9365h2.002c.2197,0,.2861-.1318.2861-.3516v-16.8545h2.002Z"/>
          <path class="st3" d="M236.834,129.8381c-.2637.9238-.6816,2.0459-1.0117,2.9043.9678-.1543,2.0459-.374,3.0137-.5947l.0879,2.0029c-1.2754.2637-2.6172.4619-3.7402.6162-1.2979,3.498-2.6182,7.0625-4.9941,11.4189l-1.8926-1.0781c1.0117-1.7822,3.0146-5.3027,4.6211-10.165-.4629.0439-.9248.0654-1.4531.0654-.5723,0-1.209-.0215-1.9141-.0879l.0225-1.9795c.8135.1318,1.7158.1973,2.4863.1973.5498,0,1.0781-.0215,1.4961-.0879.374-1.166.7256-2.4639,1.0557-3.8281l2.2227.6162ZM243.0391,136.549c-.1982.9238-.2422,1.6055-.2422,2.5518,0,.7041.0664,2.2227.1543,3.7852,1.958.6602,3.9824,1.6943,4.8184,2.1338l-1.166,2.0684c-.8359-.5498-2.3105-1.5625-3.6309-2.2002,0,1.4307-.373,2.332-1.8262,2.8389-.6152.2197-1.4521.3516-2.1348.3516-2.1562,0-4.5537-1.21-4.5537-3.0586,0-.9678.7256-2.9482,4.0703-2.9482.3076,0,1.2549,0,2.4639.2861-.0215-.6387-.2197-3.4102-.2197-4.0049,0-.5283.0225-1.166.1104-1.958l2.1562.1543ZM238.9023,146.4504c.5938,0,1.1221-.1318,1.5176-.3965.5508-.3955.6172-.8584.6172-1.3643,0-.1758-.0225-.374-.0225-.6162-.6377-.2197-1.3857-.4619-2.4424-.4619-2.0684,0-2.1777,1.2764-2.1777,1.4307,0,1.0781,1.5615,1.4082,2.5078,1.4082ZM246.625,136.593c-1.6719-.7041-3.498-1.4521-6.6885-2.1348l.4834-1.8037c2.1572.3955,3.8291.792,7.0195,1.9795l-.8145,1.959Z"/>
          <path class="st3" d="M260.1094,135.0305v-1.8926h5.6768v-4.3125h1.9365v4.3125h5.6982v1.8926h-4.9727c.5723,1.3418,2.333,5.2148,6.0508,8.2295-.6816.5059-1.1006,1.1875-1.3857,1.8701-.6816-.5498-1.5186-1.4082-2.2227-2.1562v1.5615h-3.168v3.917h-1.9365v-3.917h-3.8506v-1.54c-.7041.748-1.2764,1.3643-1.959,1.9365-.2852-.4619-.6152-.9902-1.0557-1.4521v4.9951h-1.8916v-11.332c-.6826,1.21-1.3867,2.3105-2.1348,3.2568-.2422-.748-.5938-1.3867-1.0117-2.0684,1.5615-2.1787,3.0801-4.5547,5.082-9.8799l2.0244.9238c-.9238,2.0908-1.2539,2.7949-2.0684,4.3135v9.3945c1.1445-1.0557,3.6084-3.3438,6.0947-8.0527h-4.9062ZM265.7861,142.798v-5.127c-1.8037,2.8818-2.7725,4.0264-3.7188,5.127h3.7188ZM267.7227,142.798h3.0801c-1.1875-1.4531-1.3867-1.8271-3.0801-4.9512v4.9512Z"/>
          <path class="st3" d="M282.1523,142.424c-.1094,1.1875-.2852,2.5518-.5713,3.8281l-1.1221-.3301c.3516-1.1221.6152-2.5088.7031-3.6084l.9902.1104ZM288.9961,129.6838l.0215,1.6719h-2.5742v1.6064h2.002v1.5186h-2.002v1.6279h2.1123v1.4307h-2.1123v2.0459h2.9922c0,2.4863-.5059,6.7549-.7256,7.5029-.1318.4844-.4844.7705-1.2549,1.0127-.2852.0879-1.2969.374-2.3535.4834,0-.7041-.1328-1.21-.5059-1.8262h1.8926c.5488,0,.6592-.3076.8789-2.376l-.8789.1758c-.2871-.9238-.5947-1.7158-1.0791-2.5527l.7705-.2637c.4844.792.8359,1.6064,1.1875,2.4648.1104-1.1445.1768-2.2227.2207-3.1904h-4.335v.4619h-1.6943v-11.7939h7.4375ZM283.4297,142.4455c.1973,1.0781.3301,2.1123.3955,3.2568l-.9463.0215c-.0215-.9023-.0879-2.0898-.2197-3.2344l.7705-.0439ZM283.2529,131.3557v1.6064h1.5625v-1.6064h-1.5625ZM283.2529,134.4807v1.6279h1.5625v-1.6279h-1.5625ZM283.2529,137.5392v2.0459h1.5625v-2.0459h-1.5625ZM284.8809,142.0939c.2871.8799.5723,1.8262.8145,2.8604l-.9678.2197c-.1318-.9678-.3301-2.002-.5947-2.9043l.748-.1758ZM295.7949,129.3312l-.374.5947c2.2217,2.1562,3.2568,2.8818,5.3682,4.1582-.5488.4844-.9678,1.0781-1.2539,1.7383-.748-.5059-1.3203-.9238-1.8701-1.4082v1.0781h-2.1562v1.5186h3.8945v5.457h-3.4102c1.1436,2.4199,3.1465,3.7402,4.7959,4.4219-.8574.6602-1.1875,1.1885-1.4297,1.8701-2.5303-1.7373-3.3662-2.7061-4.6865-4.9277-.9463,1.9141-1.6943,3.0801-4.3789,4.9941-.3955-.6602-.7705-1.1221-1.2764-1.6279,2.332-1.2988,3.5645-3.125,4.1592-4.7305h-3.0586v-5.457h3.5205v-1.5186h-2.4199v-.6162c-.6387.5723-1.2324,1.1221-1.6729,1.4307-.418-.4844-.8799-.9023-1.3857-1.2764,2.3984-1.8701,4.29-4.2246,5.8086-6.5127l1.8262.8135ZM291.791,138.507v2.4639h1.7812c.0664-.8135.0664-1.8262.0664-2.4639h-1.8477ZM297.0488,133.9299c-.748-.6377-.9678-.8574-2.6836-2.5957-1.1885,1.4297-1.3203,1.6064-2.2012,2.5957h4.8848ZM297.5332,140.9709v-2.4639h-2.0244c-.0225.9023-.0654,1.6943-.0879,2.4639h2.1123Z"/>
          <path class="st3" d="M311.9854,130.718c-.5498,2.5303-1.2979,6.0947-1.2979,10.3193,0,.9678.0654,3.4541.5723,6.3594l-2.0908.4834c-.418-2.6846-.5723-4.2686-.5723-6.5352,0-3.5645.374-7.2607,1.1221-11.2432l2.2666.6162ZM315.5723,141.2131c.0215,2.0469.1094,3.4326,5.9629,3.4326,1.6494,0,2.4639-.0879,3.8057-.374l.1104,2.2002c-1.1445.1543-2.0898.2422-3.542.2422-7.3496,0-8.2959-2.2441-8.2959-5.5889l1.959.0879ZM324.2627,134.2599c-1.2314-.1318-1.958-.1533-3.0361-.1533-2.5527,0-4.3125.2422-6.6445.7041l-.2207-2.0029c1.7168-.374,3.4326-.6602,6.9092-.6602.748,0,1.6279.0225,3.0586.0889l-.0664,2.0234Z"/>
        </g>
      </g>
    </g>
  </g>
</svg>