<svg xmlns="http://www.w3.org/2000/svg" width="146.826" height="129.628" viewBox="0 0 146.826 129.628">
  <g id="グループ_95" data-name="グループ 95" transform="translate(-2185.534 -2161.372)">
    <path id="パス_167" data-name="パス 167" d="M147.809,19.459A18.958,18.958,0,0,0,128.851.5H45.119a18.9,18.9,0,0,0-15.98,29.092H21.933a20.954,20.954,0,0,0,0,41.908h92.541a20.878,20.878,0,0,0,16.832-33.327,18.9,18.9,0,0,0,16.5-18.714" transform="translate(2184.551 2219.5)" fill="#5cffff"/>
    <path id="パス_427" data-name="パス 427" d="M-35.156,5.032a1.683,1.683,0,0,1-1.9-1.9v-4.9a3.432,3.432,0,0,1,.816-2.312L-9.588-34.136q7.072-8.024,11.628-13.6A87.658,87.658,0,0,0,9.18-57.6a34.485,34.485,0,0,0,3.6-7.684,24.478,24.478,0,0,0,1.02-7.072,12.135,12.135,0,0,0-4.216-9.724q-4.216-3.6-11.56-3.6a17.463,17.463,0,0,0-10.948,3.6A22.983,22.983,0,0,0-20.2-71.536a1.753,1.753,0,0,1-2.312,1.36l-15.1-4.216q-1.9-.544-1.224-2.312,4.216-13.328,14.076-20.876t23.868-7.548a44.114,44.114,0,0,1,14.416,2.244,33.329,33.329,0,0,1,11.152,6.256,28.13,28.13,0,0,1,7.208,9.656,29.871,29.871,0,0,1,2.584,12.58,45.008,45.008,0,0,1-1.224,10.54,44.754,44.754,0,0,1-4.488,11.016A94.477,94.477,0,0,1,19.72-39.712Q13.94-32.5,4.828-22.848L-3.74-13.736H35.836q1.9,0,1.9,2.04V3.128a1.683,1.683,0,0,1-1.9,1.9Z" transform="translate(2258.058 2267.5)" fill="#fff" stroke="#000" stroke-width="2"/>
  </g>
</svg>
