<svg xmlns="http://www.w3.org/2000/svg" width="146.826" height="127.588" viewBox="0 0 146.826 127.588">
  <g id="グループ_94" data-name="グループ 94" transform="translate(-2185.534 -2026.412)">
    <path id="パス_166" data-name="パス 166" d="M147.809,19.459A18.958,18.958,0,0,0,128.851.5H45.119a18.9,18.9,0,0,0-15.98,29.092H21.933a20.954,20.954,0,0,0,0,41.908h92.541a20.878,20.878,0,0,0,16.832-33.327,18.9,18.9,0,0,0,16.5-18.714" transform="translate(2184.551 2082.5)" fill="#ffaeab"/>
    <path id="パス_430" data-name="パス 430" d="M0,5.032a1.683,1.683,0,0,1-1.9-1.9v-79.7l-19.72,7.752a2.192,2.192,0,0,1-.952.272q-.816,0-1.632-1.224l-2.72-5.3A1.934,1.934,0,0,1-27.2-76.16a2.351,2.351,0,0,1,.816-1.632l28.56-24.344a3.019,3.019,0,0,1,1.156-.816,4.256,4.256,0,0,1,1.156-.136h11.56a1.683,1.683,0,0,1,1.9,1.9V3.128a1.683,1.683,0,0,1-1.9,1.9Z" transform="translate(2247.448 2130.5)" fill="#fff" stroke="#000" stroke-width="2"/>
  </g>
</svg>
