<svg xmlns="http://www.w3.org/2000/svg" width="146.826" height="127.588" viewBox="0 0 146.826 127.588">
  <g id="グループ_97" data-name="グループ 97" transform="translate(-2185.534 -2445.912)">
    <path id="パス_169" data-name="パス 169" d="M147.809,19.459A18.958,18.958,0,0,0,128.851.5H45.119a18.9,18.9,0,0,0-15.98,29.092H21.933a20.954,20.954,0,0,0,0,41.908h92.541a20.878,20.878,0,0,0,16.832-33.327,18.9,18.9,0,0,0,16.5-18.714" transform="translate(2184.551 2502)" fill="#ff0"/>
    <path id="パス_429" data-name="パス 429" d="M10.268,5.032a1.683,1.683,0,0,1-1.9-1.9v-19.04H-42.908a1.683,1.683,0,0,1-1.9-1.9v-4.9A3.127,3.127,0,0,1-44-25.024l56.984-76.84a2.619,2.619,0,0,1,2.312-1.224H26.316a1.683,1.683,0,0,1,1.9,1.9v66.64H42.228a1.683,1.683,0,0,1,1.9,1.9v14.824a1.683,1.683,0,0,1-1.9,1.9H28.22V3.128a1.683,1.683,0,0,1-1.9,1.9Zm-1.9-39.576V-68.68L-16.252-34.544Z" transform="translate(2258.948 2550)" fill="#fff" stroke="#000" stroke-width="2"/>
  </g>
</svg>
