<svg xmlns="http://www.w3.org/2000/svg" width="92.997" height="37.997" viewBox="0 0 92.997 37.997">
  <g id="グループ_308" data-name="グループ 308" transform="translate(-243.003 -2700.003)">
    <g id="グループ_302" data-name="グループ 302" transform="translate(-15.379 -6.984)">
      <g id="合体_1" data-name="合体 1" transform="translate(242.379 2706.985)" fill="#fff">
        <path d="M 61.8218994140625 35.24384307861328 L 59.05474853515625 28.137451171875 L 58.80664825439453 27.50030136108398 L 58.12289810180664 27.50030136108398 L 30.00239944458008 27.50030136108398 C 26.5300121307373 27.50030136108398 23.26552581787109 26.14813804626465 20.81030082702637 23.69290161132812 C 18.35506248474121 21.2376766204834 17.00289916992188 17.97318840026855 17.00289916992188 14.50080108642578 L 17.00289916992188 14.00220108032227 C 17.00289916992188 10.52981376647949 18.35506248474121 7.265326023101807 20.81030082702637 4.81010103225708 C 23.26552581787109 2.35486364364624 26.5300121307373 1.002701163291931 30.00239944458008 1.002701163291931 L 95.00039672851562 1.002701163291931 C 98.47278594970703 1.002701163291931 101.7372741699219 2.35486364364624 104.192497253418 4.81010103225708 C 106.6477355957031 7.265326023101807 107.9999008178711 10.52981376647949 107.9999008178711 14.00220108032227 L 107.9999008178711 14.50080108642578 C 107.9999008178711 17.97318840026855 106.6477355957031 21.2376766204834 104.192497253418 23.69290161132812 C 101.7372741699219 26.14813804626465 98.47278594970703 27.50030136108398 95.00039672851562 27.50030136108398 L 65.52089691162109 27.50030136108398 L 64.83715057373047 27.50030136108398 L 64.58905029296875 28.137451171875 L 61.8218994140625 35.24384307861328 Z" stroke="none"/>
        <path d="M 61.82190322875977 32.48788452148438 L 64.15339660644531 26.50030517578125 L 95.00039672851562 26.50030517578125 C 98.20568084716797 26.50030517578125 101.2190399169922 25.25215721130371 103.4853973388672 22.98579788208008 C 105.7517623901367 20.71943855285645 106.9999084472656 17.70607757568359 106.9999084472656 14.50079822540283 L 106.9999084472656 14.00219821929932 C 106.9999084472656 10.79693126678467 105.7517623901367 7.783557891845703 103.4853973388672 5.517211437225342 C 101.2190399169922 3.250851154327393 98.20568084716797 2.002704620361328 95.00039672851562 2.002704620361328 L 30.00239944458008 2.002704620361328 C 26.79713249206543 2.002704620361328 23.78377342224121 3.250851154327393 21.51741409301758 5.517211437225342 C 19.25105285644531 7.783571243286133 18.00290679931641 10.79693126678467 18.00290679931641 14.00219821929932 L 18.00290679931641 14.50079822540283 C 18.00290679931641 17.70607757568359 19.25105285644531 20.71943855285645 21.51741409301758 22.98579788208008 C 23.78376007080078 25.25215721130371 26.79713249206543 26.50030517578125 30.00239944458008 26.50030517578125 L 59.49039840698242 26.50030517578125 L 61.82190322875977 32.48788452148438 M 61.82190704345703 37.99979782104492 L 58.12290573120117 28.50030517578125 L 30.00239944458008 28.50030517578125 C 22.27050590515137 28.50030517578125 16.00290679931641 22.23270416259766 16.00290679931641 14.50079822540283 L 16.00290679931641 14.00219821929932 C 16.00290679931641 6.270304679870605 22.27050590515137 0.002704554004594684 30.00239944458008 0.002704554004594684 L 95.00039672851562 0.002704554004594684 C 102.732307434082 0.002704554004594684 108.9999084472656 6.270304679870605 108.9999084472656 14.00219821929932 L 108.9999084472656 14.50079822540283 C 108.9999084472656 22.23270416259766 102.732307434082 28.50030517578125 95.00039672851562 28.50030517578125 L 65.52089691162109 28.50030517578125 L 61.82190704345703 37.99979782104492 Z" stroke="none" fill="#d42735"/>
      </g>
    </g>
    <path id="パス_197" data-name="パス 197" d="M-19.723-5.918A5.918,5.918,0,0,1-25.4-1.87a6.229,6.229,0,0,1-5.984-6.336,6.26,6.26,0,0,1,5.9-6.2,5.657,5.657,0,0,1,4.576,2.222h2.772a8.256,8.256,0,0,0-7.458-4.4A8.363,8.363,0,0,0-33.759-7.92,8.362,8.362,0,0,0-25.6.308a8.341,8.341,0,0,0,8.58-8.4h-10.3v2.178Zm17.4-.088a6.435,6.435,0,0,0-6.49-6.512A6.442,6.442,0,0,0-15.477-6.05,6.579,6.579,0,0,0-8.987.308,6.539,6.539,0,0,0-2.321-6.006Zm-2.288-.132A4.324,4.324,0,0,1-8.965-1.782a4.35,4.35,0,0,1-4.224-4.334,4.339,4.339,0,0,1,4.268-4.312A4.286,4.286,0,0,1-4.609-6.138Zm17.138.132a6.435,6.435,0,0,0-6.49-6.512A6.442,6.442,0,0,0-.627-6.05,6.579,6.579,0,0,0,5.863.308,6.539,6.539,0,0,0,12.529-6.006Zm-2.288-.132A4.324,4.324,0,0,1,5.885-1.782,4.35,4.35,0,0,1,1.661-6.116a4.339,4.339,0,0,1,4.268-4.312A4.286,4.286,0,0,1,10.241-6.138Zm14.674.154a4.254,4.254,0,0,1-4.246,4.2,4.284,4.284,0,0,1-4.158-4.29,4.242,4.242,0,0,1,4.158-4.356A4.19,4.19,0,0,1,24.915-5.984ZM27.027,0V-16.28H24.739v5.588h-.044a5.283,5.283,0,0,0-4.2-1.826,6.255,6.255,0,0,0-6.27,6.556A6.2,6.2,0,0,0,20.559.308a5.183,5.183,0,0,0,4.312-2.046h.044V0ZM32.7-4V-16.28H30.415V-4Zm0,4V-2.684H30.415V0Z" transform="translate(289.502 2722.434)" fill="#d42735"/>
  </g>
</svg>
